<svg id="Layer_1" data-name="Layer 1" xmlns="http://www.w3.org/2000/svg" viewBox="0 0 96 96"><defs><style>.cls-1{fill:lime;}</style></defs><title>AC-SLD_Icons_Pink</title><path class="cls-1" d="M95.51,47.51H68.41c-.73-1.9-5.59-2.89-10.4-2.89s-9.67,1-10.4,2.89H20.9c-.73-1.9-5.59-2.89-10.4-2.89C5.28,44.62,0,45.78,0,48s5.28,3.38,10.5,3.38c4.82,0,9.67-1,10.4-2.89h26.7c.73,1.9,5.59,2.89,10.4,2.89s9.67-1,10.4-2.89h27.1a.49.49,0,0,0,0-1Zm-85,2.89C4.7,50.39,1,49,1,48s3.71-2.39,9.51-2.39S20,47,20,48,16.31,50.39,10.5,50.39Zm47.51,0c-5.81,0-9.51-1.42-9.51-2.39S52.2,45.61,58,45.61,67.52,47,67.52,48,63.82,50.39,58,50.39Z"/></svg>
