<svg id="Layer_1" data-name="Layer 1" xmlns="http://www.w3.org/2000/svg" viewBox="0 0 96 96"><defs><style>.cls-1{fill:#b9529f;}</style></defs><title>AC-SLD_Icons_Pink</title><path class="cls-1" d="M48,96A48,48,0,1,1,96,48,48.05,48.05,0,0,1,48,96ZM48,1A47,47,0,1,0,95,48,47.06,47.06,0,0,0,48,1Z"/><path d="M45.39,38.58a6.29,6.29,0,0,1-1.46,4.13,7.61,7.61,0,0,1-3.78,2.46,8.46,8.46,0,0,1,4.41,2.67,6.62,6.62,0,0,1,1.64,4.41,7,7,0,0,1-2.45,5.64A9.74,9.74,0,0,1,37.25,60a9.78,9.78,0,0,1-6.56-2.07,7,7,0,0,1-2.43-5.64,6.72,6.72,0,0,1,1.59-4.42,8.22,8.22,0,0,1,4.36-2.66,7.39,7.39,0,0,1-3.74-2.46,6.39,6.39,0,0,1-1.42-4.13,7.08,7.08,0,0,1,2.23-5.51,8.41,8.41,0,0,1,5.89-2,8.49,8.49,0,0,1,5.94,2.07A7,7,0,0,1,45.39,38.58Zm-.25,13.76a6,6,0,0,0-2.22-4.77,8.54,8.54,0,0,0-5.7-1.87,8.52,8.52,0,0,0-5.7,1.87,6,6,0,0,0-2.2,4.78,5.91,5.91,0,0,0,2.16,4.77,8.75,8.75,0,0,0,5.79,1.8A8.63,8.63,0,0,0,43,57.1,5.9,5.9,0,0,0,45.14,52.34Zm-.79-13.86a5.85,5.85,0,0,0-2.07-4.57,7.43,7.43,0,0,0-5.1-1.83,7.39,7.39,0,0,0-5.09,1.76,5.9,5.9,0,0,0-2,4.64,5.62,5.62,0,0,0,2,4.46,7.56,7.56,0,0,0,5.14,1.71,7.57,7.57,0,0,0,5.13-1.73A5.6,5.6,0,0,0,44.35,38.48Z"/><path d="M64.24,31v1q-5.91,0-9.18,3.5T51.54,45.4a8.12,8.12,0,0,1,3.25-3.16,9.5,9.5,0,0,1,4.66-1.17,7.47,7.47,0,0,1,5.92,2.53,9.8,9.8,0,0,1,2.21,6.69,11.78,11.78,0,0,1-1,4.91,8.25,8.25,0,0,1-2.84,3.49A7.06,7.06,0,0,1,59.64,60,9.22,9.22,0,0,1,55,58.76a8.37,8.37,0,0,1-3.27-3.42,11,11,0,0,1-1.22-5.06V46.81q0-7.5,3.54-11.64T64.24,31ZM59.31,42.11a8.54,8.54,0,0,0-5,1.55,6.61,6.61,0,0,0-2.83,3.89V50a9.11,9.11,0,0,0,2.26,6.43,7.6,7.6,0,0,0,5.86,2.45,6,6,0,0,0,4.95-2.5,9.66,9.66,0,0,0,2-6.13,8.73,8.73,0,0,0-1.93-6A6.67,6.67,0,0,0,59.31,42.11Z"/></svg>