<svg id="Layer_1" data-name="Layer 1" xmlns="http://www.w3.org/2000/svg" viewBox="0 0 96 96"><defs><style>.cls-1{fill:#b9529f;}</style></defs><title>AC-SLD_Icons_Pink</title><path class="cls-1" d="M48,96A48,48,0,1,1,96,48,48.05,48.05,0,0,1,48,96ZM48,1A47,47,0,1,0,95,48,47.06,47.06,0,0,0,48,1Z"/><path d="M16.79,44.84l1.31-13.41H31.83v1H19.05L17.91,43.74a7.84,7.84,0,0,1,2.66-1.35,10.72,10.72,0,0,1,3.24-.52,7.93,7.93,0,0,1,6.05,2.4,8.86,8.86,0,0,1,2.26,6.34q0,4.58-2,7A7.32,7.32,0,0,1,24.2,60a8.23,8.23,0,0,1-5.84-2.07,8.39,8.39,0,0,1-2.51-5.72h1.06a7.53,7.53,0,0,0,2.16,5,7.24,7.24,0,0,0,5.12,1.72,6.25,6.25,0,0,0,5.17-2.1q1.69-2.1,1.69-6.18a7.93,7.93,0,0,0-2-5.62,6.85,6.85,0,0,0-5.27-2.11,10.48,10.48,0,0,0-3.54.54,7.51,7.51,0,0,0-2.71,1.7Z"/><path d="M53.25,48.09q0,5.66-2.2,8.77A7.15,7.15,0,0,1,44.86,60a7.21,7.21,0,0,1-6.2-3.13Q36.41,53.69,36.41,48v-5.1q0-5.61,2.21-8.75A7.15,7.15,0,0,1,44.82,31,7.17,7.17,0,0,1,51,34.16Q53.25,37.3,53.25,43Zm-1-5.18q0-5.12-1.92-8a6.2,6.2,0,0,0-5.46-2.86,6.16,6.16,0,0,0-5.46,2.87q-1.9,2.87-1.9,8.07v5q0,5.1,2,8a6.22,6.22,0,0,0,5.45,2.88A6.14,6.14,0,0,0,50.29,56Q52.2,53.15,52.2,48Z"/><path d="M79.81,59.57h-1L60.59,33.2V59.57H59.53V31.42h1.06L78.76,57.73V31.42h1Z"/></svg>