<svg id="Layer_1" data-name="Layer 1" xmlns="http://www.w3.org/2000/svg" viewBox="0 0 96 96"><defs><style>.cls-1{fill:#b9529f;}</style></defs><title>AC-SLD_Icons_Pink</title><path class="cls-1" d="M69.83,52.38A26.17,26.17,0,1,1,96,26.21,26.2,26.2,0,0,1,69.83,52.38ZM69.83,1A25.18,25.18,0,1,0,95,26.21,25.2,25.2,0,0,0,69.83,1Z"/><path d="M80,32.6H59.48a.5.5,0,0,1-.46-.69L69.26,8a.52.52,0,0,1,.91,0L80.42,31.91a.5.5,0,0,1-.46.69Zm-19.73-1h19L69.72,9.49Z"/><path class="cls-1" d="M69.83,79.63A21.73,21.73,0,1,1,91.57,57.89,21.76,21.76,0,0,1,69.83,79.63Zm0-42.48A20.74,20.74,0,1,0,90.57,57.89,20.77,20.77,0,0,0,69.83,37.15Z"/><path class="cls-1" d="M69.69,58.39H8.37a.5.5,0,1,1,0-1H69.69a.5.5,0,1,1,0,1Z"/><path class="cls-1" d="M16.24,86.5H.5a.5.5,0,0,1,0-1H16.24a.5.5,0,0,1,0,1Z"/><path class="cls-1" d="M14.13,89.56H2.46a.5.5,0,0,1,0-1H14.13a.5.5,0,0,1,0,1Z"/><path class="cls-1" d="M12.23,92.49H3.94a.5.5,0,0,1,0-1h8.29a.5.5,0,0,1,0,1Z"/><path class="cls-1" d="M10.18,96H6.56a.5.5,0,0,1,0-1h3.62a.5.5,0,0,1,0,1Z"/><path class="cls-1" d="M8.37,86.5a.5.5,0,0,1-.5-.5V57.89a.5.5,0,0,1,1,0V86A.5.5,0,0,1,8.37,86.5Z"/><path d="M81.7,65.33a.49.49,0,0,1-.25-.07l-11.87-7a.5.5,0,0,1,.5-.85l11.87,7a.5.5,0,0,1-.25.92Z"/><path d="M57.91,65.12a.5.5,0,0,1-.25-.93l11.93-6.81a.5.5,0,0,1,.49.86L58.15,65.05A.49.49,0,0,1,57.91,65.12Z"/><path d="M69.83,58.31a.5.5,0,0,1-.5-.5V44a.5.5,0,1,1,1,0V57.81A.5.5,0,0,1,69.83,58.31Z"/><rect class="cls-1" x="69.34" y="78.84" width="0.99" height="16.95"/></svg>
