<svg id="Layer_1" data-name="Layer 1" xmlns="http://www.w3.org/2000/svg" viewBox="0 0 96 96"><defs><style>.cls-1{fill:#b9529f;}</style></defs><title>AC-SLD_Icons_Pink</title><path class="cls-1" d="M58.73,69.92a.49.49,0,0,1-.26-.07L44.93,61.67a.49.49,0,0,1,.51-.85L59,69a.49.49,0,0,1-.26.92Z"/><path class="cls-1" d="M60.81,74a2.75,2.75,0,1,1,2.75-2.75A2.75,2.75,0,0,1,60.81,74Zm0-4.51a1.76,1.76,0,1,0,1.76,1.76A1.76,1.76,0,0,0,60.81,69.53Z"/><path class="cls-1" d="M95.51,83.14H83.08a.49.49,0,0,1,0-1H95.51a.49.49,0,0,1,0,1Z"/><path class="cls-1" d="M94,86.62H84.75a.49.49,0,1,1,0-1H94a.49.49,0,0,1,0,1Z"/><path class="cls-1" d="M90.72,90.11H87.86a.49.49,0,0,1,0-1h2.86a.49.49,0,0,1,0,1Z"/><path class="cls-1" d="M89.29,83.14a.49.49,0,0,1-.49-.49V71.29a.49.49,0,0,1,1,0V82.64A.49.49,0,0,1,89.29,83.14Z"/><path class="cls-1" d="M89.29,71.78H63.06a.49.49,0,0,1,0-1H89.29a.49.49,0,0,1,0,1Z"/><path class="cls-1" d="M12.72,59.69a3.79,3.79,0,1,1,3.79-3.79A3.79,3.79,0,0,1,12.72,59.69Zm0-6.58a2.8,2.8,0,1,0,2.8,2.8A2.8,2.8,0,0,0,12.72,53.1Z"/><path class="cls-1" d="M41.76,74a2.75,2.75,0,1,1,2.75-2.75A2.75,2.75,0,0,1,41.76,74Zm0-4.51a1.76,1.76,0,1,0,1.76,1.76A1.76,1.76,0,0,0,41.76,69.53Z"/><rect class="cls-1" x="12.23" y="59.19" width="0.99" height="36.81"/><rect class="cls-1" x="13.28" y="70.8" width="26.23" height="0.99"/><circle class="cls-1" cx="12.72" cy="71.29" r="2.25"/><path class="cls-1" d="M12.72,40.44a3.79,3.79,0,1,1,3.79-3.79A3.79,3.79,0,0,1,12.72,40.44Zm0-6.58a2.8,2.8,0,1,0,2.8,2.8A2.8,2.8,0,0,0,12.72,33.85Z"/><path class="cls-1" d="M15.34,34.53a.49.49,0,0,1-.35-.84L24.64,24a.49.49,0,0,1,.7.7l-9.65,9.65A.49.49,0,0,1,15.34,34.53Z"/><path class="cls-1" d="M.49,49.37a.49.49,0,0,1-.35-.84L9.8,38.88a.49.49,0,1,1,.7.7L.84,49.23A.49.49,0,0,1,.49,49.37Z"/><path class="cls-1" d="M12.72,22.86a3.79,3.79,0,1,1,3.79-3.79A3.79,3.79,0,0,1,12.72,22.86Zm0-6.58a2.8,2.8,0,1,0,2.8,2.8A2.8,2.8,0,0,0,12.72,16.27Z"/><rect class="cls-1" x="12.23" width="0.99" height="15.78"/></svg>
