<svg id="Layer_1" data-name="Layer 1" xmlns="http://www.w3.org/2000/svg" viewBox="0 0 96 96"><defs><style>.cls-1{fill:#b9529f;}</style></defs><title>AC-SLD_Icons_Pink</title><circle class="cls-1" cx="1.95" cy="48" r="1.95"/><path class="cls-1" d="M45.65,48.5H2.79a.5.5,0,1,1,0-1H45.65a.5.5,0,0,1,0,1Z"/><path class="cls-1" d="M86.32,48.5H69.68a.5.5,0,1,1,0-1H86.32a.5.5,0,0,1,0,1Z"/><polygon class="cls-1" points="45.08 51.79 45.08 44.21 53.76 48 45.08 51.79"/><path class="cls-1" d="M69.18,56.66h-34a.5.5,0,0,1-.5-.5V39.84a.5.5,0,0,1,.5-.5h34a.5.5,0,0,1,.5.5V56.16A.5.5,0,0,1,69.18,56.66Zm-33.55-1H68.69V40.34H35.63Z"/><path class="cls-1" d="M86.73,56.31a.5.5,0,0,1-.5-.5V40.18a.5.5,0,1,1,1,0V55.81A.5.5,0,0,1,86.73,56.31Z"/><path class="cls-1" d="M91.12,54.27a.5.5,0,0,1-.5-.5V42.22a.5.5,0,1,1,1,0V53.78A.5.5,0,0,1,91.12,54.27Z"/><path class="cls-1" d="M95.5,50.3a.5.5,0,0,1-.5-.5V46.2a.5.5,0,1,1,1,0v3.6A.5.5,0,0,1,95.5,50.3Z"/><rect class="cls-1" x="1.45" width="1" height="96"/></svg>
