<svg id="Layer_1" data-name="Layer 1" xmlns="http://www.w3.org/2000/svg" viewBox="0 0 96 96"><defs><style>.cls-1{fill:#b9529f;}</style></defs><title>AC-SLD_Icons_Pink</title><path class="cls-1" d="M58.73,19.2a.49.49,0,0,1-.26-.07L44.93,10.95a.49.49,0,1,1,.51-.85L59,18.29a.49.49,0,0,1-.26.92Z"/><path class="cls-1" d="M60.81,23.32a2.75,2.75,0,1,1,2.75-2.75A2.75,2.75,0,0,1,60.81,23.32Zm0-4.51a1.76,1.76,0,1,0,1.76,1.76A1.76,1.76,0,0,0,60.81,18.81Z"/><path class="cls-1" d="M95.51,32.42H83.08a.49.49,0,0,1,0-1H95.51a.49.49,0,0,1,0,1Z"/><path class="cls-1" d="M94,35.9H84.75a.49.49,0,1,1,0-1H94a.49.49,0,0,1,0,1Z"/><path class="cls-1" d="M90.72,39.39H87.86a.49.49,0,0,1,0-1h2.86a.49.49,0,0,1,0,1Z"/><path class="cls-1" d="M89.29,32.42a.49.49,0,0,1-.49-.49V20.57a.49.49,0,0,1,1,0V31.92A.49.49,0,0,1,89.29,32.42Z"/><path class="cls-1" d="M89.29,21.06H63.06a.49.49,0,0,1,0-1H89.29a.49.49,0,0,1,0,1Z"/><path class="cls-1" d="M12.72,39.75A3.79,3.79,0,1,1,16.51,36,3.79,3.79,0,0,1,12.72,39.75Zm0-6.58a2.8,2.8,0,1,0,2.8,2.8A2.8,2.8,0,0,0,12.72,33.17Z"/><path class="cls-1" d="M41.76,23.32a2.75,2.75,0,1,1,2.75-2.75A2.75,2.75,0,0,1,41.76,23.32Zm0-4.51a1.76,1.76,0,1,0,1.76,1.76A1.76,1.76,0,0,0,41.76,18.81Z"/><rect class="cls-1" x="12.22" width="1" height="32.67"/><rect class="cls-1" x="13.28" y="20.07" width="26.23" height="0.99"/><circle class="cls-1" cx="12.72" cy="20.57" r="2.25"/><path class="cls-1" d="M12.72,59a3.79,3.79,0,1,1,3.79-3.79A3.79,3.79,0,0,1,12.72,59Zm0-6.58a2.8,2.8,0,1,0,2.8,2.8A2.8,2.8,0,0,0,12.72,52.46Z"/><path class="cls-1" d="M15.34,53.13a.49.49,0,0,1-.35-.84l9.65-9.65a.49.49,0,0,1,.7.7L15.69,53A.49.49,0,0,1,15.34,53.13Z"/><path class="cls-1" d="M.49,68a.49.49,0,0,1-.35-.84L9.8,57.48a.49.49,0,1,1,.7.7L.84,67.83A.49.49,0,0,1,.49,68Z"/><path class="cls-1" d="M12.72,76.58a3.79,3.79,0,1,1,3.79-3.79A3.79,3.79,0,0,1,12.72,76.58Zm0-6.58a2.8,2.8,0,1,0,2.8,2.8A2.8,2.8,0,0,0,12.72,70Z"/><rect class="cls-1" x="12.21" y="76.08" width="1.01" height="19.92"/></svg>
