<svg id="Layer_1" data-name="Layer 1" xmlns="http://www.w3.org/2000/svg" viewBox="0 0 96 96"><title>AC-SLD_Icons_Pink</title><path d="M30.91,64H28V25h2.91Z"/><path d="M67.65,51.87q-.59,6.16-3.9,9.43A12,12,0,0,1,55,64.57a11.14,11.14,0,0,1-6.79-2.17,13.85,13.85,0,0,1-4.56-6.15A24.4,24.4,0,0,1,42,47.16V42.09a24.61,24.61,0,0,1,1.61-9.22,13.71,13.71,0,0,1,4.63-6.2,11.56,11.56,0,0,1,7-2.18,11.51,11.51,0,0,1,8.75,3.38q3.21,3.38,3.73,9.35H64.71q-1.09-9.94-9.55-9.94a8.68,8.68,0,0,0-7.47,4q-2.78,4-2.78,11V47q0,6.76,2.71,10.78a8.42,8.42,0,0,0,7.33,4q4.57,0,6.89-2.48t2.87-7.44Z"/></svg>