<svg id="Layer_1" data-name="Layer 1" xmlns="http://www.w3.org/2000/svg" viewBox="0 0 96 96"><defs><style>.cls-1{fill:#b9529f;}</style></defs><title>AC-SLD_Icons_Pink</title><path class="cls-1" d="M48,27.69a5.49,5.49,0,1,1,5.49-5.49A5.5,5.5,0,0,1,48,27.69Zm0-10a4.49,4.49,0,1,0,4.49,4.49A4.49,4.49,0,0,0,48,17.71Z"/><rect class="cls-1" x="47.5" width="1" height="17.21"/><rect class="cls-1" x="47.5" y="27.19" width="1" height="17.21"/><rect class="cls-1" x="47.5" y="54.57" width="1" height="17.21"/><path class="cls-1" d="M48,55.07a5.49,5.49,0,1,1,5.49-5.49A5.5,5.5,0,0,1,48,55.07Zm0-10a4.49,4.49,0,1,0,4.49,4.49A4.49,4.49,0,0,0,48,45.09Z"/><path class="cls-1" d="M48,82.26a5.49,5.49,0,1,1,5.49-5.49A5.5,5.5,0,0,1,48,82.26Zm0-10a4.49,4.49,0,1,0,4.49,4.49A4.49,4.49,0,0,0,48,72.28Z"/><rect class="cls-1" x="47.5" y="81.76" width="1" height="14.24"/></svg>
