<svg id="Layer_1" data-name="Layer 1" xmlns="http://www.w3.org/2000/svg" viewBox="0 0 96 96"><title>AC-SLD_Icons_Pink</title><path d="M63.2,0H32a.6.6,0,0,0-.6.6V95.4a.6.6,0,0,0,.6.6H63.2a.6.6,0,0,0,.6-.6V.6A.6.6,0,0,0,63.2,0Zm-.39,13.56H48.08V1H62.81ZM47.09,28.11V40.69H32.35V28.11Zm-14.73-1V14.55H47.09V27.12ZM47.09,41.68V54.25H32.35V41.68Zm0,13.56V67.81H32.35V55.24Zm0,13.56V81.53H32.35V68.8Zm1,0H62.81V81.53H48.08Zm0-1V55.24H62.81V67.81Zm0-13.56V41.68H62.81V54.25Zm0-13.56V28.11H62.81V40.69Zm0-13.56V14.55H62.81V27.12ZM47.09,1V13.56H32.35V1ZM32.35,82.52H47.09V95H32.35ZM48.08,95V82.52H62.81V95Z"/></svg>