<svg id="Layer_1" data-name="Layer 1" xmlns="http://www.w3.org/2000/svg" viewBox="0 0 96 96"><defs><style>.cls-1{fill:lime;}</style></defs><title>AC-SLD_Icons_Pink</title><path class="cls-1" d="M87.34,45.15c-3.91,0-7.86.81-8.54,2.37H55.95c-.7-1.55-4.63-2.36-8.54-2.36s-7.84.81-8.54,2.36H17.2c-.7-1.55-4.63-2.36-8.54-2.36C4.36,45.15,0,46.13,0,48s4.36,2.85,8.66,2.85c3.9,0,7.84-.81,8.54-2.36H38.87c.7,1.55,4.63,2.36,8.54,2.36s7.84-.81,8.54-2.36H78.8c.68,1.56,4.63,2.37,8.54,2.37,4.3,0,8.66-1,8.66-2.85S91.64,45.15,87.34,45.15ZM8.66,49.86C3.7,49.86,1,48.63,1,48s2.71-1.86,7.67-1.86,7.67,1.23,7.67,1.86S13.62,49.86,8.66,49.86Zm38.75,0c-5,0-7.67-1.23-7.67-1.86s2.71-1.86,7.67-1.86,7.67,1.23,7.67,1.86S52.37,49.86,47.41,49.86Zm39.93,0c-5,0-7.67-1.23-7.67-1.86s2.71-1.86,7.67-1.86S95,47.37,95,48,92.3,49.86,87.34,49.86Z"/></svg>
