<svg id="Layer_1" data-name="Layer 1" xmlns="http://www.w3.org/2000/svg" viewBox="0 0 96 96"><defs><style>.cls-1{fill:#b9529f;}</style></defs><title>AC-SLD_Icons_Pink</title><path class="cls-1" d="M90.66,47.73H85.47a.61.61,0,0,1-.61-.61V44.42a.61.61,0,0,1,.61-.61h5.18a.61.61,0,0,1,.61.61v2.71A.61.61,0,0,1,90.66,47.73Zm-4.79-1h4.4V44.81h-4.4Z"/><path class="cls-1" d="M85,46.27H80.26a.5.5,0,1,1,0-1H85a.5.5,0,1,1,0,1Z"/><path class="cls-1" d="M95.63,46.27H90.85a.5.5,0,1,1,0-1h4.77a.5.5,0,1,1,0,1Z"/><path class="cls-1" d="M67.3,55.11a.5.5,0,0,1-.5-.5V9.6a.5.5,0,0,1,1,0v45A.5.5,0,0,1,67.3,55.11Z"/><path class="cls-1" d="M83.38,18.72a.5.5,0,0,1-.5-.5V.5a.5.5,0,0,1,1,0V18.22A.5.5,0,0,1,83.38,18.72Z"/><path class="cls-1" d="M86.83,16.34a.5.5,0,0,1-.5-.5V2.71a.5.5,0,0,1,1,0V15.85A.5.5,0,0,1,86.83,16.34Z"/><path class="cls-1" d="M90.13,14.2a.5.5,0,0,1-.5-.5V4.38a.5.5,0,0,1,1,0v9.33A.5.5,0,0,1,90.13,14.2Z"/><path class="cls-1" d="M94,11.9a.5.5,0,0,1-.5-.5V7.32a.5.5,0,0,1,1,0V11.4A.5.5,0,0,1,94,11.9Z"/><path class="cls-1" d="M83.38,10.1H67.3a.5.5,0,0,1,0-1H83.38a.5.5,0,1,1,0,1Z"/><path class="cls-1" d="M67.56,58.51a12.8,12.8,0,1,1,12.8-12.8A12.81,12.81,0,0,1,67.56,58.51Zm0-24.6a11.8,11.8,0,1,0,11.8,11.8A11.81,11.81,0,0,0,67.56,33.91Z"/><path class="cls-1" d="M67.23,46a.5.5,0,0,1-.33-.12l-6.23-5.46a.5.5,0,1,1,.66-.75l6.23,5.46a.5.5,0,0,1-.33.87Z"/><path class="cls-1" d="M67.3,45.88A.5.5,0,0,1,67,45l6.83-5.13a.5.5,0,0,1,.6.8L67.6,45.78A.5.5,0,0,1,67.3,45.88Z"/><path class="cls-1" d="M43.09,45.78h0l-8.62-.06a.5.5,0,0,1,0-1h0l8.62.06a.5.5,0,0,1,0,1Z"/><path class="cls-1" d="M43.33,85.35H25.61a.5.5,0,1,1,0-1H43.33a.5.5,0,0,1,0,1Z"/><path class="cls-1" d="M41,88.8H27.82a.5.5,0,1,1,0-1H41a.5.5,0,0,1,0,1Z"/><path class="cls-1" d="M38.82,92.1H29.49a.5.5,0,1,1,0-1h9.33a.5.5,0,0,1,0,1Z"/><path class="cls-1" d="M36.51,96H32.43a.5.5,0,1,1,0-1h4.08a.5.5,0,1,1,0,1Z"/><path class="cls-1" d="M34.47,85.09a.5.5,0,0,1-.5-.5V45.23a.5.5,0,1,1,1,0V84.59A.5.5,0,0,1,34.47,85.09Z"/><path class="cls-1" d="M43.6,61.24A15.53,15.53,0,1,1,59.13,45.71,15.55,15.55,0,0,1,43.6,61.24Zm0-30.07A14.54,14.54,0,1,0,58.14,45.71,14.55,14.55,0,0,0,43.6,31.17Z"/><path class="cls-1" d="M43.6,45.73a.5.5,0,0,1-.33-.12l-7.71-6.76a.5.5,0,1,1,.66-.75l7.71,6.76a.5.5,0,0,1-.33.87Z"/><path class="cls-1" d="M43.68,45.63a.5.5,0,0,1-.3-.9l8.45-6.35a.5.5,0,0,1,.6.8L44,45.53A.5.5,0,0,1,43.68,45.63Z"/><path class="cls-1" d="M43.68,57.25a.5.5,0,0,1-.5-.5V45.23a.5.5,0,1,1,1,0V56.75A.5.5,0,0,1,43.68,57.25Z"/><circle class="cls-1" cx="1.52" cy="45.71" r="1.65"/><path class="cls-1" d="M23.47,47.59H18.28a.61.61,0,0,1-.61-.61V44.27a.61.61,0,0,1,.61-.61h5.18a.61.61,0,0,1,.61.61V47A.61.61,0,0,1,23.47,47.59Zm-4.79-1h4.4V44.66h-4.4Z"/><path class="cls-1" d="M28.11,46.27H23.89a.5.5,0,1,1,0-1h4.23a.5.5,0,1,1,0,1Z"/><path class="cls-1" d="M18.16,46.27H1.89a.5.5,0,1,1,0-1H18.16a.5.5,0,1,1,0,1Z"/></svg>
