<svg id="Layer_1" data-name="Layer 1" xmlns="http://www.w3.org/2000/svg" viewBox="0 0 96 96"><defs><style>.cls-1{fill:#b9529f;}</style></defs><title>AC-SLD_Icons_Pink</title><path class="cls-1" d="M48,96A48,48,0,1,1,96,48,48.05,48.05,0,0,1,48,96ZM48,1A47,47,0,1,0,95,48,47.06,47.06,0,0,0,48,1Z"/><path d="M33,32.08,20.58,59.57H19.52l12.26-27.1H15v-1H33Z"/><path d="M51.45,50.85h4.87v1H51.45v7.67h-1V51.89H36.76v-.58L50.19,31.42h1.26Zm-13.07,0h12V32.68l-1.62,2.67Z"/><path d="M79.85,50.95a9.82,9.82,0,0,1-3,6.68,10.13,10.13,0,0,1-7,2.33,9.44,9.44,0,0,1-5.31-1.52,10,10,0,0,1-3.59-4.31,15.42,15.42,0,0,1-1.3-6.39V43.39A15.69,15.69,0,0,1,60.88,37a9.94,9.94,0,0,1,3.59-4.38A9.44,9.44,0,0,1,69.81,31a10.18,10.18,0,0,1,7,2.32,9.71,9.71,0,0,1,3,6.65h-1A9,9,0,0,0,76.1,34.1a9.1,9.1,0,0,0-6.28-2,8.13,8.13,0,0,0-6.62,3.09,12.73,12.73,0,0,0-2.52,8.29V47.6a14.56,14.56,0,0,0,1.12,5.89,9.12,9.12,0,0,0,3.22,4,8.32,8.32,0,0,0,4.8,1.43,9.26,9.26,0,0,0,6.31-2,8.77,8.77,0,0,0,2.68-6Z"/></svg>
