<svg id="Layer_1" data-name="Layer 1" xmlns="http://www.w3.org/2000/svg" viewBox="0 0 96 96"><defs><style>.cls-1{fill:#b9529f;}</style></defs><title>AC-SLD_Icons_Pink</title><path class="cls-1" d="M88.51,54.73a.49.49,0,0,1-.49-.49V41.77a.49.49,0,0,1,1,0V54.23A.49.49,0,0,1,88.51,54.73Z"/><path class="cls-1" d="M92,53.06a.49.49,0,0,1-.49-.49V43.32a.49.49,0,0,1,1,0v9.24A.49.49,0,0,1,92,53.06Z"/><path class="cls-1" d="M95.51,49.93a.49.49,0,0,1-.49-.49V46.57a.49.49,0,0,1,1,0v2.87A.49.49,0,0,1,95.51,49.93Z"/><rect class="cls-1" y="47.5" width="88.72" height="0.99"/></svg>
