<svg id="Layer_1" data-name="Layer 1" xmlns="http://www.w3.org/2000/svg" viewBox="0 0 96 96"><defs><style>.cls-1{fill:#b9529f;}</style></defs><title>AC-SLD_Icons_Pink</title><path d="M40.83,96a.49.49,0,0,1-.49-.49V.49a.49.49,0,1,1,1,0v95A.49.49,0,0,1,40.83,96Z"/><path class="cls-1" d="M60.65,17.71H32.52a.49.49,0,1,1,0-1H60.65a.49.49,0,1,1,0,1Z"/><path class="cls-1" d="M49.5,45.62H31.83a.49.49,0,1,1,0-1H49.5a.49.49,0,0,1,0,1Z"/><path class="cls-1" d="M77.6,73.8H32.52a.49.49,0,1,1,0-1H77.6a.49.49,0,1,1,0,1Z"/><path class="cls-1" d="M31.83,45.62h-.05c-9.83-1-14-8.25-13.76-14.92.23-6.5,4.86-13.64,14.49-14a.49.49,0,0,1,0,1c-9,.32-13.32,7-13.53,13-.22,6.21,3.68,12.92,12.88,13.9a.49.49,0,0,1-.05,1Z"/><path class="cls-1" d="M32.24,73.8h-.05c-10.18-1.05-14.5-8.31-14.27-15s5-13.8,15-14.14a.48.48,0,0,1,.51.48.49.49,0,0,1-.48.51c-9.36.32-13.86,7.06-14.07,13.18s3.84,13,13.38,14a.49.49,0,0,1-.05,1Z"/></svg>