<?xml version="1.0" encoding="utf-8"?>
<!-- Generator: Adobe Illustrator 20.0.0, SVG Export Plug-In . SVG Version: 6.00 Build 0)  -->
<svg version="1.1" id="Layer_1" xmlns="http://www.w3.org/2000/svg" xmlns:xlink="http://www.w3.org/1999/xlink" x="0px" y="0px"
	 viewBox="0 0 20 20" style="enable-background:new 0 0 20 20;" xml:space="preserve">
<style type="text/css">
	.st0{fill:#00A7E9;}
	.st1{fill:#94949C;}
	.st2{fill:#50505A;}
</style>
<g>
	<path class="st0" d="M19.3,5.4c-0.4-0.8-1.3-1-2.1-0.6c0,0,0,0,0,0c-0.9,0.5-7.4,5.2-8.9,6.8c-0.2-0.2-0.4-0.5-0.5-0.7
		c-0.4-0.5-0.8-1.1-1.3-1.7C5.9,8.4,4.9,8.3,4.2,8.8C3.6,9.3,3.4,10.3,4,11c0.5,0.6,0.9,1.2,1.3,1.7c0.6,0.8,1.1,1.5,1.7,2.2
		c0.3,0.3,0.7,0.6,1.2,0.6h0c0.4,0,0.9-0.2,1.2-0.5c1.1-1.3,2.3-2.5,3.6-3.6l1.7-1.3l0,0c1.3-0.9,2.6-1.8,4-2.5
		C19.4,7.1,19.7,6.1,19.3,5.4z"/>
	<path class="st0" d="M0.5,1.8v16.4h16.4V1.8H0.5z M15.7,16.9H1.8V3.1h13.9V16.9z"/>
	<path class="st0" d="M0.5,1.8v16.4h16.4V1.8H0.5z M15.7,16.9H1.8V3.1h13.9V16.9z"/>
</g>
</svg>
