<?xml version="1.0" encoding="utf-8"?>
<!-- Generator: Adobe Illustrator 19.2.1, SVG Export Plug-In . SVG Version: 6.00 Build 0)  -->
<svg version="1.1" id="Layer_1" xmlns="http://www.w3.org/2000/svg" xmlns:xlink="http://www.w3.org/1999/xlink" x="0px" y="0px"
	 viewBox="0 0 20 20" style="enable-background:new 0 0 20 20;" xml:space="preserve">
<style type="text/css">
	.st0{fill:#51515A;}
	.st1{fill:#00A7E9;}
	.st2{fill-rule:evenodd;clip-rule:evenodd;fill:#FFFFFF;}
	.st3{fill:#707171;}
	.st4{fill:#07CBFC;}
	.st5{fill:#B4B4BE;}
	.st6{fill:#94949C;}
	.st7{fill:#FFFFFF;}
	.st8{fill:#50505A;}
</style>
<g>
	<path class="st1" d="M17.6,19.5H2.4c-1.1,0-1.9-0.9-1.9-1.9V2.4c0-1.1,0.9-1.9,1.9-1.9h15.2c1.1,0,1.9,0.9,1.9,1.9v15.2
		C19.5,18.6,18.6,19.5,17.6,19.5z"/>
	<g id="Forma_1">
		<g>
			<path class="st2" d="M12.1,10l4.6-4.6c0.1-0.1,0.1-0.3,0-0.4L15,3.3c-0.1-0.1-0.1-0.1-0.2-0.1s-0.1,0-0.2,0.1L10,7.9L5.4,3.3
				C5.3,3.1,5.1,3.1,5,3.3L3.3,5c-0.1,0.1-0.1,0.3,0,0.4L7.9,10l-4.6,4.6c-0.1,0.1-0.1,0.3,0,0.4L5,16.7c0.1,0.1,0.1,0.1,0.2,0.1
				s0.1,0,0.2-0.1l4.6-4.6l4.6,4.6c0.1,0.1,0.1,0.1,0.2,0.1s0.1,0,0.2-0.1l1.7-1.7c0.1-0.1,0.1-0.3,0-0.4L12.1,10z"/>
		</g>
	</g>
</g>
</svg>
