<?xml version="1.0" encoding="utf-8"?>
<!-- Generator: Adobe Illustrator 19.2.1, SVG Export Plug-In . SVG Version: 6.00 Build 0)  -->
<svg version="1.1" id="Layer_1" xmlns="http://www.w3.org/2000/svg" xmlns:xlink="http://www.w3.org/1999/xlink" x="0px" y="0px"
	 viewBox="0 0 20 20" style="enable-background:new 0 0 20 20;" xml:space="preserve">
<style type="text/css">
	.st0{fill:#00A7E9;}
	.st1{fill:#707171;}
	.st2{fill:#07CBFC;}
	.st3{fill:#FFFFFF;}
</style>
<g>
	<circle class="st3" cx="10" cy="10" r="9.5"/>
	<path class="st0" d="M11.6,11.6c-0.2,0.2,0,5.6,0,5.6l-3.3,0c0,0,0.2-5.4,0-5.6c-0.2-0.2-5.6,0-5.6,0l0-3.3c0,0,5.3,0.2,5.6,0
		c0.2-0.2,0-5.6,0-5.6l3.3,0c0,0-0.2,5.4,0,5.6c0.2,0.2,5.6,0,5.6,0v3.3C17.2,11.6,11.8,11.5,11.6,11.6z"/>
</g>
</svg>
