<?xml version="1.0" encoding="utf-8"?>
<!-- Generator: Adobe Illustrator 20.0.0, SVG Export Plug-In . SVG Version: 6.00 Build 0)  -->
<svg version="1.1" id="Layer_1" xmlns="http://www.w3.org/2000/svg" xmlns:xlink="http://www.w3.org/1999/xlink" x="0px" y="0px"
	 viewBox="0 0 20 20" style="enable-background:new 0 0 20 20;" xml:space="preserve">
<style type="text/css">
	.st0{fill:#00A7E9;}
	.st1{fill:#94949C;}
	.st2{fill:#50505A;}
</style>
<path class="st1" d="M10,0.5c-5.2,0-9.5,4.3-9.5,9.5s4.3,9.5,9.5,9.5s9.5-4.3,9.5-9.5S15.2,0.5,10,0.5z M17.1,8.5
	c-1.4,0.7-2.7,1.6-4,2.5l0,0l-1.7,1.3c-1.3,1.1-2.5,2.3-3.6,3.6c-0.3,0.3-0.7,0.5-1.2,0.5h0c-0.5,0-0.9-0.2-1.2-0.6
	c-0.6-0.8-1.2-1.5-1.7-2.2c-0.4-0.5-0.8-1.1-1.3-1.7C1.9,11.3,2,10.3,2.7,9.8c0.7-0.5,1.6-0.4,2.2,0.3c0.5,0.7,0.9,1.2,1.3,1.7
	c0.2,0.2,0.4,0.5,0.5,0.7c1.5-1.6,8-6.3,8.9-6.8c0,0,0,0,0,0c0.8-0.4,1.7-0.1,2.1,0.6C18.1,7.1,17.9,8.1,17.1,8.5z"/>
</svg>
