<svg id="Layer_1" data-name="Layer 1" xmlns="http://www.w3.org/2000/svg" viewBox="0 0 24 24"><defs><style>.cls-1{fill:#6f6e6f;}</style></defs><title>Trends_Icons</title><path class="cls-1" d="M14.74,9.14a.77.77,0,0,0,.77-.78V6.78a.77.77,0,1,0-1.55,0V8.36A.77.77,0,0,0,14.74,9.14Z"/><path class="cls-1" d="M16.71,17.21H7.29V10.89h9.43v6.33Zm.77-9.09H15.93v.4a1.18,1.18,0,1,1-2.36,0v-.4H10.43v.4a1.18,1.18,0,1,1-2.36,0v-.4L6.5,8.1V18h11Z"/><path class="cls-1" d="M9.24,9.14A.77.77,0,0,0,10,8.36V6.78a.77.77,0,1,0-1.55,0V8.36A.77.77,0,0,0,9.24,9.14Z"/><rect class="cls-1" x="10.43" y="11.73" width="1.24" height="1.1"/><rect class="cls-1" x="12.43" y="11.73" width="1.24" height="1.1"/><rect class="cls-1" x="14.29" y="11.73" width="1.24" height="1.1"/><rect class="cls-1" x="10.43" y="13.56" width="1.24" height="1.1"/><rect class="cls-1" x="12.43" y="13.56" width="1.24" height="1.1"/><rect class="cls-1" x="14.29" y="13.56" width="1.24" height="1.1"/><rect class="cls-1" x="10.43" y="15.42" width="1.24" height="1.1"/><rect class="cls-1" x="8.47" y="13.56" width="1.24" height="1.1"/><rect class="cls-1" x="8.47" y="15.42" width="1.24" height="1.1"/><rect class="cls-1" x="12.43" y="15.42" width="1.24" height="1.1"/></svg>