<svg id="Layer_1" data-name="Layer 1" xmlns="http://www.w3.org/2000/svg" viewBox="0 0 24 24"><defs><style>.cls-1{fill:#6f6e6f;}</style></defs><title>Trends_Icons</title><path class="cls-1" d="M19.78,12.77a.09.09,0,0,1-.08.1l-1.54.26a.49.49,0,0,0-.4.36A5.86,5.86,0,0,1,17.13,15a.5.5,0,0,0,0,.54l.9,1.27A.1.1,0,0,1,18,17L17,18a.09.09,0,0,1-.07,0l-.05,0-1.27-.9a.5.5,0,0,0-.54,0,5.86,5.86,0,0,1-1.53.64.49.49,0,0,0-.36.4l-.26,1.54a.09.09,0,0,1-.1.08H11.23a.09.09,0,0,1-.1-.08l-.26-1.54a.49.49,0,0,0-.36-.4A6.09,6.09,0,0,1,9,17.16a.51.51,0,0,0-.25-.07.48.48,0,0,0-.29.09l-1.28.91-.05,0a.1.1,0,0,1-.07,0L6,17a.1.1,0,0,1,0-.12l.9-1.26a.5.5,0,0,0,0-.54,5.8,5.8,0,0,1-.64-1.53.5.5,0,0,0-.4-.36L4.3,12.9a.09.09,0,0,1-.08-.1V11.27a.09.09,0,0,1,.08-.1l1.53-.26a.5.5,0,0,0,.4-.37A5.86,5.86,0,0,1,6.86,9a.49.49,0,0,0,0-.53L5.92,7.19a.1.1,0,0,1,0-.12L7,6a.09.09,0,0,1,.07,0l.05,0,1.26.9a.5.5,0,0,0,.54,0,5.81,5.81,0,0,1,1.53-.64.5.5,0,0,0,.36-.4l.26-1.55a.09.09,0,0,1,.1-.08h1.54a.09.09,0,0,1,.1.08l.26,1.53a.49.49,0,0,0,.37.4A6,6,0,0,1,15,6.87a.49.49,0,0,0,.54,0l1.26-.91.05,0A.1.1,0,0,1,17,6L18.05,7a.1.1,0,0,1,0,.12l-.9,1.27a.49.49,0,0,0,0,.54,5.86,5.86,0,0,1,.64,1.53.49.49,0,0,0,.4.36l1.54.26a.09.09,0,0,1,.08.1v1.54Zm.08-2.61L18.64,10a7,7,0,0,0-.49-1.19l.73-1a1.08,1.08,0,0,0-.12-1.4L17.66,5.26a1.08,1.08,0,0,0-.77-.32,1.06,1.06,0,0,0-.63.2l-1,.73A6.87,6.87,0,0,0,14,5.35l-.21-1.22a1.08,1.08,0,0,0-1.07-.9H11.2a1.08,1.08,0,0,0-1.07.9L9.91,5.38a6.77,6.77,0,0,0-1.19.5l-1-.73a1.08,1.08,0,0,0-1.4.12L5.23,6.37a1.08,1.08,0,0,0-.12,1.4l.73,1A6.79,6.79,0,0,0,5.35,10l-1.22.21a1.08,1.08,0,0,0-.9,1.07v1.54a1.08,1.08,0,0,0,.9,1.07l1.25.21a6.77,6.77,0,0,0,.5,1.19l-.72,1a1.08,1.08,0,0,0,.12,1.4l1.09,1.09a1.08,1.08,0,0,0,.77.32,1.06,1.06,0,0,0,.63-.2l1-.73a6.93,6.93,0,0,0,1.16.48l.21,1.23a1.08,1.08,0,0,0,1.07.9h1.55a1.08,1.08,0,0,0,1.07-.9L14,18.63a7,7,0,0,0,1.19-.49l1,.73a1.08,1.08,0,0,0,1.4-.12l1.09-1.09a1.08,1.08,0,0,0,.12-1.4l-.73-1A6.9,6.9,0,0,0,18.63,14l1.23-.21a1.08,1.08,0,0,0,.9-1.07V11.23A1.07,1.07,0,0,0,19.87,10.16Z"/><path class="cls-1" d="M12,14.79A2.79,2.79,0,1,1,14.79,12,2.8,2.8,0,0,1,12,14.79Zm0-6.58A3.78,3.78,0,1,0,15.78,12,3.79,3.79,0,0,0,12,8.22Z"/></svg>