<svg id="Layer_1" data-name="Layer 1" xmlns="http://www.w3.org/2000/svg" viewBox="0 0 24 24"><defs><style>.cls-1{fill:none;stroke:#6f6e6f;stroke-miterlimit:10;opacity:0.75;}.cls-2{fill:#62b3f0;opacity:0.8;}</style></defs><title>Trends_Icons</title><path class="cls-1" d="M2,2H20.37A1.63,1.63,0,0,1,22,3.63V20.37A1.63,1.63,0,0,1,20.37,22H2a0,0,0,0,1,0,0V2A0,0,0,0,1,2,2Z"/><polygon class="cls-2" points="19 11.18 12.82 11.18 12.82 5 11.18 5 11.18 11.18 5 11.18 5 12.82 11.18 12.82 11.18 19 12.82 19 12.82 12.82 19 12.82 19 11.18"/></svg>