<svg id="Layer_1" data-name="Layer 1" xmlns="http://www.w3.org/2000/svg" viewBox="0 0 24 24"><defs><style>.cls-1{fill:#6f6e6f;}</style></defs><title>Trends_Icons</title><path class="cls-1" d="M12,17.76a13,13,0,0,1-7.43-2.7,18.79,18.79,0,0,1-3-2.68.6.6,0,0,1,0-.79,18.79,18.79,0,0,1,3-2.68A13,13,0,0,1,12,6.21a13,13,0,0,1,7.43,2.7,18.79,18.79,0,0,1,3,2.68.6.6,0,0,1,0,.79,18.79,18.79,0,0,1-3,2.68A13,13,0,0,1,12,17.76ZM2.8,12A18.93,18.93,0,0,0,5.28,14.1,12.07,12.07,0,0,0,12,16.56,12.07,12.07,0,0,0,18.7,14.1,18.94,18.94,0,0,0,21.18,12,18.94,18.94,0,0,0,18.7,9.87,12.07,12.07,0,0,0,12,7.41,12.07,12.07,0,0,0,5.28,9.87,18.94,18.94,0,0,0,2.8,12Zm0,0"/><path class="cls-1" d="M12,15.71a3.72,3.72,0,1,1,2.45-6.52.6.6,0,0,1-.79.9,2.52,2.52,0,1,0,.86,1.9.6.6,0,0,1,1.2,0A3.73,3.73,0,0,1,12,15.71Zm0,0"/><path class="cls-1" d="M12,13.18a1.2,1.2,0,1,1,1.2-1.2,1.2,1.2,0,0,1-1.2,1.2Zm0,0"/></svg>