<svg id="Layer_1" data-name="Layer 1" xmlns="http://www.w3.org/2000/svg" viewBox="0 0 24 24"><defs><style>.cls-1{fill:#6f6e6f;}</style></defs><title>Trends_Icons</title><path class="cls-1" d="M20.14,4.18a2.93,2.93,0,0,0-4.15,0L4.25,15.93v0l0,0,0,.08v0h0L3,20.92A.3.3,0,0,0,3,21H3a.31.31,0,0,0,0,.11v0a.3.3,0,0,0,.07.1.3.3,0,0,0,.11.07l.12,0H3.4l4.84-1.15H8.3l.07,0,0,0h0L20.14,8.33a2.94,2.94,0,0,0,0-4.15Zm-.46.46a2.28,2.28,0,0,1,.21,3L16.7,4.43a2.28,2.28,0,0,1,3,.21ZM18.07,9.48,14.84,6.26l.46-.46L18.53,9ZM4.62,19.71a.33.33,0,0,0-.46,0L3.91,20l.83-3.49,1.44-.16L6,18A.2.2,0,0,1,6,18a.16.16,0,0,0,0,0l0,.05,0,.06,0,0,.05,0,0,0,.07,0h.11L8,18.14l-.16,1.44-3.49.83.25-.25a.33.33,0,0,0,0-.46ZM8.7,17.92,16,10.63a.33.33,0,1,0-.46-.46L8.24,17.46l-1.56.17.17-1.56,7.29-7.29a.33.33,0,0,0-.46-.46L6.4,15.62l-1,.11,9-9,3.22,3.22-9,9ZM19,8.56,15.76,5.33l.46-.46L19.45,8.1Zm0,0"/></svg>