<svg id="Layer_1" data-name="Layer 1" xmlns="http://www.w3.org/2000/svg" viewBox="0 0 24 24"><defs><style>.cls-1{fill:#6f6e6f;}</style></defs><title>Trends_Icons</title><path class="cls-1" d="M16.81,11.5a.75.75,0,0,0-.69.71v2.86a1,1,0,0,1-1,1H8.77a1,1,0,0,1-.89-1V12.14a.66.66,0,0,0-.69-.71.7.7,0,0,0-.69.71v2.93A2.35,2.35,0,0,0,8.77,17.5h6.46a2.35,2.35,0,0,0,2.27-2.43V12.21A.66.66,0,0,0,16.81,11.5Z"/><path class="cls-1" d="M11.52,14.86a.65.65,0,0,0,1,0l1.86-2a.71.71,0,0,0,0-1,.65.65,0,0,0-1,0l-.69.79V7.21A.66.66,0,0,0,12,6.5a.7.7,0,0,0-.69.71v5.43l-.69-.79a.65.65,0,0,0-1,0,.71.71,0,0,0,0,1Z"/></svg>