<svg id="Layer_1" data-name="Layer 1" xmlns="http://www.w3.org/2000/svg" viewBox="0 0 24 24"><defs><style>.cls-1{fill:#6f6e6f;}</style></defs><title>Trends_Icons</title><path id="Lock_copy" data-name="Lock copy" class="cls-1" d="M7.57,18.35V11.72h8.86v6.63H7.57m1.56-8V8.17A2.81,2.81,0,0,1,12,5.57h.14a2.8,2.8,0,0,1,2.74,2.59V10.3H9.13M12,4.24h-.29A4.33,4.33,0,0,0,7.57,8.17V10.3H6.77A.75.75,0,0,0,6,11v8a.75.75,0,0,0,.77.71H17.23a.75.75,0,0,0,.77-.71V11a.75.75,0,0,0-.77-.71h-.81V8.17A4.34,4.34,0,0,0,12,4.24m0,8.9H12a1.25,1.25,0,0,0-1.28,1.19h0a1.14,1.14,0,0,0,.52.95v.95a.79.79,0,0,0,1.57,0v-.95a1.15,1.15,0,0,0,.52-.95A1.25,1.25,0,0,0,12,13.14"/></svg>