<svg id="Layer_1" data-name="Layer 1" xmlns="http://www.w3.org/2000/svg" viewBox="0 0 24 24"><defs><style>.cls-1{fill:none;stroke:#6f6e6f;stroke-miterlimit:10;opacity:0.75;}.cls-2{fill:#6f6e6f;}</style></defs><title>Trends_Icons</title><path class="cls-1" d="M2,2H20.37A1.63,1.63,0,0,1,22,3.63V20.37A1.63,1.63,0,0,1,20.37,22H2a0,0,0,0,1,0,0V2A0,0,0,0,1,2,2Z"/><path class="cls-2" d="M18.33,5.67a2.28,2.28,0,0,0-3.23,0L6,14.8H6v0l0,.06v0h0L5,18.69a.24.24,0,0,0,0,.05H5a.24.24,0,0,0,0,.08v0a.23.23,0,0,0,.05.07l.08.06.1,0h.06l3.76-.9h0l.05,0h0l9.14-9.14a2.28,2.28,0,0,0,0-3.23ZM18,6a1.78,1.78,0,0,1,.16,2.32L15.66,5.86A1.78,1.78,0,0,1,18,6ZM16.72,9.79,14.21,7.28l.36-.36,2.51,2.51Zm-10.46,8a.25.25,0,0,0-.36,0l-.19.19.65-2.72,1.12-.12-.14,1.3a.15.15,0,0,1,0,.06v.07l0,0,0,0,0,0,0,0,.05,0h.08l1.3-.14-.13,1.12-2.72.65.19-.19a.25.25,0,0,0,0-.36Zm3.18-1.39,5.67-5.67a.25.25,0,0,0-.36-.36L9.08,16l-1.21.13L8,14.92l5.67-5.67a.25.25,0,0,0-.36-.36L7.65,14.56l-.81.09,7-7,2.51,2.51-7,7Zm8-7.28L14.93,6.56l.36-.36L17.8,8.71Zm0,0"/></svg>