<svg id="Layer_1" data-name="Layer 1" xmlns="http://www.w3.org/2000/svg" viewBox="0 0 96 96"><title>AC-SLD_Icons_Black</title><path d="M48,96A48,48,0,1,1,96,48,48.05,48.05,0,0,1,48,96ZM48,1A47,47,0,1,0,95,48,47.06,47.06,0,0,0,48,1Z"/><path d="M34,32.08,21.59,59.57H20.52l12.26-27.1H16v-1H34Z"/><path d="M52.46,50.85h4.87v1H52.46v7.67h-1V51.89H37.76v-.58L51.2,31.42h1.26Zm-13.07,0h12V32.68l-1.62,2.67Z"/><path d="M76.54,51.16H62.76l-3.13,8.41H58.49L69,31.42H70.3L80.83,59.57H79.69Zm-13.4-1h13L69.66,32.68Z"/></svg>
