<svg id="Layer_1" data-name="Layer 1" xmlns="http://www.w3.org/2000/svg" viewBox="0 0 96 96"><title>AC-SLD_Icons_Black</title><path d="M8.63,64H5.72V25H8.63Z"/><path d="M24.81,25,37.53,59.45,50.3,25h3.88V64H51.27V47l.24-17.42L38.67,64H36.42L23.63,29.77l.24,17.17V64H20.95V25Z"/><path d="M90.3,51.87q-.59,6.16-3.9,9.43a12,12,0,0,1-8.8,3.27,11.14,11.14,0,0,1-6.79-2.17,13.85,13.85,0,0,1-4.56-6.15,24.4,24.4,0,0,1-1.63-9.1V42.09a24.61,24.61,0,0,1,1.61-9.22,13.71,13.71,0,0,1,4.63-6.2,11.56,11.56,0,0,1,7-2.18,11.51,11.51,0,0,1,8.75,3.38q3.21,3.38,3.73,9.35H87.37q-1.09-9.94-9.55-9.94a8.68,8.68,0,0,0-7.47,4q-2.78,4-2.78,11V47q0,6.76,2.71,10.78a8.42,8.42,0,0,0,7.33,4q4.57,0,6.89-2.48t2.87-7.44Z"/></svg>