<svg id="Layer_1" data-name="Layer 1" xmlns="http://www.w3.org/2000/svg" viewBox="0 0 96 96"><title>AC-SLD_Icons_Black</title><path d="M31.53,79.53A31.53,31.53,0,1,1,63.06,48,31.57,31.57,0,0,1,31.53,79.53Zm0-62.07A30.54,30.54,0,1,0,62.07,48,30.58,30.58,0,0,0,31.53,17.46Z"/><path d="M38.65,61a.49.49,0,0,1-.2,0L9.6,48.59a.49.49,0,0,1,0-.91L38.46,35.3a.49.49,0,0,1,.69.45V60.52a.49.49,0,0,1-.49.49ZM11.05,48.14l27.1,11.63V36.51Z"/><path d="M69.83,74.17A26.17,26.17,0,1,1,96,48,26.2,26.2,0,0,1,69.83,74.17Zm0-51.35A25.18,25.18,0,1,0,95,48,25.21,25.21,0,0,0,69.83,22.82Z"/><path d="M69.83,48.49a.49.49,0,0,1-.43-.75L77.24,34.5a.49.49,0,0,1,.85.5L70.25,48.25A.49.49,0,0,1,69.83,48.49Z"/><path d="M77.43,61.8a.49.49,0,0,1-.43-.25L69.4,48.25a.49.49,0,0,1,.86-.49l7.6,13.31a.49.49,0,0,1-.43.74Z"/><path d="M69.83,48.49H54.44a.49.49,0,0,1,0-1H69.83a.49.49,0,0,1,0,1Z"/></svg>