<svg id="Layer_1" data-name="Layer 1" xmlns="http://www.w3.org/2000/svg" viewBox="0 0 96 96"><title>AC-SLD_Icons_Black</title><path d="M77.6,72.81H41.32V45.62H49.5a.49.49,0,0,0,0-1H41.32V17.71H60.65a.49.49,0,1,0,0-1H41.32V.49a.49.49,0,1,0-1,0V16.72H32.51c-9.63.34-14.26,7.49-14.49,14A14,14,0,0,0,29.16,45.15,14.38,14.38,0,0,0,17.92,58.77c-.23,6.72,4.09,14,14.27,15h8.14v21.7a.49.49,0,0,0,1,0V73.8H77.6a.49.49,0,0,0,0-1ZM19,30.74c.21-6.05,4.54-12.71,13.53-13h7.8V44.63H31.87C22.68,43.65,18.79,36.95,19,30.74ZM32.52,72.81h-.23c-9.54-1-13.6-7.75-13.38-14S23.61,45.95,33,45.62h7.36V72.81Z"/></svg>