<svg id="Layer_1" data-name="Layer 1" xmlns="http://www.w3.org/2000/svg" viewBox="0 0 96 96"><title>AC-SLD_Icons_Black</title><path d="M96,23.07v0a1.21,1.21,0,0,0,0-.19v0l0-.05-.07-.08-.08-.05-.09,0-.09,0H.49l-.08,0-.09,0-.09,0-.07,0-.07.08,0,.05v0A.49.49,0,0,0,0,23a.49.49,0,0,0,0,.1V72.57a.49.49,0,0,0,0,.1.49.49,0,0,0,0,.09v0l0,0A.48.48,0,0,0,.22,73l.05,0a.48.48,0,0,0,.23.06h95a.48.48,0,0,0,.23-.06l.05,0a.48.48,0,0,0,.13-.14l0,0v0a1.21,1.21,0,0,0,0-.19V23.07ZM1,23.89,46.93,47.81,1,71.74Zm1.53-.32h91L48,47.26ZM48,48.37,93.48,72.06h-91Zm1.07-.56L95,23.89V71.74Z"/></svg>
