<svg id="Layer_1" data-name="Layer 1" xmlns="http://www.w3.org/2000/svg" viewBox="0 0 96 96"><title>AC-SLD_Icons_Black</title><path d="M48,96a.49.49,0,0,1-.43-.74l10.9-18.7a.5.5,0,1,1,.86.5l-10.9,18.7A.5.5,0,0,1,48,96Z"/><path d="M47.92,95.86a.5.5,0,0,1-.43-.25L36.75,77.08a.49.49,0,1,1,.86-.5L48.35,95.11a.49.49,0,0,1-.43.74Z"/><path d="M48,87.59a.49.49,0,0,1-.43-.74l6-10.34a.5.5,0,1,1,.86.5l-6,10.34A.5.5,0,0,1,48,87.59Z"/><path d="M47.94,87.51a.5.5,0,0,1-.43-.25L41.57,77a.49.49,0,0,1,.86-.5l5.94,10.24a.49.49,0,0,1-.43.74Z"/><path d="M48,87.59a.49.49,0,0,1-.49-.49V61.36a.49.49,0,0,1,1,0V87.1A.49.49,0,0,1,48,87.59Z"/><path d="M37.14,19.69a.49.49,0,0,1-.43-.74L47.61.24a.5.5,0,1,1,.86.5l-10.9,18.7A.5.5,0,0,1,37.14,19.69Z"/><path d="M58.87,19.66a.5.5,0,0,1-.43-.25L47.7.89a.49.49,0,1,1,.86-.5L59.3,18.92a.49.49,0,0,1-.43.74Z"/><path d="M42,19.73a.49.49,0,0,1-.43-.74l6-10.34a.5.5,0,1,1,.86.5l-6,10.34A.5.5,0,0,1,42,19.73Z"/><path d="M54,19.72a.5.5,0,0,1-.43-.25L47.68,9.23a.49.49,0,0,1,.86-.5L54.47,19a.49.49,0,0,1-.43.74Z"/><path d="M48.06,35.24a.49.49,0,0,1-.49-.49V8.9a.49.49,0,1,1,1,0V34.75A.49.49,0,0,1,48.06,35.24Z"/><path d="M35.06,61.33a.49.49,0,0,1-.35-.85L60.59,34.76a.49.49,0,1,1,.7.7L35.41,61.18A.49.49,0,0,1,35.06,61.33Z"/><path d="M60.94,61.33a.49.49,0,0,1-.35-.14L34.71,35.47a.49.49,0,1,1,.7-.7L61.29,60.48a.49.49,0,0,1-.35.85Z"/><path d="M61.31,61.86H34.69a.49.49,0,0,1-.49-.49V34.75a.49.49,0,0,1,.49-.49H61.31a.49.49,0,0,1,.49.49V61.36A.49.49,0,0,1,61.31,61.86Zm-26.12-1H60.81V35.24H35.19Z"/></svg>