<svg id="Layer_1" data-name="Layer 1" xmlns="http://www.w3.org/2000/svg" viewBox="0 0 96 96"><title>AC-SLD_Icons_Black</title><path d="M48,96A48,48,0,1,1,96,48,48.05,48.05,0,0,1,48,96ZM48,1A47,47,0,1,0,95,48,47.06,47.06,0,0,0,48,1Z"/><path d="M42.61,50.85h4.87v1H42.61v7.67h-1V51.89H27.92v-.58L41.35,31.42h1.26Zm-13.07,0h12V32.68l-1.62,2.67Z"/><path d="M66.15,45.57A8.28,8.28,0,0,1,63,49.16a8.91,8.91,0,0,1-4.86,1.36,7.32,7.32,0,0,1-4.18-1.25A8.38,8.38,0,0,1,51,45.84a11,11,0,0,1-1-4.79A12,12,0,0,1,51.05,36a8.69,8.69,0,0,1,3-3.62A7.31,7.31,0,0,1,58.26,31a8,8,0,0,1,6.63,2.83q2.28,2.83,2.3,8.17v3.23q0,7.13-3.17,10.87T54.69,60h-.93l0-1h.83q5.64-.06,8.58-3.44T66.15,45.57Zm-8,3.9a8.12,8.12,0,0,0,5.06-1.68,8.22,8.22,0,0,0,3-4.47v-1.2q0-4.89-2-7.47a6.92,6.92,0,0,0-5.79-2.58,6.24,6.24,0,0,0-3.75,1.22A8,8,0,0,0,52,36.61,10.75,10.75,0,0,0,51,41.05a10,10,0,0,0,.91,4.26,7.37,7.37,0,0,0,2.51,3.06A6.3,6.3,0,0,0,58.11,49.48Z"/></svg>