<svg id="Layer_1" data-name="Layer 1" xmlns="http://www.w3.org/2000/svg" viewBox="0 0 96 96"><title>AC-SLD_Icons_Black</title><path d="M94.52,78.19h-93A1.49,1.49,0,0,1,0,76.7V19.3a1.49,1.49,0,0,1,1.48-1.48h93A1.49,1.49,0,0,1,96,19.3V76.7A1.49,1.49,0,0,1,94.52,78.19ZM1.48,18.8A.5.5,0,0,0,1,19.3V76.7a.5.5,0,0,0,.49.49h93A.5.5,0,0,0,95,76.7V19.3a.5.5,0,0,0-.49-.49Z"/><path d="M16.79,51.3a2.38,2.38,0,0,0-.38-1.37,3.18,3.18,0,0,0-1.19-1,12.79,12.79,0,0,0-2.46-.88,11.54,11.54,0,0,1-2.47-.91A3.26,3.26,0,0,1,9.1,46.07a2.72,2.72,0,0,1-.38-1.48,2.66,2.66,0,0,1,1.17-2.24,5,5,0,0,1,3-.86A4.93,4.93,0,0,1,15.1,42a3.53,3.53,0,0,1,2,3.27h-.47a3,3,0,0,0-1-2.34A3.93,3.93,0,0,0,12.91,42a4.5,4.5,0,0,0-2.7.74,2.26,2.26,0,0,0-.14,3.7,8.45,8.45,0,0,0,3,1.23,9.13,9.13,0,0,1,3,1.24,2.83,2.83,0,0,1,1.22,2.4A2.79,2.79,0,0,1,16.73,53a3.43,3.43,0,0,1-1.53,1.13,5.9,5.9,0,0,1-2.23.4,6.39,6.39,0,0,1-2.47-.46,3.35,3.35,0,0,1-2.2-3.29h.47a2.83,2.83,0,0,0,1.17,2.42A5,5,0,0,0,13,54a4.63,4.63,0,0,0,2.74-.76A2.32,2.32,0,0,0,16.79,51.3Z"/><path d="M28.17,42.14H23.56v12.2h-.47V42.14H18.48v-.47h9.69Z"/><path d="M36.37,50.55h-6.2l-1.41,3.78h-.51L33,41.67h.57l4.74,12.66h-.51Zm-6-.47H36.2l-2.92-7.85Z"/><path d="M49.47,54.33H49L40.82,42.47V54.33h-.48V41.67h.48L49,53.51V41.67h.47Z"/><path d="M52.95,54.33V41.67h3.51a5.18,5.18,0,0,1,2.66.7,4.92,4.92,0,0,1,1.87,2,6,6,0,0,1,.7,2.81v1.64A6.06,6.06,0,0,1,61,51.63a4.93,4.93,0,0,1-1.86,2,5.14,5.14,0,0,1-2.66.72Zm.47-12.2V53.86h3a4.66,4.66,0,0,0,2.42-.65,4.54,4.54,0,0,0,1.71-1.81,5.48,5.48,0,0,0,.63-2.58V47.2a5.47,5.47,0,0,0-.61-2.57,4.52,4.52,0,0,0-1.69-1.81,4.65,4.65,0,0,0-2.4-.67Z"/><path d="M68.86,54.33V41.67h3.33a4.9,4.9,0,0,1,3.09.83,2.9,2.9,0,0,1,1,2.41,3,3,0,0,1-.58,1.9,2.63,2.63,0,0,1-1.64,1,3.17,3.17,0,0,1,2,1,2.93,2.93,0,0,1,.8,2,3.25,3.25,0,0,1-1,2.55,4.23,4.23,0,0,1-2.92.94Zm.47-6.72h3A4.28,4.28,0,0,0,75,46.94a2.42,2.42,0,0,0,.88-2.07q0-2.7-3.56-2.74h-3Zm0,.47v5.78H73a3.73,3.73,0,0,0,2.53-.8,2.76,2.76,0,0,0,.92-2.2,2.52,2.52,0,0,0-.89-2,3.57,3.57,0,0,0-2.37-.81Z"/><path d="M82.69,49.1l4.44-7.43h.57l-4.78,7.85v4.81h-.47V49.52l-4.78-7.85h.63Z"/></svg>