<svg id="Layer_1" data-name="Layer 1" xmlns="http://www.w3.org/2000/svg" viewBox="0 0 96 96"><title>AC-SLD_Icons_Black</title><path d="M95.29,80.66H.71A.71.71,0,0,1,0,80V16a.71.71,0,0,1,.71-.71H95.29A.71.71,0,0,1,96,16V80A.71.71,0,0,1,95.29,80.66ZM1,79.67H95V16.33H1Z"/><path d="M1,80.17a.49.49,0,0,1-.28-.91l93.94-63a.49.49,0,1,1,.55.82l-93.94,63A.49.49,0,0,1,1,80.17Z"/><path d="M37.84,40.58c-3.69,0-7.16-1.93-10.06-5.58-3-3.82-6.49-5.78-9.76-5.53-2.86.22-5.47,2.16-7.34,5.46a.49.49,0,1,1-.86-.49c2-3.6,4.92-5.71,8.12-6,3.61-.28,7.37,1.82,10.61,5.9,2.73,3.44,6,5.23,9.39,5.2s6.72-1.93,9.2-5.19a.49.49,0,0,1,.79.6c-2.66,3.51-6.29,5.54-10,5.58Z"/><path d="M84.84,63.75H48a.49.49,0,0,1,0-1H84.84a.49.49,0,0,1,0,1Z"/></svg>
