<svg id="Layer_1" data-name="Layer 1" xmlns="http://www.w3.org/2000/svg" viewBox="0 0 96 96"><title>AC-SLD_Icons_Black</title><path d="M48,96A48,48,0,1,1,96,48,48.05,48.05,0,0,1,48,96ZM48,1A47,47,0,1,0,95,48,47.06,47.06,0,0,0,48,1Z"/><path d="M42.57,31v1q-5.91,0-9.18,3.5T29.87,45.4a8.13,8.13,0,0,1,3.25-3.16,9.51,9.51,0,0,1,4.66-1.17A7.47,7.47,0,0,1,43.7,43.6a9.79,9.79,0,0,1,2.21,6.69,11.77,11.77,0,0,1-1,4.91,8.24,8.24,0,0,1-2.84,3.49A7.06,7.06,0,0,1,38,60a9.22,9.22,0,0,1-4.68-1.2A8.38,8.38,0,0,1,30,55.34a11,11,0,0,1-1.22-5.06V46.81q0-7.5,3.54-11.64T42.57,31ZM37.64,42.11a8.54,8.54,0,0,0-5,1.55,6.61,6.61,0,0,0-2.83,3.89V50a9.11,9.11,0,0,0,2.26,6.43A7.6,7.6,0,0,0,38,58.91a6,6,0,0,0,4.95-2.5,9.65,9.65,0,0,0,2-6.13,8.72,8.72,0,0,0-1.93-6A6.67,6.67,0,0,0,37.64,42.11Z"/><path d="M56.06,44.68h2.36a8.31,8.31,0,0,0,5.34-1.76,5.39,5.39,0,0,0,2-4.33A6.29,6.29,0,0,0,64,33.84a7,7,0,0,0-5.07-1.76,7.48,7.48,0,0,0-5.22,1.86,6.26,6.26,0,0,0-2,4.87h-1a7.58,7.58,0,0,1,1.08-4,7.4,7.4,0,0,1,3-2.76,9.11,9.11,0,0,1,4.23-1,8,8,0,0,1,5.8,2.06,7.35,7.35,0,0,1,2.15,5.57,6.18,6.18,0,0,1-1.42,4,7.63,7.63,0,0,1-3.84,2.49,8,8,0,0,1,4.32,2.4,6.61,6.61,0,0,1,1.56,4.55,7.42,7.42,0,0,1-2.3,5.73A8.61,8.61,0,0,1,59.08,60a10.23,10.23,0,0,1-4.72-1.1A7.58,7.58,0,0,1,50,51.72h1a6.62,6.62,0,0,0,2.28,5.15,8.3,8.3,0,0,0,5.76,2,7.66,7.66,0,0,0,5.4-1.79,6.41,6.41,0,0,0,1.94-5,5.73,5.73,0,0,0-2.08-4.77,9.69,9.69,0,0,0-6.08-1.67h-2.2Z"/></svg>