<svg id="Layer_1" data-name="Layer 1" xmlns="http://www.w3.org/2000/svg" viewBox="0 0 96 96"><title>AC-SLD_Icons_Black</title><path d="M48,96A48,48,0,1,1,96,48,48.05,48.05,0,0,1,48,96ZM48,1A47,47,0,1,0,95,48,47.06,47.06,0,0,0,48,1Z"/><path d="M46.14,41.83H33.51V41l7.2-8.31a21.69,21.69,0,0,0,2.63-3.68,6.33,6.33,0,0,0,.86-3,4.74,4.74,0,0,0-1.35-3.6,5.92,5.92,0,0,0-6.49-.57,5,5,0,0,0-1.91,2,5.69,5.69,0,0,0-.69,2.79H33a6.52,6.52,0,0,1,.78-3.15,5.8,5.8,0,0,1,2.17-2.28,6,6,0,0,1,3.12-.83,6.09,6.09,0,0,1,4.38,1.49A5.49,5.49,0,0,1,45,26.1q0,2.46-2.77,5.9l-1.32,1.61L34.54,41h11.6Z"/><path d="M59.72,20.43v.78a9,9,0,0,0-6.89,2.62A11.06,11.06,0,0,0,50.2,31.2a6.09,6.09,0,0,1,2.44-2.37A7.13,7.13,0,0,1,56.13,28a5.61,5.61,0,0,1,4.44,1.9,7.35,7.35,0,0,1,1.66,5,8.83,8.83,0,0,1-.75,3.68,6.19,6.19,0,0,1-2.13,2.62,5.29,5.29,0,0,1-3.07.95,6.92,6.92,0,0,1-3.51-.9,6.28,6.28,0,0,1-2.45-2.57,8.23,8.23,0,0,1-.91-3.8v-2.6q0-5.62,2.65-8.73T59.72,20.43ZM56,28.74a6.4,6.4,0,0,0-3.72,1.17,5,5,0,0,0-2.12,2.92v1.85a6.83,6.83,0,0,0,1.7,4.82,5.7,5.7,0,0,0,4.39,1.84A4.52,4.52,0,0,0,60,39.46a7.24,7.24,0,0,0,1.46-4.6A6.55,6.55,0,0,0,60,30.4,5,5,0,0,0,56,28.74Z"/><path d="M45.73,62.91a11.23,11.23,0,0,1-1.65,6.57,5.36,5.36,0,0,1-4.64,2.33,5.41,5.41,0,0,1-4.65-2.35,11.22,11.22,0,0,1-1.68-6.61V59a11.25,11.25,0,0,1,1.66-6.56,5.36,5.36,0,0,1,4.65-2.36,5.37,5.37,0,0,1,4.66,2.36,11.36,11.36,0,0,1,1.66,6.62ZM44.95,59a10.66,10.66,0,0,0-1.44-6,5,5,0,0,0-8.19,0,10.9,10.9,0,0,0-1.43,6.05v3.78a10.57,10.57,0,0,0,1.46,6A4.67,4.67,0,0,0,39.44,71a4.61,4.61,0,0,0,4.07-2.16,10.89,10.89,0,0,0,1.43-6.06Z"/><path d="M64.49,51.2H56.81V71.52H56V51.2H48.34v-.78H64.49Z"/></svg>