<svg id="Layer_1" data-name="Layer 1" xmlns="http://www.w3.org/2000/svg" viewBox="0 0 96 96"><title>AC-SLD_Icons_Black</title><path d="M48,96A48,48,0,1,1,96,48,48.05,48.05,0,0,1,48,96ZM48,1A47,47,0,1,0,95,48,47.06,47.06,0,0,0,48,1Z"/><path d="M18.06,35.57l8.68,20,8.71-20h1.15V56.68h-.78V36.73L27.07,56.68h-.62L17.73,36.83V56.68h-.78V35.57Z"/><path d="M54,46.27H43.19V56.68H42.4V35.57H55.48v.78H43.19v9.13H54Z"/><path d="M60.51,35.57l8.68,20,8.71-20h1.15V56.68h-.78V36.73L69.51,56.68h-.62L60.18,36.83V56.68h-.78V35.57Z"/></svg>