<svg id="Layer_1" data-name="Layer 1" xmlns="http://www.w3.org/2000/svg" viewBox="0 0 96 96"><title>AC-SLD_Icons_Black</title><path d="M94.52,78.19h-93A1.49,1.49,0,0,1,0,76.7V19.3a1.49,1.49,0,0,1,1.48-1.48h93A1.49,1.49,0,0,1,96,19.3V76.7A1.49,1.49,0,0,1,94.52,78.19ZM1.48,18.8A.5.5,0,0,0,1,19.3V76.7a.5.5,0,0,0,.49.49h93A.5.5,0,0,0,95,76.7V19.3a.5.5,0,0,0-.49-.49Z"/><path d="M24.95,50.37H14.61l-2.35,6.31h-.86l7.9-21.11h1l7.9,21.11h-.86Zm-10-.78h9.76L19.79,36.51Z"/><path d="M45.75,50.21a7.36,7.36,0,0,1-2.25,5A7.6,7.6,0,0,1,38.23,57a7.07,7.07,0,0,1-4-1.14,7.45,7.45,0,0,1-2.69-3.23,11.57,11.57,0,0,1-1-4.79V44.54a11.77,11.77,0,0,1,.94-4.82,7.45,7.45,0,0,1,2.69-3.28,7.08,7.08,0,0,1,4-1.16A7.63,7.63,0,0,1,43.49,37a7.29,7.29,0,0,1,2.26,5H45a6.71,6.71,0,0,0-2-4.43,6.83,6.83,0,0,0-4.71-1.52,6.09,6.09,0,0,0-5,2.32,9.54,9.54,0,0,0-1.89,6.22v3.1a10.91,10.91,0,0,0,.84,4.41,6.83,6.83,0,0,0,2.41,3,6.24,6.24,0,0,0,3.6,1.07A6.94,6.94,0,0,0,43,54.69a6.58,6.58,0,0,0,2-4.48Z"/><path d="M50.64,56.68V35.57h5.84a8.63,8.63,0,0,1,4.44,1.16A8.19,8.19,0,0,1,64,40a10,10,0,0,1,1.16,4.69v2.74a10.08,10.08,0,0,1-1.11,4.76A8.2,8.2,0,0,1,61,55.47a8.57,8.57,0,0,1-4.44,1.2Zm.78-20.33V55.89h5.06a7.75,7.75,0,0,0,4-1.08,7.54,7.54,0,0,0,2.85-3,9.13,9.13,0,0,0,1-4.3V44.79a9.13,9.13,0,0,0-1-4.29,7.57,7.57,0,0,0-2.81-3,7.77,7.77,0,0,0-4-1.12Z"/><path d="M70.07,56.68V35.57h5.55A8.18,8.18,0,0,1,80.77,37a4.83,4.83,0,0,1,1.75,4,5.05,5.05,0,0,1-1,3.17,4.38,4.38,0,0,1-2.74,1.61,5.28,5.28,0,0,1,3.33,1.73,4.87,4.87,0,0,1,1.33,3.37,5.42,5.42,0,0,1-1.75,4.26,7.06,7.06,0,0,1-4.86,1.56Zm.78-11.21h5.06a7.15,7.15,0,0,0,4.35-1.11,4,4,0,0,0,1.46-3.44q0-4.49-5.93-4.57H70.85Zm0,.78v9.64H77a6.22,6.22,0,0,0,4.21-1.33,4.61,4.61,0,0,0,1.53-3.68,4.2,4.2,0,0,0-1.48-3.3,6,6,0,0,0-4-1.34Z"/></svg>
