<svg id="Layer_1" data-name="Layer 1" xmlns="http://www.w3.org/2000/svg" viewBox="0 0 96 96"><title>AC-SLD_Icons_Black</title><path d="M54.91,16.24a.49.49,0,0,1-.26-.07l-14.95-9a.49.49,0,1,1,.51-.85l14.95,9a.49.49,0,0,1-.26.92Z"/><path d="M57.2,20.78a3,3,0,1,1,3-3A3,3,0,0,1,57.2,20.78Zm0-5a2,2,0,1,0,2,2A2,2,0,0,0,57.2,15.81Z"/><path d="M95.51,30.82H81.79a.49.49,0,0,1,0-1H95.51a.49.49,0,0,1,0,1Z"/><path d="M93.8,34.67H83.63a.49.49,0,0,1,0-1H93.8a.49.49,0,0,1,0,1Z"/><path d="M90.23,38.52H87.07a.49.49,0,0,1,0-1h3.16a.49.49,0,0,1,0,1Z"/><path d="M88.65,30.82a.49.49,0,0,1-.49-.49V17.8a.49.49,0,0,1,1,0V30.33A.49.49,0,0,1,88.65,30.82Z"/><path d="M88.65,18.29h-29a.49.49,0,0,1,0-1h29a.49.49,0,0,1,0,1Z"/><path d="M36.18,20.78a3,3,0,1,1,3-3A3,3,0,0,1,36.18,20.78Zm0-5a2,2,0,1,0,2,2A2,2,0,0,0,36.18,15.81Z"/><rect x="4.74" y="17.3" width="28.96" height="0.99"/><rect x="8.02" y="54.23" width="21.94" height="0.99"/><path d="M4.13,38.92a4.13,4.13,0,1,1,4.13-4.13A4.13,4.13,0,0,1,4.13,38.92Zm0-7.27a3.14,3.14,0,1,0,3.14,3.14A3.14,3.14,0,0,0,4.13,31.65Z"/><rect x="3.63" y="18.62" width="0.99" height="12.53"/><rect x="3.62" width="1.02" height="16.14"/><rect x="3.63" y="38.42" width="0.99" height="12.53"/><rect x="3.63" y="58.35" width="0.99" height="12.53"/><circle cx="4.13" cy="17.8" r="2.49"/><path d="M4.13,58.85a4.13,4.13,0,1,1,4.13-4.13A4.13,4.13,0,0,1,4.13,58.85Zm0-7.27a3.14,3.14,0,1,0,3.14,3.14A3.14,3.14,0,0,0,4.13,51.58Z"/><path d="M4.13,78.65a4.13,4.13,0,1,1,4.13-4.13A4.13,4.13,0,0,1,4.13,78.65Zm0-7.27a3.14,3.14,0,1,0,3.14,3.14A3.14,3.14,0,0,0,4.13,71.38Z"/><rect x="3.62" y="78.15" width="1.02" height="17.85"/><path d="M39.58,64.93A10.12,10.12,0,1,1,49.71,54.81,10.13,10.13,0,0,1,39.58,64.93Zm0-19.25a9.13,9.13,0,1,0,9.13,9.13A9.14,9.14,0,0,0,39.58,45.68Z"/><path d="M37.42,51.36l2.16,5.17,2.17-5.17h.66v5.86h-.5V54.67l0-2.62-2.18,5.17h-.38l-2.17-5.15,0,2.58v2.57h-.5V51.36Z"/></svg>
