<svg id="Layer_1" data-name="Layer 1" xmlns="http://www.w3.org/2000/svg" viewBox="0 0 96 96"><title>AC-SLD_Icons_Black</title><path d="M94.52,78.19h-93A1.49,1.49,0,0,1,0,76.7V19.3a1.49,1.49,0,0,1,1.48-1.48h93A1.49,1.49,0,0,1,96,19.3V76.7A1.49,1.49,0,0,1,94.52,78.19ZM1.48,18.8A.5.5,0,0,0,1,19.3V76.7a.5.5,0,0,0,.49.49h93A.5.5,0,0,0,95,76.7V19.3a.5.5,0,0,0-.49-.49Z"/><path d="M35.74,56.82l.56,1.7.56-1.7,9.45-25.4h1.14L36.94,59.57H35.67L25.15,31.42h1.14Z"/><path d="M68.84,52.82a5.32,5.32,0,0,0-.84-3,7.11,7.11,0,0,0-2.65-2.2,28.49,28.49,0,0,0-5.46-2,25.66,25.66,0,0,1-5.48-2,7.26,7.26,0,0,1-2.68-2.38,6.05,6.05,0,0,1-.85-3.29,5.9,5.9,0,0,1,2.59-5A11.11,11.11,0,0,1,60.22,31a10.92,10.92,0,0,1,4.86,1.05,7.89,7.89,0,0,1,3.33,3,8,8,0,0,1,1.18,4.3h-1a6.66,6.66,0,0,0-2.32-5.21,8.72,8.72,0,0,0-6-2.06,10,10,0,0,0-6,1.65,5,5,0,0,0-.3,8.22,18.8,18.8,0,0,0,6.57,2.74,20.25,20.25,0,0,1,6.71,2.75,6.29,6.29,0,0,1,2.71,5.34,6.19,6.19,0,0,1-1.2,3.76,7.63,7.63,0,0,1-3.4,2.52,13.13,13.13,0,0,1-4.95.89,14.15,14.15,0,0,1-5.49-1,7.81,7.81,0,0,1-3.66-2.89A7.9,7.9,0,0,1,50,51.62h1A6.29,6.29,0,0,0,53.61,57a11.07,11.07,0,0,0,6.75,1.91,10.31,10.31,0,0,0,6.09-1.69A5.16,5.16,0,0,0,68.84,52.82Z"/></svg>