<svg id="Layer_1" data-name="Layer 1" xmlns="http://www.w3.org/2000/svg" viewBox="0 0 96 96"><title>AC-SLD_Icons_Black</title><path d="M48,96A48,48,0,1,1,96,48,48.05,48.05,0,0,1,48,96ZM48,1A47,47,0,1,0,95,48,47.06,47.06,0,0,0,48,1Z"/><path d="M30.8,44.84l1.31-13.41H45.84v1H33.06L31.92,43.74a7.84,7.84,0,0,1,2.66-1.35,10.72,10.72,0,0,1,3.24-.52,7.93,7.93,0,0,1,6.05,2.4,8.86,8.86,0,0,1,2.26,6.34q0,4.58-2,7A7.32,7.32,0,0,1,38.2,60a8.23,8.23,0,0,1-5.84-2.07,8.39,8.39,0,0,1-2.51-5.72h1.06a7.53,7.53,0,0,0,2.16,5,7.24,7.24,0,0,0,5.12,1.72,6.25,6.25,0,0,0,5.17-2.1q1.69-2.1,1.69-6.18a7.93,7.93,0,0,0-2-5.62,6.85,6.85,0,0,0-5.27-2.11,10.48,10.48,0,0,0-3.54.54,7.51,7.51,0,0,0-2.71,1.7Z"/><path d="M67.25,48.09q0,5.66-2.2,8.77a7.72,7.72,0,0,1-12.39,0Q50.42,53.69,50.42,48v-5.1q0-5.61,2.21-8.75a7.7,7.7,0,0,1,12.41,0Q67.25,37.3,67.25,43Zm-1-5.18q0-5.12-1.92-8a6.64,6.64,0,0,0-10.92,0q-1.9,2.87-1.9,8.07v5q0,5.1,2,8a6.22,6.22,0,0,0,5.45,2.88A6.14,6.14,0,0,0,64.3,56q1.91-2.88,1.91-8.08Z"/></svg>