<svg id="Layer_1" data-name="Layer 1" xmlns="http://www.w3.org/2000/svg" viewBox="0 0 96 96"><title>AC-SLD_Icons_Black</title><circle cx="1.93" cy="42.2" r="1.63"/><path d="M23.66,44.06H18.53a.6.6,0,0,1-.6-.6V40.78a.6.6,0,0,1,.6-.6h5.13a.6.6,0,0,1,.6.6v2.68A.6.6,0,0,1,23.66,44.06Zm-4.75-1h4.36v-1.9H18.92Z"/><path d="M32,42.75H24.22a.49.49,0,0,1,0-1H32a.49.49,0,1,1,0,1Z"/><path d="M18.34,42.75h-17a.49.49,0,1,1,0-1h17a.49.49,0,1,1,0,1Z"/><path d="M47,57.64A15.38,15.38,0,1,1,62.39,42.26,15.4,15.4,0,0,1,47,57.64Zm0-29.78A14.39,14.39,0,1,0,61.4,42.26,14.41,14.41,0,0,0,47,27.86Z"/><path d="M55.34,73H37.79a.49.49,0,0,1,0-1H55.34a.49.49,0,1,1,0,1Z"/><path d="M53.16,76.4h-13a.49.49,0,0,1,0-1h13a.49.49,0,0,1,0,1Z"/><path d="M51.5,79.67H42.26a.49.49,0,0,1,0-1H51.5a.49.49,0,0,1,0,1Z"/><path d="M48.59,83.53h-4a.49.49,0,0,1,0-1h4a.49.49,0,0,1,0,1Z"/><path d="M46.65,72.7a.49.49,0,0,1-.49-.49V43.86a.49.49,0,0,1,1,0V72.21A.49.49,0,0,1,46.65,72.7Z"/><path d="M46.65,44.5a.49.49,0,0,1-.33-.12l-6.77-5.93a.49.49,0,1,1,.65-.74L47,43.64a.49.49,0,0,1-.33.87Z"/><path d="M46.71,44.42a.49.49,0,0,1-.3-.89L53.83,38a.49.49,0,0,1,.59.79L47,44.32A.49.49,0,0,1,46.71,44.42Z"/><path d="M89.13,31.64H84a.6.6,0,0,1-.6-.6V28.36a.6.6,0,0,1,.6-.6h5.13a.6.6,0,0,1,.6.6V31A.6.6,0,0,1,89.13,31.64Zm-4.75-1h4.36v-1.9H84.38Z"/><path d="M83.89,30.2H78.07a.49.49,0,0,1,0-1h5.82a.49.49,0,1,1,0,1Z"/><path d="M95.21,30.19H89.39a.49.49,0,0,1,0-1h5.82a.49.49,0,0,1,0,1Z"/><path d="M65.37,42.63A12.68,12.68,0,1,1,78,30,12.69,12.69,0,0,1,65.37,42.63Zm0-24.36A11.69,11.69,0,1,0,77.06,30,11.7,11.7,0,0,0,65.37,18.27Z"/><path d="M81.3,18.54a.49.49,0,0,1-.49-.49V.49a.49.49,0,1,1,1,0V18A.49.49,0,0,1,81.3,18.54Z"/><path d="M84.72,16.19a.49.49,0,0,1-.49-.49v-13a.49.49,0,1,1,1,0v13A.49.49,0,0,1,84.72,16.19Z"/><path d="M88,14.07a.49.49,0,0,1-.49-.49V4.34a.49.49,0,1,1,1,0v9.24A.49.49,0,0,1,88,14.07Z"/><path d="M91.85,11.79a.49.49,0,0,1-.49-.49v-4a.49.49,0,1,1,1,0v4A.49.49,0,0,1,91.85,11.79Z"/><path d="M81.3,10H65.37a.49.49,0,0,1,0-1H81.3a.49.49,0,1,1,0,1Z"/><path d="M65.37,39a.49.49,0,0,1-.49-.49v-29a.49.49,0,1,1,1,0v29A.49.49,0,0,1,65.37,39Z"/><path d="M65.43,30.45a.49.49,0,0,1-.33-.12l-6.22-5.45a.49.49,0,0,1,.65-.74l6.22,5.45a.49.49,0,0,1-.33.87Z"/><path d="M65.43,30.4a.49.49,0,0,1-.3-.89l6.57-4.87a.49.49,0,0,1,.59.79L65.72,30.3A.49.49,0,0,1,65.43,30.4Z"/><path d="M88.82,56.2H83.68a.6.6,0,0,1-.6-.6V52.92a.6.6,0,0,1,.6-.6h5.13a.6.6,0,0,1,.6.6V55.6A.6.6,0,0,1,88.82,56.2Zm-4.75-1h4.36v-1.9H84.07Z"/><path d="M83.57,54.76H77.76a.49.49,0,0,1,0-1h5.82a.49.49,0,0,1,0,1Z"/><path d="M95.21,54.74H89.39a.49.49,0,0,1,0-1h5.82a.49.49,0,0,1,0,1Z"/><path d="M65.58,67.16A12.68,12.68,0,1,1,78.25,54.48,12.69,12.69,0,0,1,65.58,67.16Zm0-24.36A11.69,11.69,0,1,0,77.26,54.48,11.7,11.7,0,0,0,65.58,42.8Z"/><path d="M74.2,85.45H56.65a.49.49,0,1,1,0-1H74.2a.49.49,0,0,1,0,1Z"/><path d="M72,88.87H59a.49.49,0,0,1,0-1H72a.49.49,0,0,1,0,1Z"/><path d="M70.36,92.14H61.12a.49.49,0,0,1,0-1h9.24a.49.49,0,0,1,0,1Z"/><path d="M67.45,96h-4a.49.49,0,0,1,0-1h4a.49.49,0,0,1,0,1Z"/><path d="M65.43,85.45h0a.49.49,0,0,1-.49-.49V54.72a.49.49,0,0,1,.49-.49h0a.49.49,0,0,1,.49.49V85A.49.49,0,0,1,65.43,85.45Z"/><path d="M65.4,54.87a.49.49,0,0,1-.33-.12l-6.22-5.45a.49.49,0,1,1,.65-.74L65.73,54a.49.49,0,0,1-.33.87Z"/><path d="M65.4,54.82a.49.49,0,0,1-.3-.89l6.57-4.87a.49.49,0,1,1,.59.79L65.7,54.72A.49.49,0,0,1,65.4,54.82Z"/></svg>