<svg id="Layer_1" data-name="Layer 1" xmlns="http://www.w3.org/2000/svg" viewBox="0 0 96 96"><title>AC-SLD_Icons_Black</title><path d="M13.81,61.81A13.81,13.81,0,1,1,27.62,48,13.83,13.83,0,0,1,13.81,61.81Zm0-27.12A13.31,13.31,0,1,0,27.13,48,13.33,13.33,0,0,0,13.81,34.69Z"/><path d="M9.81,43.45,6.27,51.3H6l3.5-7.74H4.67v-.3H9.81Z"/><path d="M15.08,48.81h1.39v.3H15.08V51.3h-.3V49.11h-3.9v-.17l3.84-5.68h.36Zm-3.73,0h3.43V43.63l-.46.76Z"/><path d="M22,48.9H18l-.89,2.4h-.33l3-8h.36l3,8h-.33Zm-3.82-.3h3.71l-1.85-5Z"/><path d="M48,61.81A13.81,13.81,0,1,1,61.81,48,13.83,13.83,0,0,1,48,61.81Zm0-27.12A13.31,13.31,0,1,0,61.31,48,13.33,13.33,0,0,0,48,34.69Z"/><path d="M44,43.45,40.43,51.3h-.3l3.5-7.74H38.83v-.3H44Z"/><path d="M49.24,48.81h1.39v.3H49.24V51.3h-.3V49.11H45v-.17l3.84-5.68h.36Zm-3.73,0h3.43V43.63l-.46.76Z"/><path d="M51.88,51.3v-8H54a3.11,3.11,0,0,1,2,.53,1.84,1.84,0,0,1,.67,1.53,1.92,1.92,0,0,1-.37,1.21,1.67,1.67,0,0,1-1,.61,2,2,0,0,1,1.27.66A1.86,1.86,0,0,1,57,49.09a2.06,2.06,0,0,1-.67,1.62,2.69,2.69,0,0,1-1.85.59Zm.3-4.27h1.93a2.71,2.71,0,0,0,1.66-.42,1.54,1.54,0,0,0,.56-1.31q0-1.71-2.26-1.74H52.18Zm0,.3V51H54.5a2.36,2.36,0,0,0,1.6-.51,1.75,1.75,0,0,0,.58-1.4,1.6,1.6,0,0,0-.56-1.25,2.26,2.26,0,0,0-1.51-.51Z"/><path d="M82.19,61.81A13.81,13.81,0,1,1,96,48,13.83,13.83,0,0,1,82.19,61.81Zm0-27.12A13.31,13.31,0,1,0,95.5,48,13.33,13.33,0,0,0,82.19,34.69Z"/><path d="M77.9,43.45,74.36,51.3h-.3l3.5-7.74H72.76v-.3H77.9Z"/><path d="M83.17,48.81h1.39v.3H83.17V51.3h-.3V49.11H79v-.17l3.84-5.68h.36Zm-3.73,0h3.43V43.63l-.46.76Z"/><path d="M91.28,48.84a2.8,2.8,0,0,1-.86,1.91,2.89,2.89,0,0,1-2,.67A2.7,2.7,0,0,1,86.9,51a2.85,2.85,0,0,1-1-1.23,4.4,4.4,0,0,1-.37-1.82V46.68a4.48,4.48,0,0,1,.36-1.83,2.84,2.84,0,0,1,1-1.25,2.69,2.69,0,0,1,1.53-.44,2.91,2.91,0,0,1,2,.66,2.78,2.78,0,0,1,.86,1.9H91A2.55,2.55,0,0,0,90.21,44a2.6,2.6,0,0,0-1.79-.58,2.32,2.32,0,0,0-1.89.88,3.63,3.63,0,0,0-.72,2.37v1.18a4.16,4.16,0,0,0,.32,1.68A2.61,2.61,0,0,0,87,50.71a2.38,2.38,0,0,0,1.37.41,2.64,2.64,0,0,0,1.8-.57,2.51,2.51,0,0,0,.76-1.7Z"/></svg>