<svg id="Layer_1" data-name="Layer 1" xmlns="http://www.w3.org/2000/svg" viewBox="0 0 96 96"><title>AC-SLD_Icons_Black</title><path d="M48,96A48,48,0,1,1,96,48,48.05,48.05,0,0,1,48,96ZM48,1A47,47,0,1,0,95,48,47.06,47.06,0,0,0,48,1Z"/><path d="M33.86,32.08,21.47,59.57H20.41l12.26-27.1H15.88v-1h18Z"/><path d="M52.34,50.85h4.87v1H52.34v7.67h-1V51.89H37.65v-.58L51.08,31.42h1.26Zm-13.07,0h12V32.68l-1.62,2.67Z"/><path d="M61.6,59.57V31.42H69q4.54,0,6.87,1.85a6.44,6.44,0,0,1,2.33,5.36,6.74,6.74,0,0,1-1.3,4.23A5.84,5.84,0,0,1,73.25,45a7,7,0,0,1,4.45,2.31,6.5,6.5,0,0,1,1.78,4.49,7.21,7.21,0,0,1-2.33,5.67,9.4,9.4,0,0,1-6.49,2.08Zm1-14.94h6.75a9.52,9.52,0,0,0,5.8-1.48,5.39,5.39,0,0,0,2-4.59q0-6-7.91-6.09H62.64Zm0,1V58.53h8.14a8.29,8.29,0,0,0,5.62-1.77,6.14,6.14,0,0,0,2-4.9,5.59,5.59,0,0,0-2-4.4,7.94,7.94,0,0,0-5.28-1.79Z"/></svg>
