<svg id="Layer_1" data-name="Layer 1" xmlns="http://www.w3.org/2000/svg" viewBox="0 0 142 80"><defs><style>.cls-1{fill:#f58b48;}.cls-2{fill:#0808ba;}.cls-3{fill:#49f966;}</style></defs><title>DC_SLD_CB_142x80</title><rect y="38.44" width="55.01" height="3.11"/><ellipse class="cls-1" cx="38.23" cy="40" rx="3.93" ry="3.92"/><path d="M33.31,40a4.92,4.92,0,1,1,4.92,4.91A4.92,4.92,0,0,1,33.31,40Zm2,0a2.94,2.94,0,1,0,2.94-2.94A2.94,2.94,0,0,0,35.29,40Z"/><ellipse class="cls-1" cx="12.84" cy="40" rx="3.93" ry="3.92"/><path d="M7.92,40a4.92,4.92,0,1,1,4.93,4.91A4.92,4.92,0,0,1,7.92,40Zm2,0a2.95,2.95,0,1,0,2.95-2.94A2.94,2.94,0,0,0,9.89,40Z"/><rect class="cls-1" x="53.57" y="1.4" width="86.85" height="77.2" rx="0.5" ry="0.5"/><path d="M136.49,80h-79c-3,0-5.51-2.2-5.51-4.9V4.9C52,2.2,54.47,0,57.51,0h79c3,0,5.51,2.2,5.51,4.9V75.1C142,77.8,139.53,80,136.49,80Zm-79-77.2a2.24,2.24,0,0,0-2.36,2.1V75.1a2.24,2.24,0,0,0,2.36,2.1h79a2.24,2.24,0,0,0,2.36-2.1V4.9a2.24,2.24,0,0,0-2.36-2.1Z"/><ellipse class="cls-2" cx="80.86" cy="18.22" rx="4.25" ry="4.29"/><ellipse class="cls-3" cx="113.13" cy="18.22" rx="4.25" ry="4.29"/></svg>