<?xml version="1.0" encoding="utf-8"?>
<!-- Generator: Adobe Illustrator 18.1.1, SVG Export Plug-In . SVG Version: 6.00 Build 0)  -->
<svg version="1.1" baseProfile="tiny" id="Layer_1" xmlns="http://www.w3.org/2000/svg" xmlns:xlink="http://www.w3.org/1999/xlink"
	 x="0px" y="0px" viewBox="0 0 20 20" xml:space="preserve">
<g>
	<g>
		<circle fill="none" cx="10" cy="4.9" r="0.7"/>
		<path fill="#27A5DE" d="M12.9,0.3v1.4c3.3,1.2,5.7,4.4,5.7,8.1c0,0.5-0.1,1-0.1,1.5l1.2,0.7c0.2-0.7,0.2-1.4,0.2-2.1
			C19.9,5.3,16.9,1.6,12.9,0.3z"/>
		<path fill="#27A5DE" d="M16.7,17l-1.2-0.7c-1.5,1.3-3.4,2.1-5.6,2.1c-2.1,0-4.1-0.8-5.6-2.1L3.2,17c1.8,1.7,4.1,2.7,6.8,2.7h0
			C12.6,19.7,15,18.7,16.7,17z"/>
		<path fill="#27A5DE" d="M7,4.8V3.3C4.6,4.4,2.9,6.9,2.9,9.8c0,0.2,0,0.4,0,0.6l1.3-0.7C4.2,7.6,5.3,5.8,7,4.8z"/>
		<path fill="#27A5DE" d="M0.1,9.8L0.1,9.8c0,0.7,0.1,1.4,0.2,2.1l1.2-0.7c-0.1-0.5-0.1-0.9-0.1-1.4c0-3.7,2.3-6.8,5.6-8.1V0.4
			C3,1.6,0.1,5.4,0.1,9.8z"/>
		<path fill="#27A5DE" d="M7,14.8l-1.2,0.7c1.2,0.9,2.6,1.4,4.2,1.4c1.6,0,3-0.5,4.2-1.4L13,14.8c-0.9,0.5-1.9,0.8-3,0.8
			C8.9,15.6,7.9,15.3,7,14.8z"/>
		<path fill="#27A5DE" d="M15.8,9.7l1.2,0.7c0-0.2,0-0.4,0-0.7c0-2.9-1.7-5.4-4.3-6.5v1.4C14.6,5.7,15.8,7.6,15.8,9.7z"/>
		<path fill="#27A5DE" d="M6.8,8.1C6.8,8.3,6.7,8.6,6.7,8.9c0,0.9-0.1,1.3-0.3,1.8C6,11.9,5,11.9,4.5,12v0.4v0.9h4.4
			c0,0,0,0.1,0,0.1c0,0.6,0.5,1.1,1.1,1.1c0.6,0,1.1-0.5,1.1-1.1c0,0,0-0.1,0-0.1h4.4v-0.9V12c-0.5,0-1.5,0-1.9-1.3
			c-0.2-0.5-0.3-0.9-0.3-1.8c0-0.3-0.1-0.5-0.1-0.8C13,7.3,12.7,6.6,12,5.9c-0.1-0.1-0.4-0.2-0.6-0.3c0.1-0.2,0.2-0.4,0.2-0.7
			c0-0.8-0.7-1.5-1.5-1.5c-0.8,0-1.5,0.7-1.5,1.5c0,0.2,0.1,0.5,0.2,0.7C8.4,5.7,8.1,5.8,8,5.9C7.3,6.6,7,7.3,6.8,8.1z M10,4.3
			c0.4,0,0.7,0.3,0.7,0.7c0,0.4-0.3,0.7-0.7,0.7S9.3,5.3,9.3,4.9C9.3,4.6,9.6,4.3,10,4.3z"/>
	</g>
</g>
</svg>
