<?xml version="1.0" encoding="utf-8"?>
<!-- Generator: Adobe Illustrator 18.1.1, SVG Export Plug-In . SVG Version: 6.00 Build 0)  -->
<svg version="1.1" id="Layer_1" xmlns="http://www.w3.org/2000/svg" xmlns:xlink="http://www.w3.org/1999/xlink" x="0px" y="0px"
	 viewBox="0 0 20 20" enable-background="new 0 0 20 20" xml:space="preserve">
<g>
	<defs>
		<rect id="SVGID_1_" x="0.1" y="0.1" width="19.8" height="19.8"/>
	</defs>
	<clipPath id="SVGID_2_">
		<use xlink:href="#SVGID_1_"  overflow="visible"/>
	</clipPath>
	<path clip-path="url(#SVGID_2_)" fill="#28A5DE" d="M9.7,16.1c-0.5,0-1-0.1-1.5-0.3l1.8,4l0.8-1.7c-0.3-0.4-0.6-0.8-0.8-1.3
		C9.9,16.6,9.8,16.4,9.7,16.1 M9.6,14.9c0-0.8,0.2-1.6,0.6-2.4c0.2-0.4,0.5-0.8,0.8-1.1V5.1C10.7,5.1,10.4,5,10,5c-2.7,0-5,2.2-5,5
		C5,12.6,7,14.7,9.6,14.9 M4.6,12.9L3,17l4.1-1.6C6,14.9,5.1,14,4.6,12.9 M4.1,8.2l-4,1.8l4,1.8c-0.2-0.6-0.3-1.2-0.3-1.8
		C3.8,9.4,3.9,8.8,4.1,8.2 M7.1,4.6L3,3l1.6,4.1C5.1,6,6,5.1,7.1,4.6 M11,3.9c0-0.4,0.1-0.7,0.2-1.1L10,0.1l-1.8,4
		C8.8,3.9,9.4,3.8,10,3.8C10.4,3.8,10.7,3.9,11,3.9L11,3.9z M16,16.4c0.4-0.4,0.6-1,0.6-1.5c0-0.7-0.4-1.4-1-1.8l-0.4-0.3v-4
		c0-0.4-0.3-0.7-0.7-0.7c-0.4,0-0.7,0.3-0.7,0.7v4l-0.4,0.3c-0.6,0.4-1,1.1-1,1.8c0,0.6,0.2,1.1,0.6,1.5c0.4,0.4,1,0.6,1.5,0.6
		C15.1,17,15.6,16.8,16,16.4 M17.6,14.9c0,1.7-1.4,3.1-3.1,3.1s-3.1-1.4-3.1-3.1c0-1.1,0.6-2.1,1.4-2.6V4c0-0.9,0.8-1.7,1.7-1.7
		c0.9,0,1.7,0.8,1.7,1.7v0.1h-1.5c-0.2,0-0.4,0.2-0.4,0.4c0,0.2,0.2,0.4,0.4,0.4h1.5v0.9h-1.5c-0.2,0-0.4,0.2-0.4,0.4
		s0.2,0.4,0.4,0.4h1.5v5.5C17.1,12.8,17.6,13.8,17.6,14.9 M18,12.9c-0.2-0.4-0.6-0.8-0.9-1.1V4c0-0.3-0.1-0.7-0.2-1
		c-0.1-0.3-0.3-0.6-0.5-0.8c-0.2-0.2-0.5-0.4-0.8-0.5c-0.3-0.1-0.7-0.2-1-0.2c-0.3,0-0.7,0.1-1,0.2c-0.3,0.1-0.6,0.3-0.8,0.5
		c-0.2,0.2-0.4,0.5-0.5,0.8c-0.1,0.3-0.2,0.7-0.2,1v7.8c-0.4,0.3-0.7,0.7-0.9,1.1c-0.3,0.6-0.5,1.3-0.5,1.9c0,0.5,0.1,1.1,0.3,1.6
		c0.2,0.5,0.5,0.9,0.9,1.3c0.4,0.4,0.8,0.7,1.3,0.9c0.5,0.2,1,0.3,1.6,0.3c0.5,0,1.1-0.1,1.6-0.3c0.5-0.2,0.9-0.5,1.3-0.9
		c0.4-0.4,0.7-0.8,0.9-1.3c0.2-0.5,0.3-1,0.3-1.6C18.5,14.2,18.3,13.5,18,12.9 M19.9,10l-2-0.9v1.8L19.9,10z"/>
</g>
</svg>
