<?xml version="1.0" encoding="utf-8"?>
<!-- Generator: Adobe Illustrator 19.2.1, SVG Export Plug-In . SVG Version: 6.00 Build 0)  -->
<svg version="1.1" baseProfile="tiny" id="Layer_1" xmlns="http://www.w3.org/2000/svg" xmlns:xlink="http://www.w3.org/1999/xlink"
	 x="0px" y="0px" viewBox="0 0 20 20" xml:space="preserve">
<g>
	<path fill="#FFFFFF" d="M5.8,6.6l-5.3,4.6L1.2,12c0,0,0,0,0,0c1.5-1.5,4.4-4.2,4.6-4c0.2,0.2-2.5,3.1-4,4.6c0,0,0,0,0,0l0.6,0.6
		c0,0,0,0,0,0C4,11.7,6.9,9,7.1,9.2c0.2,0.2-2.5,3.1-4,4.6c0,0,0,0,0,0l0.6,0.6c0,0,0,0,0,0c1.5-1.5,4.4-4.2,4.6-4
		c0.2,0.2-2.5,3.1-4,4.6c0,0,0,0,0,0l0.6,0.6c0,0,0,0,0,0c1.5-1.5,4.4-4.2,4.6-4c0.2,0.2-2.5,3.1-4,4.6c0,0,0,0,0,0l0.6,0.6
		c0,0,0,0,0,0c1.5-1.5,4.4-4.2,4.6-4c0.2,0.2-2.5,3.1-4,4.6c0,0,0,0,0,0l0.6,0.6c0,0,0,0,0,0c1.5-1.5,4.4-4.2,4.6-4
		c0.2,0.2-2.5,3.1-4,4.6c0,0,0,0,0,0l0.7,0.7l4.6-5.3L5.8,6.6z"/>
	<path fill="#FFFFFF" d="M14.1,14.2c0,0,0.2-0.2,0.5-0.5l0.2-0.2l0.4-0.4c0.4-0.4,0.4-1,0.2-1.7c-0.1-0.5-0.4-1-0.6-1.5
		c-0.1-0.1-0.1-0.3-0.2-0.4c-0.3-0.9-0.4-1.9,0.4-2.7c3.1-3.1,4.5-3.4,4.5-3.4l-0.4-0.7l0,0l-0.7-1l-1-0.7l0,0l-0.7-0.4
		c0,0-0.3,1.4-3.4,4.5C11.3,7,8.4,3.5,7,4.9L6.6,5.3L6.4,5.6L5.9,6L14.1,14.2z"/>
</g>
</svg>
