<?xml version="1.0" encoding="utf-8"?>
<!-- Generator: Adobe Illustrator 18.1.1, SVG Export Plug-In . SVG Version: 6.00 Build 0)  -->
<svg version="1.1" baseProfile="tiny" id="Layer_1" xmlns="http://www.w3.org/2000/svg" xmlns:xlink="http://www.w3.org/1999/xlink"
	 x="0px" y="0px" viewBox="0 0 20 20" xml:space="preserve">
<g>
	<polygon fill="#2AA3DC" points="11.8,6 10.7,9.4 10.1,9 9.4,8.6 9.4,8.6 	"/>
	<g>
		<path fill="none" d="M9.3,10.3c0.2,0.1,0.4,0,0.5-0.1c0-0.1,0-0.1,0-0.2H9.1C9.1,10.2,9.2,10.3,9.3,10.3z"/>
		<path fill="none" d="M9.8,9.4C9.5,9.2,9,9.3,8.8,9.7C8.8,9.8,8.7,9.9,8.7,10H8.4c0,0.4,0.2,0.7,0.5,0.9c0.5,0.3,1.2,0.1,1.4-0.4
			c0.1-0.2,0.1-0.3,0.1-0.5h-0.3C10.2,9.8,10.1,9.5,9.8,9.4z M10,10.3c-0.2,0.3-0.5,0.4-0.8,0.2C8.9,10.4,8.8,10,9,9.7
			c0.2-0.3,0.5-0.4,0.8-0.2S10.1,10,10,10.3z"/>
		<path fill="none" d="M14.9,16.6c-0.2,0-0.4,0.1-0.5,0.2c-0.1,0.1-0.2,0.3-0.2,0.5v0.3c0,0.2,0.1,0.4,0.2,0.5
			c0.1,0.1,0.3,0.2,0.5,0.2c0.2,0,0.3-0.1,0.5-0.2c0.1-0.1,0.2-0.3,0.2-0.5v-0.3c0-0.2-0.1-0.4-0.2-0.5
			C15.2,16.7,15.1,16.6,14.9,16.6z"/>
		<path fill="none" d="M11.1,15c0.2,0,0.3-0.1,0.5-0.2c0.1-0.1,0.2-0.3,0.2-0.5V14c0-0.2-0.1-0.4-0.2-0.5c-0.1-0.1-0.3-0.2-0.5-0.2
			c-0.2,0-0.4,0.1-0.5,0.2c-0.1,0.1-0.2,0.3-0.2,0.5v0.3c0,0.2,0.1,0.4,0.2,0.5C10.8,15,10.9,15,11.1,15z"/>
		<path fill="#2AA3DC" d="M8.6,11.6c0.8,0.5,1.9,0.2,2.4-0.6c0.5-0.8,0.2-1.9-0.6-2.4S8.4,8.3,7.9,9.1C7.5,10,7.7,11.1,8.6,11.6z
			 M8.5,9.5C8.8,9,9.5,8.8,10,9.1c0.4,0.2,0.5,0.6,0.5,1h-0.1c0,0.2,0,0.4-0.1,0.5c-0.3,0.5-0.9,0.7-1.4,0.4
			c-0.3-0.2-0.5-0.6-0.5-0.9H8.4C8.4,9.8,8.4,9.7,8.5,9.5z"/>
		<path fill="#2AA3DC" d="M9.8,9.5C9.5,9.4,9.1,9.5,9,9.7c-0.2,0.3-0.1,0.6,0.2,0.8c0.3,0.2,0.6,0.1,0.8-0.2S10,9.7,9.8,9.5z
			 M9.8,10c0,0.1,0,0.1,0,0.2c-0.1,0.2-0.3,0.2-0.5,0.1c-0.1-0.1-0.2-0.2-0.2-0.3H9C9,10,9,9.9,9.1,9.8c0.1-0.2,0.4-0.3,0.6-0.2
			C9.8,9.7,9.9,9.9,9.9,10H9.8z"/>
		<path fill="#2AA3DC" d="M8.7,10c0-0.1,0-0.3,0.1-0.4c0.2-0.4,0.7-0.5,1-0.3c0.2,0.1,0.4,0.4,0.4,0.6h0.3h0.1c0-0.4-0.2-0.8-0.5-1
			C9.5,8.8,8.8,9,8.5,9.5C8.4,9.7,8.4,9.8,8.4,10h0.1H8.7z"/>
		<path fill="#2AA3DC" d="M10.2,6.9C8.9,6.6,7.4,7.1,6.7,8.4C6.4,8.9,6.2,9.5,6.2,10h0.6c0-0.5,0.1-0.9,0.4-1.3
			c0.5-0.9,1.6-1.4,2.6-1.3L10.2,6.9z"/>
		<path fill="#2AA3DC" d="M11.8,7.8l-0.2,0.7c0.3,0.5,0.5,1,0.5,1.6h0.6C12.7,9.2,12.4,8.4,11.8,7.8z"/>
		<path fill="#2AA3DC" d="M14.2,10h1.2c0-2-1.1-4-2.9-5.1C9.6,3.3,6,4.3,4.4,7.1C3.8,8,3.6,9,3.6,10h1.2c0-0.8,0.2-1.6,0.6-2.4
			c1.3-2.3,4.2-3,6.4-1.7C13.3,6.8,14.2,8.4,14.2,10z"/>
		<path fill="#2AA3DC" d="M9.1,9.8C9,9.9,9,10,9,10h0.1h0.7h0.1c0-0.2-0.1-0.3-0.2-0.4C9.5,9.5,9.2,9.6,9.1,9.8z"/>
		<path fill="#2AA3DC" d="M11.1,15.7c0.4,0,0.8-0.1,1-0.4c0.2-0.3,0.4-0.6,0.4-1V14c0-0.4-0.1-0.7-0.4-1c-0.2-0.3-0.6-0.4-1-0.4
			c-0.4,0-0.8,0.1-1,0.4c-0.2,0.3-0.4,0.6-0.4,1v0.3c0,0.4,0.1,0.7,0.4,1C10.4,15.5,10.7,15.7,11.1,15.7z M10.5,14
			c0-0.2,0.1-0.4,0.2-0.5c0.1-0.1,0.3-0.2,0.5-0.2c0.2,0,0.3,0.1,0.5,0.2c0.1,0.1,0.2,0.3,0.2,0.5v0.3c0,0.2-0.1,0.4-0.2,0.5
			C11.5,15,11.3,15,11.1,15c-0.2,0-0.4-0.1-0.5-0.2c-0.1-0.1-0.2-0.3-0.2-0.5V14z"/>
		<path fill="#2AA3DC" d="M14.9,15.9c-0.4,0-0.8,0.1-1,0.4c-0.2,0.3-0.4,0.6-0.4,1v0.3c0,0.4,0.1,0.7,0.4,1c0.2,0.3,0.6,0.4,1,0.4h0
			c0.4,0,0.8-0.1,1-0.4c0.2-0.3,0.4-0.6,0.4-1v-0.3c0-0.4-0.1-0.7-0.4-1S15.3,15.9,14.9,15.9z M15.5,17.6c0,0.2-0.1,0.4-0.2,0.5
			c-0.1,0.1-0.3,0.2-0.5,0.2c-0.2,0-0.4-0.1-0.5-0.2c-0.1-0.1-0.2-0.3-0.2-0.5v-0.3c0-0.2,0.1-0.4,0.2-0.5c0.1-0.1,0.3-0.2,0.5-0.2
			c0.2,0,0.3,0.1,0.5,0.2c0.1,0.1,0.2,0.3,0.2,0.5V17.6z"/>
	</g>
	<polygon fill="#2AA3DC" points="14.4,12.7 10.6,19 11.6,19 15.4,12.7 	"/>
	<path fill="#2AA3DC" d="M9.5,19V17c-3.9,0-7-3.2-7-7c0-3.9,3.2-7,7-7c3.9,0,7,3.2,7,7c0,0.3,0,0.6-0.1,0.9h1.9c0-0.3,0-0.6,0-0.9
		c0-5-4-9-9-9h0c-5,0-9,4-9,9C0.5,15,4.5,19,9.5,19z"/>
	<polygon fill="#2AA3DC" points="15.6,10.7 17.5,14.6 19.5,10.7 	"/>
</g>
</svg>
