<?xml version="1.0" encoding="utf-8"?>
<!-- Generator: Adobe Illustrator 19.1.0, SVG Export Plug-In . SVG Version: 6.00 Build 0)  -->
<svg version="1.1" id="Layer_1" xmlns="http://www.w3.org/2000/svg" xmlns:xlink="http://www.w3.org/1999/xlink" x="0px" y="0px"
	 viewBox="0 0 200 200" style="enable-background:new 0 0 200 200;" xml:space="preserve">
<style type="text/css">
	.st0{fill:none;}
</style>
<g>
	<path d="M64.2,51.9c-1.3-0.9-2.9-1.5-4.6-1.5c-4.4,0-8,3.6-8,8c0,1.6,0.5,3.1,1.3,4.3c0.7,1.1,1.7,2,2.8,2.7c1.2,0.7,2.5,1,3.9,1
		c4.4,0,8-3.6,8-8c0-1.3-0.3-2.5-0.9-3.6C66.1,53.7,65.3,52.7,64.2,51.9L64.2,51.9z M64.2,51.9"/>
	<path d="M146.1,51.9c-1.3-0.9-2.9-1.5-4.6-1.5c-4.4,0-8,3.6-8,8c0,1.6,0.5,3.1,1.3,4.3c0.7,1.1,1.7,2,2.8,2.7c1.2,0.7,2.5,1,3.9,1
		c4.4,0,8-3.6,8-8c0-1.3-0.3-2.5-0.9-3.6C148.1,53.7,147.2,52.7,146.1,51.9L146.1,51.9z M146.1,51.9"/>
	<path d="M64.2,136.1c-1.3-0.9-2.9-1.5-4.6-1.5c-4.4,0-8,3.6-8,8c0,1.6,0.5,3.1,1.3,4.3c0.7,1.1,1.7,2,2.8,2.7c1.2,0.7,2.5,1,3.9,1
		c4.4,0,8-3.6,8-8c0-1.3-0.3-2.5-0.9-3.6C66.1,137.8,65.3,136.8,64.2,136.1L64.2,136.1z M64.2,136.1"/>
	<path d="M145,136.1c-1.3-0.9-2.9-1.5-4.6-1.5c-4.4,0-8,3.6-8,8c0,1.6,0.5,3.1,1.3,4.3c0.7,1.1,1.7,2,2.8,2.7c1.2,0.7,2.5,1,3.9,1
		c4.4,0,8-3.6,8-8c0-1.3-0.3-2.5-0.9-3.6C146.9,137.8,146.1,136.8,145,136.1L145,136.1z M145,136.1"/>
	<path d="M45.1,93.5c-1.3-0.9-2.9-1.5-4.6-1.5c-4.4,0-8,3.6-8,8c0,1.6,0.5,3.1,1.3,4.3c0.7,1.1,1.7,2,2.8,2.7c1.2,0.7,2.5,1,3.9,1
		c4.4,0,8-3.6,8-8c0-1.3-0.3-2.5-0.9-3.6C47,95.2,46.2,94.2,45.1,93.5L45.1,93.5z M45.1,93.5"/>
	<path d="M164.1,93.5c-1.3-0.9-2.9-1.5-4.6-1.5c-4.4,0-8,3.6-8,8c0,1.6,0.5,3.1,1.3,4.3c0.7,1.1,1.7,2,2.8,2.7c1.2,0.7,2.5,1,3.9,1
		c4.4,0,8-3.6,8-8c0-1.3-0.3-2.5-0.9-3.6C166,95.2,165.1,94.2,164.1,93.5L164.1,93.5z M164.1,93.5"/>
	<path d="M106.5,45.1c0.9-1.3,1.5-2.9,1.5-4.6c0-4.4-3.6-8-8-8c-1.6,0-3.1,0.5-4.3,1.3c-1.1,0.7-2,1.7-2.7,2.8c-0.7,1.2-1,2.5-1,3.9
		c0,4.4,3.6,8,8,8c1.3,0,2.5-0.3,3.6-0.9C104.8,47,105.8,46.2,106.5,45.1L106.5,45.1z M106.5,45.1"/>
	<path d="M106.5,164.1c0.9-1.3,1.5-2.9,1.5-4.6c0-4.4-3.6-8-8-8c-1.6,0-3.1,0.5-4.3,1.3c-1.1,0.7-2,1.7-2.7,2.8
		c-0.7,1.2-1,2.5-1,3.9c0,4.4,3.6,8,8,8c1.3,0,2.5-0.3,3.6-0.9C104.8,166,105.8,165.1,106.5,164.1L106.5,164.1z M106.5,164.1"/>
	<g>
		<path d="M112.1,40l-1.2-0.2l0,1.2c-0.1,1.4-0.4,2.7-0.9,4l-0.5,1.1l1.2,0.2c6.9,1.4,13.5,4.1,19.4,8l1,0.6l0.5-1.1
			c0.6-1.3,1.4-2.4,2.4-3.4l0.9-0.9l-1-0.7C127.2,44.6,119.9,41.6,112.1,40z"/>
		<path d="M89.1,40.9l0-1.2l-1.2,0.2c-7.5,1.5-14.6,4.3-21.1,8.5l-1.1,0.7l1,0.9c1.1,0.9,2,2,2.6,3.2l0.5,0.9l0.9-0.6
			c5.7-3.6,12-6,18.6-7.3l1.2-0.2L90,44.9C89.4,43.6,89.1,42.3,89.1,40.9z"/>
		<path d="M159.3,110.9c-1.4,0-2.8-0.3-4-0.8l-1.1-0.5l-0.2,1.2c-1.4,7.5-4.4,14.4-8.7,20.7l-0.6,0.9l1,0.5c0.4,0.2,0.8,0.5,1.1,0.7
			c0.8,0.5,1.5,1.2,2.1,1.9l0.8,1l0.7-1.1c4.9-7.1,8.3-15,9.9-23.4l0.2-1.2L159.3,110.9z"/>
		<path d="M153.8,89.2l0.2,1.2l1.1-0.5c1.3-0.5,2.6-0.8,4-0.9l1.2,0l-0.2-1.2c-1.6-7.8-4.7-15.1-9.1-21.7l-0.7-1l-0.9,0.9
			c-1,1-2.1,1.8-3.4,2.4l-1.1,0.5l0.7,1C149.6,75.8,152.3,82.3,153.8,89.2z"/>
		<path d="M131.2,148.5c-0.2-0.3-0.4-0.7-0.6-1.1l-0.5-1l-0.9,0.6c-5.6,3.5-11.7,6-18.1,7.3l-1.1,0.2l0.4,1.1
			c0.5,1.2,0.7,2.5,0.7,3.9l0,1.4l1.2-0.3c7.4-1.5,14.4-4.4,20.8-8.4l1.1-0.7l-1-0.9C132.3,150,131.7,149.3,131.2,148.5z"/>
		<path d="M70.8,147.2l-0.9-0.6l-0.5,1c-0.6,1.2-1.5,2.3-2.5,3.3l-1,0.9l1.1,0.7c6.4,4.1,13.5,6.9,20.9,8.4l1.2,0.2l-0.1-1.6
			c0-1.2,0.2-2.5,0.7-3.7l0.4-1.1l-1.1-0.2C82.5,153.1,76.4,150.7,70.8,147.2z"/>
		<path d="M45.7,111l-0.2-1.2l-1.1,0.4c-1.3,0.5-2.5,0.7-3.8,0.7l0,0c-0.1,0-0.1,0-0.2,0l-1.2,0l0.2,1.2c1.7,8.6,5.1,16.5,10.1,23.7
			l0.8,1.1l0.8-1c0.9-1.1,1.9-2,3.1-2.7l0.9-0.5l-0.6-0.9C50.1,125.4,47.2,118.4,45.7,111z"/>
		<path d="M44.5,89.8l1.1,0.4l0.2-1.2c1.5-7.1,4.3-13.7,8.4-19.7l0.6-0.9L54,67.9c-1.2-0.7-2.2-1.6-3.1-2.8L50,64.1l-0.8,1.1
			c-4.8,6.9-8.1,14.5-9.8,22.6l-0.2,1.2h1.2C41.9,89.1,43.2,89.3,44.5,89.8z"/>
	</g>
	<g>
		<path class="st0" d="M93.7,117.7c-1.1,0.4-2.2,0.2-3.1-0.6l-4.6-4.6c-0.1-0.1-0.3-0.2-0.5-0.1l-4,1.9c0.5,1.6,1,3.2,1.6,4.8H98
			v-16.7h-2.5v12.7C95.4,116.2,94.7,117.2,93.7,117.7z"/>
		<path class="st0" d="M95.4,89.6v8.5H98V81.6H83.1c-0.7,1.7-1.3,3.5-1.8,5.3h11.2C94.1,86.8,95.4,88.1,95.4,89.6z"/>
		<path class="st0" d="M67.7,123.3c5.6,7.8,14,13.6,23.7,15.8c-4.7-4.6-8.4-9.9-11.2-15.8H67.7z"/>
		<path class="st0" d="M69.7,97.1l0.2-0.4c0.1-0.2,0-0.4-0.1-0.5l-4.6-4.6c-0.8-0.8-1.1-2-0.6-3.1c0.4-1.1,1.4-1.7,2.6-1.7h9.7
			c0.4-1.8,1-3.5,1.6-5.3H65.1c-2.6,4.9-4.2,10.6-4.6,16.6h8.7C69.4,97.8,69.5,97.5,69.7,97.1L69.7,97.1z"/>
		<path class="st0" d="M65.5,118.9c-0.2,0-0.4,0-0.6,0c0,0.1,0,0.1,0.1,0.2h13.5c-0.3-1-0.6-2-0.9-3l-0.4,0.2
			C73.5,118,69.5,118.9,65.5,118.9z"/>
		<path class="st0" d="M80.7,110.9l3.4-1.6c1.4-0.7,3.2-0.4,4.3,0.7l3.7,3.7v-11.4H79.5C79.7,105.3,80,108.1,80.7,110.9z"/>
		<path class="st0" d="M56.9,113.9c0.5,0.2,0.9,0.3,1.4,0.5c-0.1-0.3-0.2-0.7-0.3-1C57.6,113.6,57.3,113.8,56.9,113.9z"/>
		<path class="st0" d="M98,139.1v-15.8H85.1C88.2,129.3,92.5,134.7,98,139.1z"/>
		<path class="st0" d="M92,98.1v-7.9H80.5c-0.5,2.6-0.9,5.3-1,7.9H92z"/>
		<path class="st0" d="M76.2,90.2h-7.7l3.7,3.7c1.1,1.1,1.4,2.8,0.8,4.2h2.4C75.4,95.4,75.7,92.8,76.2,90.2z"/>
		<path class="st0" d="M75.8,113.2l0.9-0.4c-0.8-3.4-1.3-6.9-1.4-10.4h-4.7c-2.3,3.5-5.2,6.5-8.6,8.8c0.4,1.5,0.9,2.9,1.5,4.3
			C67.6,115.8,71.9,115.1,75.8,113.2z"/>
		<path class="st0" d="M66.4,102.4h-6c0.1,1.8,0.3,3.5,0.7,5.2C63.1,106.1,64.9,104.4,66.4,102.4z"/>
		<path class="st0" d="M102.2,123.3v16c5.5-4.5,9.9-9.9,13.1-16H102.2z"/>
		<path class="st0" d="M102.2,119.1h15.1c2.1-5.2,3.3-10.8,3.6-16.7h-18.6V119.1z"/>
		<path class="st0" d="M117.3,81.6h-15.1v16.6h18.6C120.6,92.3,119.3,86.7,117.3,81.6z"/>
		<path class="st0" d="M102.2,61.2v16h13.1C112.2,71.1,107.7,65.7,102.2,61.2z"/>
		<path class="st0" d="M132.5,77.3c-5.6-7.8-13.9-13.4-23.5-15.6c4.6,4.5,8.4,9.9,11,15.6H132.5z"/>
		<path class="st0" d="M109,138.9c9.5-2.2,17.8-7.9,23.4-15.6H120C117.4,129.1,113.6,134.3,109,138.9z"/>
		<path class="st0" d="M121.9,119.1H135c2.8-4.9,4.4-10.7,4.7-16.7h-14.6C124.9,108.1,123.7,113.8,121.9,119.1z"/>
		<path class="st0" d="M67.7,77.3h12.6c2.8-5.9,6.4-11.2,11.2-15.8C81.7,63.6,73.3,69.4,67.7,77.3z"/>
		<path class="st0" d="M85.1,77.2H98V61.4C92.6,65.9,88.2,71.2,85.1,77.2z"/>
		<path class="st0" d="M125.1,98.1h14.6c-0.4-6-2-11.6-4.6-16.6h-13.2C123.7,86.9,124.9,92.4,125.1,98.1z"/>
		<path d="M138.3,78.7c-0.1-0.2-0.2-0.3-0.3-0.5c-7.6-13-21.7-21.7-38-21.7c-16.1,0-30.2,8.7-38,21.7c-0.1,0.1-0.2,0.3-0.3,0.5
			C58,85,56,92.4,56,100.3c0,3.4,0.4,6.6,1.1,9.8c1.4-0.7,2.8-1.6,4-2.5c-0.3-1.7-0.5-3.5-0.7-5.2h6c1-1.3,2-2.7,2.7-4.3h-8.7
			c0.4-6,2-11.6,4.6-16.6h13.5c-0.6,1.7-1.2,3.5-1.6,5.3h4.4c0.5-1.8,1.1-3.6,1.8-5.3H98v16.6h-2.5v4.3H98v16.7H83.1
			c-0.6-1.6-1.1-3.2-1.6-4.8l-3.9,1.9c0.3,1,0.6,2,0.9,3H65.1c0-0.1,0-0.1-0.1-0.2c-1.7,0-3.4-0.2-5.1-0.6
			c6.9,15.3,22.2,25.9,40.1,25.9c16.1,0,30.2-8.7,38-21.7c0.2-0.2,0.3-0.4,0.4-0.6c3.7-6.4,5.8-13.8,5.8-21.6
			C144.1,92.5,142,85,138.3,78.7z M67.7,123.3h12.5c2.8,5.9,6.4,11.2,11.2,15.8C81.7,136.9,73.3,131.1,67.7,123.3z M98,139.1
			c-5.4-4.4-9.8-9.8-12.9-15.8H98V139.1z M80.3,77.3H67.7c5.6-7.9,14-13.7,23.8-15.8C86.8,66.1,83.1,71.4,80.3,77.3z M98,77.2H85.1
			c3.1-6,7.5-11.3,12.9-15.8V77.2z M139.7,98.1h-14.6c-0.2-5.8-1.4-11.3-3.2-16.6h13.2C137.7,86.5,139.4,92.1,139.7,98.1z
			 M132.5,77.3H120c-2.6-5.8-6.4-11.2-11-15.6C118.5,63.8,126.8,69.5,132.5,77.3z M102.2,77.2v-16c5.5,4.5,10,9.9,13.1,16H102.2v0.1
			V77.2z M102.2,81.6h15.1c2.1,5.2,3.3,10.7,3.6,16.6h-18.6V81.6z M120.8,102.4c-0.2,5.9-1.5,11.5-3.6,16.7h-15.1v-16.7H120.8z
			 M102.2,139.3v-16h13.1C112.1,129.4,107.7,134.8,102.2,139.3z M109,138.9c4.6-4.6,8.4-9.9,11-15.6h12.3
			C126.8,131,118.5,136.8,109,138.9z M135,119.1h-13.1c1.8-5.3,3-10.9,3.2-16.7h14.6C139.4,108.4,137.7,114.1,135,119.1z"/>
		<path d="M75.8,113.2c-3.9,1.9-8.2,2.6-12.4,2.2c0.5,1.2,1,2.3,1.6,3.5c0.2,0,0.4,0,0.6,0c4,0,8-0.9,11.7-2.6l0.4-0.2
			c-0.3-1.1-0.6-2.2-0.9-3.3L75.8,113.2z"/>
		<path d="M70.6,102.4h-4.1c-1.5,2-3.3,3.7-5.3,5.2c0.2,1.2,0.5,2.4,0.8,3.5C65.3,108.8,68.3,105.9,70.6,102.4z"/>
		<path d="M56.9,113.9c0.4-0.2,0.7-0.4,1.1-0.5c-0.3-1.1-0.6-2.2-0.9-3.3c-1.6,0.8-3.3,1.5-5,2l-3.8,1.1l3.4,2
			c2.6,1.5,5.3,2.6,8.1,3.2c-0.6-1.3-1.1-2.6-1.5-3.9C57.8,114.2,57.3,114.1,56.9,113.9z"/>
		<path d="M92,113.8l-3.7-3.7c-1.1-1.1-2.9-1.4-4.3-0.7l-3.4,1.6c0.2,1.1,0.5,2.2,0.8,3.3l4-1.9c0.2-0.1,0.4,0,0.5,0.1l4.6,4.6
			c0.8,0.8,2,1.1,3.1,0.6c1.1-0.4,1.7-1.4,1.7-2.6v-12.7H92V113.8z"/>
		<path d="M92,90.2v7.9h3.4v-8.5c0-1.6-1.3-2.8-2.8-2.8H81.3c-0.3,1.1-0.6,2.2-0.8,3.4H92z"/>
		<path d="M72.2,93.9l-3.7-3.7h7.7c0.2-1.1,0.5-2.3,0.7-3.4h-9.7c-1.2,0-2.2,0.7-2.6,1.7c-0.4,1.1-0.2,2.2,0.6,3.1l4.6,4.6
			c0.1,0.1,0.2,0.3,0.1,0.5l-0.2,0.4v0c-0.2,0.3-0.3,0.7-0.5,1h3.8C73.6,96.7,73.3,95,72.2,93.9z"/>
		<path d="M72.7,98.6l0.2-0.4c0,0,0,0,0-0.1h-3.8c-0.8,1.5-1.7,2.9-2.7,4.3h4.1C71.4,101.2,72.1,99.9,72.7,98.6z"/>
		<path d="M80.5,90.2c0.2-1.1,0.5-2.3,0.8-3.4h-4.4c-0.3,1.1-0.5,2.2-0.7,3.4H80.5z"/>
		<path d="M76.7,112.8c0.3,1.1,0.6,2.2,0.9,3.3l3.9-1.9c-0.3-1.1-0.6-2.2-0.8-3.3L76.7,112.8z"/>
		<path d="M61.9,111.2c-0.3-1.2-0.6-2.3-0.8-3.5c-1.3,0.9-2.6,1.8-4,2.5c0.3,1.1,0.5,2.2,0.9,3.3C59.3,112.7,60.7,112,61.9,111.2z"
			/>
		<path d="M63.4,115.4c-1.7-0.2-3.4-0.5-5.1-1c0.5,1.3,1,2.6,1.5,3.9c1.7,0.4,3.4,0.6,5.1,0.6C64.4,117.8,63.9,116.6,63.4,115.4z"/>
		<rect x="92" y="98.1" width="3.4" height="4.3"/>
	</g>
</g>
</svg>
