<?xml version="1.0" encoding="utf-8"?>
<!-- Generator: Adobe Illustrator 19.1.0, SVG Export Plug-In . SVG Version: 6.00 Build 0)  -->
<svg version="1.1" id="Layer_1" xmlns="http://www.w3.org/2000/svg" xmlns:xlink="http://www.w3.org/1999/xlink" x="0px" y="0px"
	 viewBox="0 0 172.5 159" style="enable-background:new 0 0 172.5 159;" xml:space="preserve">
<g>
	<path d="M86.2,29.5c14.8,0,29.6,0,44.5,0c0.3,0,0.6,0,0.9,0c2.3,0,3.7,1.2,4.4,3.3c0.5,1.6,0.2,2.9-1,4.1c-0.2,0.2-0.3,0.3-0.5,0.5
		c-11.4,11.4-22.7,22.7-34.1,34.1c-0.5,0.5-0.7,0.9-0.7,1.6c0,17,0,33.9,0,50.9c0,0.5,0,1.1-0.1,1.6c-0.1,0.6-0.3,1.1-0.5,1.6
		c-1.4,2.4-4.8,2.9-6.9,1c-0.2-0.1-0.3-0.3-0.4-0.4c-5.9-5.9-11.7-11.8-17.6-17.6c-1.2-1.2-1.7-2.5-1.7-4.1c0-11,0-22,0-33.1
		c0-0.6-0.2-1-0.6-1.5C60.7,60.3,49.3,48.9,38,37.6c-0.1-0.1-0.2-0.2-0.3-0.3c-1.9-1.9-1.9-4.3-0.2-6.3c0.7-0.8,1.6-1.3,2.7-1.4
		c0.4,0,0.9,0,1.3,0C56.4,29.5,71.3,29.5,86.2,29.5z"/>
</g>
</svg>
