<?xml version="1.0" encoding="utf-8"?>
<!-- Generator: Adobe Illustrator 19.1.0, SVG Export Plug-In . SVG Version: 6.00 Build 0)  -->
<svg version="1.1" id="Layer_1" xmlns="http://www.w3.org/2000/svg" xmlns:xlink="http://www.w3.org/1999/xlink" x="0px" y="0px"
	 viewBox="0 0 172.5 159" style="enable-background:new 0 0 172.5 159;" xml:space="preserve">
<g>
	<path d="M123.7,76.4c4.2,0,8.3,0,12.6,0c-6.8,7.4-13.6,14.6-20.3,21.8c-0.4-0.3-19.4-20.7-20.2-21.8c0.6,0,1.2,0,1.7,0
		c0.6,0,1.2,0,1.7,0c0.6,0,1.2,0,1.7,0s1.2,0,1.7,0s1.2,0,1.7,0s1.2,0,1.7,0c0.6,0,1.1,0,1.8,0c-0.5-4.4-1.9-8.5-4.3-12.1
		c-3.6-5.5-8.4-9.3-14.6-11.4c-12.4-4.2-26,0.7-32.9,11.8c-6.9,11.1-5.3,25.6,4,34.8c9.3,9.3,24.6,11.3,36.3,3
		c3.7,3.7,7.4,7.4,11.1,11.1c-10.7,9.4-29.5,13.8-46.7,5.4c-18.2-8.9-28-29-23.5-49.1c4.4-19.4,21.5-34,42.4-34.1
		c11.5-0.1,21.5,3.8,30,11.6C118.1,55.1,122.7,64.9,123.7,76.4z"/>
</g>
</svg>
