<?xml version="1.0" encoding="utf-8"?>
<!-- Generator: Adobe Illustrator 19.1.0, SVG Export Plug-In . SVG Version: 6.00 Build 0)  -->
<svg version="1.1" id="Layer_1" xmlns="http://www.w3.org/2000/svg" xmlns:xlink="http://www.w3.org/1999/xlink" x="0px" y="0px"
	 viewBox="0 0 200 200" style="enable-background:new 0 0 200 200;" xml:space="preserve">
<style type="text/css">
	.st0{fill:#010101;}
</style>
<g>
	<g>
		<path d="M111.2,54c0-0.9,0.8-1.7,1.7-1.7s1.7,0.8,1.7,1.7c0,0.9-0.8,1.7-1.7,1.7S111.2,54.9,111.2,54L111.2,54z M123.8,54
			c0-0.9,0.8-1.7,1.7-1.7c1,0,1.7,0.8,1.7,1.7c0,0.9-0.8,1.7-1.7,1.7C124.6,55.7,123.8,54.9,123.8,54L123.8,54z M56.8,149.6h86.4
			V40.8H56.8V149.6z M125.5,49.4c2.5,0,4.6,2,4.6,4.5c0,2.5-2,4.5-4.6,4.5c-2.5,0-4.5-2-4.5-4.5C121,51.5,123,49.4,125.5,49.4
			L125.5,49.4z M112.9,49.4c2.5,0,4.5,2,4.5,4.5c0,2.5-2,4.5-4.5,4.5c-2.5,0-4.5-2-4.5-4.5C108.4,51.5,110.4,49.4,112.9,49.4
			L112.9,49.4z M65.5,65h70.1v75.6H65.5V65z"/>
		<g>
			<path d="M115.7,93.2c-0.1-0.2-0.3-0.3-0.5-0.3h-5.8l9.9-11.2c0.1-0.1,0.2-0.4,0.1-0.6c-0.1-0.2-0.3-0.3-0.5-0.3h-12
				c-0.2,0-0.3,0.1-0.4,0.2L91.9,98.6c-0.1,0.1-0.2,0.4-0.1,0.5c0.1,0.2,0.3,0.3,0.5,0.3h10.6L85.1,125c-0.2,0.2-0.1,0.5,0.1,0.7
				c0.1,0.1,0.2,0.1,0.3,0.1c0.1,0,0.3-0.1,0.4-0.2l29.7-31.9C115.8,93.6,115.8,93.4,115.7,93.2L115.7,93.2z M115.7,93.2"/>
			<g>
				<path class="st0" d="M81.1,83.3h-5l-1,3.1h-2.9L77.1,72h2.9L85,86.4h-2.9L81.1,83.3z M76.8,81h3.6l-1.8-5.6h-0.1L76.8,81z"/>
				<path class="st0" d="M97.2,81.5L97.2,81.5c0,1.6-0.4,2.8-1.4,3.7c-1,0.9-2.3,1.4-4,1.4c-1.7,0-3.1-0.6-4.2-1.7
					c-1.1-1.1-1.6-2.5-1.6-4.3v-2.8c0-1.7,0.5-3.2,1.6-4.3c1.1-1.1,2.4-1.7,4.1-1.7c1.8,0,3.2,0.5,4.2,1.4s1.5,2.1,1.5,3.7l0,0.1
					h-2.8c0-0.9-0.2-1.7-0.7-2.2S92.5,74,91.6,74c-0.9,0-1.5,0.3-2,1c-0.5,0.7-0.8,1.6-0.8,2.7v2.9c0,1.1,0.3,2,0.8,2.7
					c0.5,0.7,1.3,1,2.2,1c0.9,0,1.6-0.2,2-0.7c0.4-0.5,0.6-1.2,0.6-2.2H97.2z"/>
			</g>
			<g>
				<path class="st0" d="M102.8,132.1v-14.9h5.1c1.8,0,3.3,0.6,4.5,1.7c1.2,1.2,1.8,2.7,1.8,4.5v2.5c0,1.8-0.6,3.3-1.8,4.5
					c-1.2,1.2-2.7,1.7-4.5,1.7H102.8z M105.8,119.5v10.3h2c1.1,0,1.9-0.4,2.5-1.1c0.6-0.7,0.9-1.7,0.9-2.8v-2.5
					c0-1.2-0.3-2.1-0.9-2.8c-0.6-0.7-1.4-1.1-2.5-1.1H105.8z"/>
				<path class="st0" d="M127.8,127L127.8,127c0,1.7-0.4,2.9-1.4,3.9c-1,0.9-2.4,1.4-4.2,1.4c-1.8,0-3.2-0.6-4.4-1.7
					s-1.7-2.6-1.7-4.4v-3c0-1.8,0.5-3.3,1.6-4.4c1.1-1.2,2.5-1.7,4.3-1.7c1.8,0,3.3,0.5,4.3,1.4c1,0.9,1.5,2.2,1.5,3.9l0,0.1h-2.9
					c0-1-0.2-1.7-0.7-2.3c-0.5-0.5-1.2-0.8-2.2-0.8c-0.9,0-1.6,0.4-2.1,1.1c-0.5,0.7-0.8,1.6-0.8,2.8v3c0,1.1,0.3,2.1,0.8,2.8
					c0.6,0.7,1.3,1.1,2.2,1.1c0.9,0,1.6-0.3,2.1-0.8c0.4-0.5,0.7-1.2,0.7-2.2H127.8z"/>
			</g>
		</g>
	</g>
	<rect x="49.3" y="152.6" width="101.4" height="4.1"/>
	<rect x="49.3" y="160.1" width="101.4" height="6.1"/>
	<rect x="57.4" y="33.8" width="85.2" height="4.1"/>
</g>
</svg>
