<?xml version="1.0" encoding="utf-8"?>
<!-- Generator: Adobe Illustrator 18.1.1, SVG Export Plug-In . SVG Version: 6.00 Build 0)  -->
<svg version="1.1" baseProfile="tiny" id="Layer_1" xmlns="http://www.w3.org/2000/svg" xmlns:xlink="http://www.w3.org/1999/xlink"
	 x="0px" y="0px" viewBox="0 0 100 20" xml:space="preserve">
<g>
	<path fill="#FFFFFF" d="M11.7,8.8c-0.8,0-2,0.3-3,0.9C8.5,9.2,8.1,8.8,7.4,8.8c-0.9,0-2,0.4-3,0.9l0-0.9L2.9,9.1l-1.3,7.2h1.8
		l0.9-4.9C4.9,11,6,10.5,6.4,10.5c0.3,0,0.4,0.1,0.4,0.3c0,0,0,0.1,0,0.2l-0.9,5.2h1.8l0.9-4.9c0.7-0.4,1.7-0.9,2.2-0.9
		c0.3,0,0.4,0.1,0.4,0.3c0,0,0,0.1,0,0.2l-0.9,5.2H12l0.9-5.3c0-0.2,0.1-0.5,0.1-0.7C13,9.5,12.7,8.8,11.7,8.8z"/>
	<path fill="#FFFFFF" d="M14.3,11.8L13.9,14c0,0.3-0.1,0.5-0.1,0.8c0,1,0.4,1.7,1.7,1.7c1,0,1.8-0.4,2.4-1l0,0.8h1.5l1.2-7
		c-0.8-0.2-2.1-0.5-2.8-0.5C15.1,8.8,14.6,9.9,14.3,11.8z M18.1,13.8c-0.6,0.6-1.4,1.1-2,1.1c-0.3,0-0.5-0.1-0.5-0.4
		c0,0,0-0.1,0-0.2l0.4-2.6c0.2-1,0.4-1.4,1.6-1.4c0.4,0,0.7,0,1,0.1L18.1,13.8z"/>
	<path fill="#FFFFFF" d="M21.7,11.4l-0.4,2.5c0,0.3-0.1,0.5-0.1,0.7c0,1.2,0.6,1.8,2.2,1.8c0.9,0,1.8-0.2,2.5-0.6l-0.2-1.5
		c-0.6,0.2-1.6,0.5-2.2,0.5c-0.4,0-0.6-0.2-0.6-0.5c0-0.1,0-0.2,0-0.3l0.4-2.5c0.2-1,0.5-1.3,1.6-1.3c0.4,0,0.9,0.1,1.4,0.2l0.4-1.4
		c-0.4-0.2-1.2-0.3-1.7-0.3C23.1,8.8,22.1,9.4,21.7,11.4z"/>
	<path fill="#FFFFFF" d="M32.7,8.8c-0.8,0-1.9,0.3-2.8,0.8l0.7-3.9l-1.9,0.3l-1.8,10.3h1.8l0.9-4.9c0.7-0.4,1.7-0.9,2.2-0.9
		c0.3,0,0.4,0.1,0.4,0.3c0,0,0,0.1,0,0.2l-0.9,5.2H33L34,11c0-0.2,0.1-0.4,0.1-0.7C34,9.5,33.7,8.8,32.7,8.8z"/>
	<polygon fill="#FFFFFF" points="34.7,16.3 36.6,16.3 37.9,8.8 36,9.1 	"/>
	<polygon fill="#FFFFFF" points="36.6,5.9 36.2,8 38.1,7.7 38.4,5.7 	"/>
	<path fill="#FFFFFF" d="M44.1,8.8c-0.9,0-2,0.4-3,0.9l0-0.9l-1.6,0.3l-1.3,7.2h1.8l0.9-4.9c0.7-0.4,1.7-0.9,2.2-0.9
		c0.3,0,0.4,0.1,0.4,0.3c0,0,0,0.1,0,0.2l-0.9,5.2h1.8l0.9-5.3c0-0.2,0.1-0.4,0.1-0.7C45.5,9.5,45.1,8.8,44.1,8.8z"/>
	<path fill="#FFFFFF" d="M48.7,14.9c-0.7,0-0.6-0.4-0.6-0.8l0.1-0.3c0.3-0.1,0.5-0.1,1.4-0.4c2-0.6,2.9-1.4,2.9-2.7
		c0-1.2-0.9-1.9-2.4-1.9c-2.2,0-3,1.1-3.3,2.8l-0.4,2.2c-0.3,1.5,0.1,2.6,2.1,2.6c1.2,0,2.6-0.4,3.5-1l-0.4-1.4
		C50.5,14.6,49.4,14.9,48.7,14.9z M48.6,11.4c0.1-0.7,0.5-1.2,1.4-1.2c0.5,0,0.8,0.2,0.8,0.6c0,0.5-0.3,0.8-1.2,1.1
		c-0.7,0.2-0.8,0.3-1.1,0.3L48.6,11.4z"/>
	<path fill="#FFFFFF" d="M58.1,8.8c-1.1,0-1.9,0.4-2.5,1V8.9h-1.5l-1.9,10.6l1.9-0.3l0.5-3c0.4,0.1,0.9,0.1,1.2,0.1
		c2.9,0,3.2-1.2,3.6-3.1l0.4-2.1c0-0.3,0.1-0.5,0.1-0.8C59.8,9.5,59.4,8.8,58.1,8.8z M58,10.9l-0.5,2.6c-0.2,1-0.5,1.4-1.6,1.4
		c-0.3,0-0.7,0-1.1-0.1l0.6-3.4c0.4-0.5,1.3-1.1,2-1.1c0.3,0,0.5,0.1,0.5,0.4C58,10.7,58,10.8,58,10.9z"/>
	<path fill="#FFFFFF" d="M65.1,13.8c-0.7,0.4-1.7,0.9-2.2,0.9c-0.3,0-0.4-0.1-0.4-0.3c0,0,0-0.1,0-0.2l0.9-5.3l-1.9,0.3l-0.9,5.2
		c0,0.2-0.1,0.4-0.1,0.7c0,0.8,0.3,1.5,1.3,1.5c0.9,0,2-0.4,3-0.9l0,0.8h1.5l1.3-7.5l-1.9,0.3L65.1,13.8z"/>
	<polygon fill="#FFFFFF" points="70.1,5.9 68.3,16.3 70.1,16.3 72,5.7 	"/>
	<path fill="#FFFFFF" d="M72.6,10.7c-0.2,1.1,0,1.7,1.5,2.4c1.1,0.5,1.2,0.7,1.1,1.2c-0.1,0.5-0.3,0.6-1.1,0.6c-0.7,0-1.5-0.2-2-0.4
		L71.7,16c0.6,0.3,1.6,0.5,2.3,0.5c2.1,0,2.6-0.6,2.9-2.2c0.2-1.2-0.1-1.4-1.8-2.4c-0.8-0.4-0.9-0.5-0.8-1c0.1-0.5,0.3-0.6,1-0.6
		c0.5,0,1.3,0.1,1.9,0.3l0.3-1.4C76.9,9,76,8.8,75.3,8.8C73.4,8.8,72.8,9.2,72.6,10.7z"/>
	<path fill="#FFFFFF" d="M79.8,13.8c0.3-0.1,0.5-0.1,1.4-0.4c2-0.6,2.9-1.4,2.9-2.7c0-1.2-0.9-1.9-2.3-1.9c-2.2,0-3,1.1-3.3,2.8
		L78,13.8c-0.3,1.5,0.1,2.6,2.1,2.6c1.2,0,2.6-0.4,3.5-1l-0.4-1.4c-0.9,0.5-2,0.8-2.8,0.8c-0.7,0-0.6-0.4-0.6-0.8L79.8,13.8z
		 M80.2,11.4c0.1-0.7,0.5-1.2,1.4-1.2c0.5,0,0.8,0.2,0.8,0.6c0,0.5-0.3,0.8-1.2,1.1c-0.7,0.2-0.8,0.3-1.1,0.3L80.2,11.4z"/>
	<path fill="#FFFFFF" d="M98.3,0.9c-0.2-0.3-0.6-0.3-0.8-0.1l-8.2,6l3.4-5.4c0.2-0.3,0.1-0.6-0.2-0.8c-0.3-0.2-0.6-0.1-0.8,0.2
		L88,6.6L88.4,3c0-0.3-0.2-0.6-0.5-0.6c-0.3,0-0.6,0.2-0.6,0.5L86.5,9c0,0,0,0,0,0l0,0c0,0,0,0,0,0c0,0,0,0,0,0c0,0,0,0,0,0
		c0,0,0,0,0,0c0,0,0,0,0,0c0,0,0,0,0,0c0,0,0,0,0,0c0,0,0,0,0,0c0,0,0,0,0,0c0,0,0,0,0,0c0,0,0,0,0,0c0,0,0,0,0,0c0,0,0,0,0,0
		c0,0,0,0,0,0c0,0,0,0,0,0c0,0,0,0,0,0c0,0,0,0,0,0c0,0,0,0,0,0c0,0,0,0,0,0c0,0,0,0,0,0c0,0,0,0,0,0c0,0,0,0,0,0c0,0,0,0,0,0
		c0,0,0,0,0,0c0,0,0,0,0,0c0,0,0,0,0,0c0,0,0,0,0,0c0,0,0,0,0,0c0,0,0,0,0,0c0,0,0,0,0,0c0,0,0,0,0,0c0,0,0,0,0,0c0,0,0,0,0,0
		c0,0,0,0,0,0c0,0,0,0,0,0c0,0,0,0,0,0c0,0,0,0,0,0c0,0,0,0,0,0c0,0,0,0,0,0c0,0,0,0,0,0l6.1,3.7c0.1,0.1,0.2,0.1,0.3,0.1
		c0.2,0,0.4-0.1,0.5-0.3c0.2-0.3,0.1-0.6-0.2-0.8l-3.3-2l6.5,1.2c0,0,0.1,0,0.1,0c0.3,0,0.5-0.2,0.6-0.5c0.1-0.3-0.2-0.6-0.5-0.7
		l-6.7-1.3l5.7-1.2c0.3-0.1,0.5-0.4,0.5-0.7c-0.1-0.3-0.4-0.5-0.7-0.5l-6,1.2l8.5-6.3C98.4,1.5,98.5,1.2,98.3,0.9z"/>
</g>
</svg>
