<?xml version="1.0" encoding="utf-8"?>
<!-- Generator: Adobe Illustrator 18.1.1, SVG Export Plug-In . SVG Version: 6.00 Build 0)  -->
<svg version="1.1" id="Layer_1" xmlns="http://www.w3.org/2000/svg" xmlns:xlink="http://www.w3.org/1999/xlink" x="0px" y="0px"
	 viewBox="0 0 20 20" enable-background="new 0 0 20 20" xml:space="preserve">
<g>
	<polygon fill="#28A5DE" points="1.1,19.9 12.5,19.9 6.8,14.2 	"/>
	<g>
		<defs>
			<rect id="SVGID_1_" x="0.1" y="0.1" width="19.8" height="19.8"/>
		</defs>
		<clipPath id="SVGID_2_">
			<use xlink:href="#SVGID_1_"  overflow="visible"/>
		</clipPath>
		<path clip-path="url(#SVGID_2_)" fill="#28A5DE" d="M17.2,18.7c-0.6,0.2-1.2,0.4-1.8,0.4l0.8,0.8h3.8l-1.7-1.7
			C17.8,18.3,17.5,18.5,17.2,18.7 M0.1,0.1v3.8l9.7,9.7c0-0.8,0.3-1.6,0.6-2.3c0.1-0.2,0.2-0.3,0.3-0.5L0.1,0.1z"/>
		<path clip-path="url(#SVGID_2_)" fill="#28A5DE" d="M18.3,13.8c0,1.8-1.4,3.2-3.2,3.2c-1.8,0-3.2-1.4-3.2-3.2
			c0-1.1,0.6-2.1,1.5-2.7V2.8c0-1,0.8-1.7,1.7-1.7s1.7,0.8,1.7,1.7v0.1h-1.5c-0.2,0-0.4,0.2-0.4,0.4c0,0.2,0.2,0.4,0.4,0.4h1.5v0.9
			h-1.5c-0.2,0-0.4,0.2-0.4,0.4c0,0.2,0.2,0.4,0.4,0.4h1.5v5.6C17.7,11.7,18.3,12.7,18.3,13.8 M17.5,1.8c-0.1-0.3-0.3-0.6-0.6-0.8
			c-0.2-0.2-0.5-0.4-0.8-0.6c-0.3-0.1-0.7-0.2-1-0.2c-0.4,0-0.7,0.1-1,0.2c-0.3,0.1-0.6,0.3-0.8,0.6c-0.2,0.2-0.4,0.5-0.6,0.8
			c-0.1,0.3-0.2,0.7-0.2,1v7.9c-0.4,0.3-0.7,0.7-0.9,1.1c-0.3,0.6-0.5,1.3-0.5,2c0,0.5,0.1,1.1,0.3,1.6c0.2,0.5,0.5,0.9,0.9,1.3
			c0.4,0.4,0.8,0.7,1.3,0.9c0.5,0.2,1,0.3,1.6,0.3c0.5,0,1.1-0.1,1.6-0.3c0.5-0.2,0.9-0.5,1.3-0.9c0.4-0.4,0.7-0.8,0.9-1.3
			c0.2-0.5,0.3-1,0.3-1.6c0-0.7-0.2-1.4-0.5-2c-0.2-0.4-0.6-0.8-0.9-1.1V2.8C17.7,2.4,17.7,2.1,17.5,1.8"/>
		<path clip-path="url(#SVGID_2_)" fill="#28A5DE" d="M15.1,6.8c-0.4,0-0.7,0.3-0.7,0.7v4.1L13.9,12c-0.6,0.4-1,1.1-1,1.8
			c0,0.6,0.2,1.1,0.6,1.6c0.4,0.4,1,0.6,1.6,0.6c0.6,0,1.1-0.2,1.6-0.6c0.4-0.4,0.6-1,0.6-1.6c0-0.7-0.4-1.4-1-1.8l-0.5-0.3V7.6
			C15.9,7.1,15.5,6.8,15.1,6.8"/>
	</g>
</g>
</svg>
