<?xml version="1.0" encoding="utf-8"?>
<!-- Generator: Adobe Illustrator 19.1.1, SVG Export Plug-In . SVG Version: 6.00 Build 0)  -->
<svg version="1.1" id="Layer_1" xmlns="http://www.w3.org/2000/svg" xmlns:xlink="http://www.w3.org/1999/xlink" x="0px" y="0px"
	 viewBox="0 0 3272 2805" style="enable-background:new 0 0 3272 2805;" xml:space="preserve">
<style type="text/css">
	.st0{fill:#8EEE77;}
	.st1{fill:#F81213;}
	.st2{fill:#C270F5;}
	.st3{fill:#BABABA;}
	.st4{fill:#FFBA5F;}
</style>
<g>
	<path class="st0" d="M1658.2,2534.1c0-23.3,0-46.1,0-69.9c240.7,0,481.1,0,722.5,0c0,22.8,0,45.9,0,69.9
		C2140.2,2534.1,1899.5,2534.1,1658.2,2534.1z"/>
	<path class="st0" d="M890.1,2629.1c0-21.7-0.2-42.7,0.3-63.6c0-2.1,3.6-5.1,6.2-5.9c3.1-1,6.8-0.3,10.3-0.3c229.5,0,459,0,688.5,0
		c4.9,0,9.8,0,15.6,0c0,23.9,0,46.6,0,69.9C1371,2629.1,1131.6,2629.1,890.1,2629.1z"/>
	<path class="st0" d="M1610.6,2369.3c0,23.1,0,45.5,0,68.8c-240,0-479.6,0-720.2,0c0-22.8,0-45.4,0-68.8
		C1130.7,2369.3,1370.3,2369.3,1610.6,2369.3z"/>
	<path class="st0" d="M1610.6,2533.3c-240.5,0-480,0-720.3,0c0-23,0-45.4,0-68.8c240,0,479.7,0,720.3,0
		C1610.6,2487.3,1610.6,2509.7,1610.6,2533.3z"/>
	<path class="st0" d="M120.5,176.6c241.9,0,482.1,0,723.5,0c0.4,3.1,1.2,6.3,1.2,9.5c0.1,16.5-0.4,33,0.2,49.4
		c0.3,9.2-3.3,12.6-12,11.6c-1.5-0.2-3.1,0-4.6,0c-230.3,0-460.6,0-690.9,0c-17.4,0-17.4,0-17.4-17.5
		C120.5,212.1,120.5,194.6,120.5,176.6z"/>
	<path class="st0" d="M121,342.2c0-23.9,0-46.6,0-70.6c4.9,0,9,0,13.1,0c232.3,0,464.6,0.1,696.9-0.2c11.1,0,14.7,2.9,14,14
		c-0.9,15.3-0.6,30.7-0.1,46c0.3,8.7-3,11-11.4,11c-49.1-0.3-98.1-0.2-147.2-0.2c-182.8,0-365.7,0-548.5,0
		C132.5,342.2,127.2,342.2,121,342.2z"/>
	<path class="st0" d="M844.5,367.3c0,23.1,0,45.5,0,68.9c-241,0-481.5,0-722.9,0c0-22.8,0-45.5,0-68.9
		C362.4,367.3,602.6,367.3,844.5,367.3z"/>
	<path class="st0" d="M121.1,461.6c241.2,0,481.4,0,723.8,0c0,16.2,0.1,32.1,0,48.1c-0.3,25.7,3.2,22-21.8,22
		c-228.5,0.1-456.9,0.1-685.4,0.1c-5.3,0-10.5,0-16.6,0C121.1,507.6,121.1,484.9,121.1,461.6z"/>
	<path class="st0" d="M3151.2,246.3c-5.3,0-9.8,0-14.3,0c-230.7,0-461.5,0-692.2,0c-15.1,0-15.1,0-15.2-15c0-15.3,0.2-30.7,0-46
		c-0.1-6.7,2.2-10.2,9.3-9.2c0.8,0.1,1.5,0,2.3,0c233.4,0,466.8,0,700.3,0c3,0,6,0.3,9.8,0.5
		C3151.2,199.4,3151.2,221.8,3151.2,246.3z"/>
	<path class="st0" d="M3151.5,270.9c0,23.8,0,46.3,0,69.7c-4.6,0.2-8.6,0.5-12.7,0.5c-231.5,0-463-0.1-694.5,0.3
		c-11.7,0-15.6-3-14.8-14.7c0.9-14.5,0.7-29.1,0.1-43.7c-0.4-9.4,2.6-12.5,12.3-12.4c47.5,0.5,95.1,0.2,142.6,0.2
		c184.4,0,368.7,0,553.1,0C3141.6,270.9,3145.8,270.9,3151.5,270.9z"/>
	<path class="st0" d="M3151.4,366.1c0,23.9,0,46.4,0,70.3c-5.1,0-9.6,0-14,0c-230.7,0-461.5,0-692.2,0c-15.6,0-15.6,0-15.6-15.7
		c0-14.2,0.5-28.4-0.2-42.5c-0.4-9.6,3-12.3,12.5-12.2c65.9,0.4,131.8,0.2,197.8,0.2c166,0,331.9,0,497.9,0
		C3141.7,366.1,3145.9,366.1,3151.4,366.1z"/>
	<path class="st0" d="M3151.4,461.1c0,23.8,0,46.3,0,70.2c-4.6,0-8.6,0-12.7,0c-231.9,0-463.8-0.1-695.6,0.2
		c-10.5,0-14.2-2.8-13.7-13.4c0.8-15.3,0.5-30.7,0.1-46c-0.2-8.3,2.3-11.4,11.1-11.3c33.7,0.5,67.5,0.2,101.2,0.2
		c197.8,0,395.5,0,593.3,0C3140,461.1,3145,461.1,3151.4,461.1z"/>
	<path class="st0" d="M888,176.6c241.9,0,482.1,0,723.5,0c0.4,3.1,1.2,6.3,1.2,9.5c0.1,16.5-0.4,33,0.2,49.4
		c0.3,9.2-3.3,12.6-12,11.6c-1.5-0.2-3.1,0-4.6,0c-230.3,0-460.6,0-690.9,0c-17.4,0-17.4,0-17.4-17.5C888,212.1,888,194.6,888,176.6
		z"/>
	<path class="st0" d="M888.5,342.2c0-23.9,0-46.6,0-70.6c4.9,0,9,0,13.1,0c232.3,0,464.6,0.1,696.9-0.2c11.1,0,14.7,2.9,14,14
		c-0.9,15.3-0.6,30.7-0.1,46c0.3,8.7-3,11-11.4,11c-49.1-0.3-98.1-0.2-147.2-0.2c-182.8,0-365.7,0-548.5,0
		C900,342.2,894.7,342.2,888.5,342.2z"/>
	<path class="st0" d="M1612,367.3c0,23.1,0,45.5,0,68.9c-241,0-481.5,0-722.9,0c0-22.8,0-45.5,0-68.9
		C1129.9,367.3,1370.1,367.3,1612,367.3z"/>
	<path class="st0" d="M888.6,461.6c241.2,0,481.4,0,723.8,0c0,16.2,0.1,32.1,0,48.1c-0.3,25.7,3.2,22-21.8,22
		c-228.5,0.1-456.9,0.1-685.4,0.1c-5.3,0-10.5,0-16.6,0C888.6,507.6,888.6,484.9,888.6,461.6z"/>
	<path class="st0" d="M1656.9,176.6c241.9,0,482.1,0,723.5,0c0.4,3.1,1.2,6.3,1.2,9.5c0.1,16.5-0.4,33,0.2,49.4
		c0.3,9.2-3.3,12.6-12,11.6c-1.5-0.2-3.1,0-4.6,0c-230.3,0-460.6,0-690.9,0c-17.4,0-17.4,0-17.4-17.5
		C1656.9,212.1,1656.9,194.6,1656.9,176.6z"/>
	<path class="st0" d="M1657.4,342.2c0-23.9,0-46.6,0-70.6c4.9,0,9,0,13.1,0c232.3,0,464.6,0.1,696.9-0.2c11.1,0,14.7,2.9,14,14
		c-0.9,15.3-0.6,30.7-0.1,46c0.3,8.7-3,11-11.4,11c-49.1-0.3-98.1-0.2-147.2-0.2c-182.8,0-365.7,0-548.5,0
		C1668.9,342.2,1663.6,342.2,1657.4,342.2z"/>
	<path class="st0" d="M2380.9,367.3c0,23.1,0,45.5,0,68.9c-241,0-481.5,0-722.9,0c0-22.8,0-45.5,0-68.9
		C1898.8,367.3,2139,367.3,2380.9,367.3z"/>
	<path class="st0" d="M1657.5,461.6c241.2,0,481.4,0,723.8,0c0,16.2,0.1,32.1,0,48.1c-0.3,25.7,3.2,22-21.8,22
		c-228.5,0.1-456.9,0.1-685.4,0.1c-5.3,0-10.5,0-16.6,0C1657.5,507.6,1657.5,484.9,1657.5,461.6z"/>
	<path class="st1" d="M120.5,596.3c241.9,0,482.1,0,723.5,0c0.4,3.1,1.2,6.3,1.2,9.5c0.1,16.5-0.4,33,0.2,49.4
		c0.3,9.2-3.3,12.6-12,11.6c-1.5-0.2-3.1,0-4.6,0c-230.3,0-460.6,0-690.9,0c-17.4,0-17.4,0-17.4-17.5
		C120.5,631.9,120.5,614.3,120.5,596.3z"/>
	<path class="st0" d="M121,762c0-23.9,0-46.6,0-70.6c4.9,0,9,0,13.1,0c232.3,0,464.6,0.1,696.9-0.2c11.1,0,14.7,2.9,14,14
		c-0.9,15.3-0.6,30.7-0.1,46c0.3,8.7-3,11-11.4,11c-49.1-0.3-98.1-0.2-147.2-0.2c-182.8,0-365.7,0-548.5,0
		C132.5,762,127.2,762,121,762z"/>
	<path class="st0" d="M844.5,787.1c0,23.1,0,45.5,0,68.9c-241,0-481.5,0-722.9,0c0-22.8,0-45.5,0-68.9
		C362.4,787.1,602.6,787.1,844.5,787.1z"/>
	<path class="st0" d="M121.1,881.4c241.2,0,481.4,0,723.8,0c0,16.2,0.1,32.1,0,48.1c-0.3,25.7,3.2,22-21.8,22
		c-228.5,0.1-456.9,0.1-685.4,0.1c-5.3,0-10.5,0-16.6,0C121.1,927.4,121.1,904.6,121.1,881.4z"/>
	<path class="st1" d="M3151.2,666c-5.3,0-9.8,0-14.3,0c-230.7,0-461.5,0-692.2,0c-15.1,0-15.1,0-15.2-15c0-15.3,0.2-30.7,0-46
		c-0.1-6.7,2.2-10.2,9.3-9.2c0.8,0.1,1.5,0,2.3,0c233.4,0,466.8,0,700.3,0c3,0,6,0.3,9.8,0.5C3151.2,619.1,3151.2,641.5,3151.2,666z
		"/>
	<path class="st1" d="M3151.5,690.7c0,23.8,0,46.3,0,69.7c-4.6,0.2-8.6,0.5-12.7,0.5c-231.5,0-463-0.1-694.5,0.3
		c-11.7,0-15.6-3-14.8-14.7c0.9-14.5,0.7-29.1,0.1-43.7c-0.4-9.4,2.6-12.5,12.3-12.4c47.5,0.5,95.1,0.2,142.6,0.2
		c184.4,0,368.7,0,553.1,0C3141.6,690.7,3145.8,690.7,3151.5,690.7z"/>
	<path class="st0" d="M3151.4,785.9c0,23.9,0,46.4,0,70.3c-5.1,0-9.6,0-14,0c-230.7,0-461.5,0-692.2,0c-15.6,0-15.6,0-15.6-15.7
		c0-14.2,0.5-28.4-0.2-42.5c-0.4-9.6,3-12.3,12.5-12.2c65.9,0.4,131.8,0.2,197.8,0.2c166,0,331.9,0,497.9,0
		C3141.7,785.9,3145.9,785.9,3151.4,785.9z"/>
	<path class="st0" d="M3151.4,880.9c0,23.8,0,46.3,0,70.2c-4.6,0-8.6,0-12.7,0c-231.9,0-463.8-0.1-695.6,0.2
		c-10.5,0-14.2-2.8-13.7-13.4c0.8-15.3,0.5-30.7,0.1-46c-0.2-8.3,2.3-11.4,11.1-11.3c33.7,0.5,67.5,0.2,101.2,0.2
		c197.8,0,395.5,0,593.3,0C3140,880.9,3145,880.9,3151.4,880.9z"/>
	<path class="st0" d="M888,596.3c241.9,0,482.1,0,723.5,0c0.4,3.1,1.2,6.3,1.2,9.5c0.1,16.5-0.4,33,0.2,49.4
		c0.3,9.2-3.3,12.6-12,11.6c-1.5-0.2-3.1,0-4.6,0c-230.3,0-460.6,0-690.9,0c-17.4,0-17.4,0-17.4-17.5C888,631.9,888,614.3,888,596.3
		z"/>
	<path class="st1" d="M888.5,762c0-23.9,0-46.6,0-70.6c4.9,0,9,0,13.1,0c232.3,0,464.6,0.1,696.9-0.2c11.1,0,14.7,2.9,14,14
		c-0.9,15.3-0.6,30.7-0.1,46c0.3,8.7-3,11-11.4,11c-49.1-0.3-98.1-0.2-147.2-0.2c-182.8,0-365.7,0-548.5,0
		C900,762,894.7,762,888.5,762z"/>
	<path class="st0" d="M1612,787.1c0,23.1,0,45.5,0,68.9c-241,0-481.5,0-722.9,0c0-22.8,0-45.5,0-68.9
		C1129.9,787.1,1370.1,787.1,1612,787.1z"/>
	<path class="st0" d="M888.6,881.4c241.2,0,481.4,0,723.8,0c0,16.2,0.1,32.1,0,48.1c-0.3,25.7,3.2,22-21.8,22
		c-228.5,0.1-456.9,0.1-685.4,0.1c-5.3,0-10.5,0-16.6,0C888.6,927.4,888.6,904.6,888.6,881.4z"/>
	<path class="st1" d="M1656.9,596.3c241.9,0,482.1,0,723.5,0c0.4,3.1,1.2,6.3,1.2,9.5c0.1,16.5-0.4,33,0.2,49.4
		c0.3,9.2-3.3,12.6-12,11.6c-1.5-0.2-3.1,0-4.6,0c-230.3,0-460.6,0-690.9,0c-17.4,0-17.4,0-17.4-17.5
		C1656.9,631.9,1656.9,614.3,1656.9,596.3z"/>
	<path class="st1" d="M1657.4,762c0-23.9,0-46.6,0-70.6c4.9,0,9,0,13.1,0c232.3,0,464.6,0.1,696.9-0.2c11.1,0,14.7,2.9,14,14
		c-0.9,15.3-0.6,30.7-0.1,46c0.3,8.7-3,11-11.4,11c-49.1-0.3-98.1-0.2-147.2-0.2c-182.8,0-365.7,0-548.5,0
		C1668.9,762,1663.6,762,1657.4,762z"/>
	<path class="st0" d="M2380.9,787.1c0,23.1,0,45.5,0,68.9c-241,0-481.5,0-722.9,0c0-22.8,0-45.5,0-68.9
		C1898.8,787.1,2139,787.1,2380.9,787.1z"/>
	<path class="st0" d="M1657.5,881.4c241.2,0,481.4,0,723.8,0c0,16.2,0.1,32.1,0,48.1c-0.3,25.7,3.2,22-21.8,22
		c-228.5,0.1-456.9,0.1-685.4,0.1c-5.3,0-10.5,0-16.6,0C1657.5,927.4,1657.5,904.6,1657.5,881.4z"/>
	<path class="st0" d="M120.5,1016.1c241.9,0,482.1,0,723.5,0c0.4,3.1,1.2,6.3,1.2,9.5c0.1,16.5-0.4,33,0.2,49.4
		c0.3,9.2-3.3,12.6-12,11.6c-1.5-0.2-3.1,0-4.6,0c-230.3,0-460.6,0-690.9,0c-17.4,0-17.4,0-17.4-17.5
		C120.5,1051.6,120.5,1034.1,120.5,1016.1z"/>
	<path class="st1" d="M121,1181.7c0-23.9,0-46.6,0-70.6c4.9,0,9,0,13.1,0c232.3,0,464.6,0.1,696.9-0.2c11.1,0,14.7,2.9,14,14
		c-0.9,15.3-0.6,30.7-0.1,46c0.3,8.7-3,11-11.4,11c-49.1-0.3-98.1-0.2-147.2-0.2c-182.8,0-365.7,0-548.5,0
		C132.5,1181.7,127.2,1181.7,121,1181.7z"/>
	<path class="st1" d="M844.5,1206.8c0,23.1,0,45.5,0,68.9c-241,0-481.5,0-722.9,0c0-22.8,0-45.5,0-68.9
		C362.4,1206.8,602.6,1206.8,844.5,1206.8z"/>
	<path class="st0" d="M121.1,1301.1c241.2,0,481.4,0,723.8,0c0,16.2,0.1,32.1,0,48.1c-0.3,25.7,3.2,22-21.8,22
		c-228.5,0.1-456.9,0.1-685.4,0.1c-5.3,0-10.5,0-16.6,0C121.1,1347.1,121.1,1324.4,121.1,1301.1z"/>
	<path class="st0" d="M3151.2,1085.8c-5.3,0-9.8,0-14.3,0c-230.7,0-461.5,0-692.2,0c-15.1,0-15.1,0-15.2-15c0-15.3,0.2-30.7,0-46
		c-0.1-6.7,2.2-10.2,9.3-9.2c0.8,0.1,1.5,0,2.3,0c233.4,0,466.8,0,700.3,0c3,0,6,0.3,9.8,0.5
		C3151.2,1038.9,3151.2,1061.3,3151.2,1085.8z"/>
	<path class="st0" d="M3151.5,1110.4c0,23.8,0,46.3,0,69.7c-4.6,0.2-8.6,0.5-12.7,0.5c-231.5,0-463-0.1-694.5,0.3
		c-11.7,0-15.6-3-14.8-14.7c0.9-14.5,0.7-29.1,0.1-43.7c-0.4-9.4,2.6-12.5,12.3-12.4c47.5,0.5,95.1,0.2,142.6,0.2
		c184.4,0,368.7,0,553.1,0C3141.6,1110.4,3145.8,1110.4,3151.5,1110.4z"/>
	<path class="st0" d="M3151.4,1205.6c0,23.9,0,46.4,0,70.3c-5.1,0-9.6,0-14,0c-230.7,0-461.5,0-692.2,0c-15.6,0-15.6,0-15.6-15.7
		c0-14.2,0.5-28.4-0.2-42.5c-0.4-9.6,3-12.3,12.5-12.2c65.9,0.4,131.8,0.2,197.8,0.2c166,0,331.9,0,497.9,0
		C3141.7,1205.6,3145.9,1205.6,3151.4,1205.6z"/>
	<path class="st0" d="M3151.4,1300.6c0,23.8,0,46.3,0,70.2c-4.6,0-8.6,0-12.7,0c-231.9,0-463.8-0.1-695.6,0.2
		c-10.5,0-14.2-2.8-13.7-13.4c0.8-15.3,0.5-30.7,0.1-46c-0.2-8.3,2.3-11.4,11.1-11.3c33.7,0.5,67.5,0.2,101.2,0.2
		c197.8,0,395.5,0,593.3,0C3140,1300.6,3145,1300.6,3151.4,1300.6z"/>
	<path class="st0" d="M888,1016.1c241.9,0,482.1,0,723.5,0c0.4,3.1,1.2,6.3,1.2,9.5c0.1,16.5-0.4,33,0.2,49.4
		c0.3,9.2-3.3,12.6-12,11.6c-1.5-0.2-3.1,0-4.6,0c-230.3,0-460.6,0-690.9,0c-17.4,0-17.4,0-17.4-17.5
		C888,1051.6,888,1034.1,888,1016.1z"/>
	<path class="st0" d="M888.5,1181.7c0-23.9,0-46.6,0-70.6c4.9,0,9,0,13.1,0c232.3,0,464.6,0.1,696.9-0.2c11.1,0,14.7,2.9,14,14
		c-0.9,15.3-0.6,30.7-0.1,46c0.3,8.7-3,11-11.4,11c-49.1-0.3-98.1-0.2-147.2-0.2c-182.8,0-365.7,0-548.5,0
		C900,1181.7,894.7,1181.7,888.5,1181.7z"/>
	<path class="st0" d="M1612,1206.8c0,23.1,0,45.5,0,68.9c-241,0-481.5,0-722.9,0c0-22.8,0-45.5,0-68.9
		C1129.9,1206.8,1370.1,1206.8,1612,1206.8z"/>
	<path class="st0" d="M888.6,1301.1c241.2,0,481.4,0,723.8,0c0,16.2,0.1,32.1,0,48.1c-0.3,25.7,3.2,22-21.8,22
		c-228.5,0.1-456.9,0.1-685.4,0.1c-5.3,0-10.5,0-16.6,0C888.6,1347.1,888.6,1324.4,888.6,1301.1z"/>
	<path class="st0" d="M1656.9,1016.1c241.9,0,482.1,0,723.5,0c0.4,3.1,1.2,6.3,1.2,9.5c0.1,16.5-0.4,33,0.2,49.4
		c0.3,9.2-3.3,12.6-12,11.6c-1.5-0.2-3.1,0-4.6,0c-230.3,0-460.6,0-690.9,0c-17.4,0-17.4,0-17.4-17.5
		C1656.9,1051.6,1656.9,1034.1,1656.9,1016.1z"/>
	<path class="st0" d="M1657.4,1181.7c0-23.9,0-46.6,0-70.6c4.9,0,9,0,13.1,0c232.3,0,464.6,0.1,696.9-0.2c11.1,0,14.7,2.9,14,14
		c-0.9,15.3-0.6,30.7-0.1,46c0.3,8.7-3,11-11.4,11c-49.1-0.3-98.1-0.2-147.2-0.2c-182.8,0-365.7,0-548.5,0
		C1668.9,1181.7,1663.6,1181.7,1657.4,1181.7z"/>
	<path class="st0" d="M2380.9,1206.8c0,23.1,0,45.5,0,68.9c-241,0-481.5,0-722.9,0c0-22.8,0-45.5,0-68.9
		C1898.8,1206.8,2139,1206.8,2380.9,1206.8z"/>
	<path class="st0" d="M1657.5,1301.1c241.2,0,481.4,0,723.8,0c0,16.2,0.1,32.1,0,48.1c-0.3,25.7,3.2,22-21.8,22
		c-228.5,0.1-456.9,0.1-685.4,0.1c-5.3,0-10.5,0-16.6,0C1657.5,1347.1,1657.5,1324.4,1657.5,1301.1z"/>
	<path class="st0" d="M120.5,1435.8c241.9,0,482.1,0,723.5,0c0.4,3.1,1.2,6.3,1.2,9.5c0.1,16.5-0.4,33,0.2,49.4
		c0.3,9.2-3.3,12.6-12,11.6c-1.5-0.2-3.1,0-4.6,0c-230.3,0-460.6,0-690.9,0c-17.4,0-17.4,0-17.4-17.5
		C120.5,1471.4,120.5,1453.8,120.5,1435.8z"/>
	<path class="st0" d="M121,1601.5c0-23.9,0-46.6,0-70.6c4.9,0,9,0,13.1,0c232.3,0,464.6,0.1,696.9-0.2c11.1,0,14.7,2.9,14,14
		c-0.9,15.3-0.6,30.7-0.1,46c0.3,8.7-3,11-11.4,11c-49.1-0.3-98.1-0.2-147.2-0.2c-182.8,0-365.7,0-548.5,0
		C132.5,1601.5,127.2,1601.5,121,1601.5z"/>
	<path class="st2" d="M844.5,1626.6c0,23.1,0,45.5,0,68.9c-241,0-481.5,0-722.9,0c0-22.8,0-45.5,0-68.9
		C362.4,1626.6,602.6,1626.6,844.5,1626.6z"/>
	<path class="st0" d="M121.1,1720.9c241.2,0,481.4,0,723.8,0c0,16.2,0.1,32.1,0,48.1c-0.3,25.7,3.2,22-21.8,22
		c-228.5,0.1-456.9,0.1-685.4,0.1c-5.3,0-10.5,0-16.6,0C121.1,1766.9,121.1,1744.1,121.1,1720.9z"/>
	<path class="st0" d="M3151.2,1505.5c-5.3,0-9.8,0-14.3,0c-230.7,0-461.5,0-692.2,0c-15.1,0-15.1,0-15.2-15c0-15.3,0.2-30.7,0-46
		c-0.1-6.7,2.2-10.2,9.3-9.2c0.8,0.1,1.5,0,2.3,0c233.4,0,466.8,0,700.3,0c3,0,6,0.3,9.8,0.5
		C3151.2,1458.6,3151.2,1481,3151.2,1505.5z"/>
	<path class="st0" d="M3151.5,1530.2c0,23.8,0,46.3,0,69.7c-4.6,0.2-8.6,0.5-12.7,0.5c-231.5,0-463-0.1-694.5,0.3
		c-11.7,0-15.6-3-14.8-14.7c0.9-14.5,0.7-29.1,0.1-43.7c-0.4-9.4,2.6-12.5,12.3-12.4c47.5,0.5,95.1,0.2,142.6,0.2
		c184.4,0,368.7,0,553.1,0C3141.6,1530.2,3145.8,1530.2,3151.5,1530.2z"/>
	<path class="st0" d="M3151.4,1625.4c0,23.9,0,46.4,0,70.3c-5.1,0-9.6,0-14,0c-230.7,0-461.5,0-692.2,0c-15.6,0-15.6,0-15.6-15.7
		c0-14.2,0.5-28.4-0.2-42.5c-0.4-9.6,3-12.3,12.5-12.2c65.9,0.4,131.8,0.2,197.8,0.2c166,0,331.9,0,497.9,0
		C3141.7,1625.4,3145.9,1625.4,3151.4,1625.4z"/>
	<path class="st0" d="M3151.4,1720.4c0,23.8,0,46.3,0,70.2c-4.6,0-8.6,0-12.7,0c-231.9,0-463.8-0.1-695.6,0.2
		c-10.5,0-14.2-2.8-13.7-13.4c0.8-15.3,0.5-30.7,0.1-46c-0.2-8.3,2.3-11.4,11.1-11.3c33.7,0.5,67.5,0.2,101.2,0.2
		c197.8,0,395.5,0,593.3,0C3140,1720.4,3145,1720.4,3151.4,1720.4z"/>
	<path class="st0" d="M888,1435.8c241.9,0,482.1,0,723.5,0c0.4,3.1,1.2,6.3,1.2,9.5c0.1,16.5-0.4,33,0.2,49.4
		c0.3,9.2-3.3,12.6-12,11.6c-1.5-0.2-3.1,0-4.6,0c-230.3,0-460.6,0-690.9,0c-17.4,0-17.4,0-17.4-17.5
		C888,1471.4,888,1453.8,888,1435.8z"/>
	<path class="st0" d="M888.5,1601.5c0-23.9,0-46.6,0-70.6c4.9,0,9,0,13.1,0c232.3,0,464.6,0.1,696.9-0.2c11.1,0,14.7,2.9,14,14
		c-0.9,15.3-0.6,30.7-0.1,46c0.3,8.7-3,11-11.4,11c-49.1-0.3-98.1-0.2-147.2-0.2c-182.8,0-365.7,0-548.5,0
		C900,1601.5,894.7,1601.5,888.5,1601.5z"/>
	<path class="st0" d="M1612,1626.6c0,23.1,0,45.5,0,68.9c-241,0-481.5,0-722.9,0c0-22.8,0-45.5,0-68.9
		C1129.9,1626.6,1370.1,1626.6,1612,1626.6z"/>
	<path class="st0" d="M888.6,1720.9c241.2,0,481.4,0,723.8,0c0,16.2,0.1,32.1,0,48.1c-0.3,25.7,3.2,22-21.8,22
		c-228.5,0.1-456.9,0.1-685.4,0.1c-5.3,0-10.5,0-16.6,0C888.6,1766.9,888.6,1744.1,888.6,1720.9z"/>
	<path class="st0" d="M1656.9,1435.8c241.9,0,482.1,0,723.5,0c0.4,3.1,1.2,6.3,1.2,9.5c0.1,16.5-0.4,33,0.2,49.4
		c0.3,9.2-3.3,12.6-12,11.6c-1.5-0.2-3.1,0-4.6,0c-230.3,0-460.6,0-690.9,0c-17.4,0-17.4,0-17.4-17.5
		C1656.9,1471.4,1656.9,1453.8,1656.9,1435.8z"/>
	<path class="st2" d="M1657.4,1601.5c0-23.9,0-46.6,0-70.6c4.9,0,9,0,13.1,0c232.3,0,464.6,0.1,696.9-0.2c11.1,0,14.7,2.9,14,14
		c-0.9,15.3-0.6,30.7-0.1,46c0.3,8.7-3,11-11.4,11c-49.1-0.3-98.1-0.2-147.2-0.2c-182.8,0-365.7,0-548.5,0
		C1668.9,1601.5,1663.6,1601.5,1657.4,1601.5z"/>
	<path class="st0" d="M2380.9,1626.6c0,23.1,0,45.5,0,68.9c-241,0-481.5,0-722.9,0c0-22.8,0-45.5,0-68.9
		C1898.8,1626.6,2139,1626.6,2380.9,1626.6z"/>
	<path class="st0" d="M1657.5,1720.9c241.2,0,481.4,0,723.8,0c0,16.2,0.1,32.1,0,48.1c-0.3,25.7,3.2,22-21.8,22
		c-228.5,0.1-456.9,0.1-685.4,0.1c-5.3,0-10.5,0-16.6,0C1657.5,1766.9,1657.5,1744.1,1657.5,1720.9z"/>
	<path class="st0" d="M120.5,1855.6c241.9,0,482.1,0,723.5,0c0.4,3.1,1.2,6.3,1.2,9.5c0.1,16.5-0.4,33,0.2,49.4
		c0.3,9.2-3.3,12.6-12,11.6c-1.5-0.2-3.1,0-4.6,0c-230.3,0-460.6,0-690.9,0c-17.4,0-17.4,0-17.4-17.5
		C120.5,1891.1,120.5,1873.6,120.5,1855.6z"/>
	<path class="st0" d="M121,2021.2c0-23.9,0-46.6,0-70.6c4.9,0,9,0,13.1,0c232.3,0,464.6,0.1,696.9-0.2c11.1,0,14.7,2.9,14,14
		c-0.9,15.3-0.6,30.7-0.1,46c0.3,8.7-3,11-11.4,11c-49.1-0.3-98.1-0.2-147.2-0.2c-182.8,0-365.7,0-548.5,0
		C132.5,2021.2,127.2,2021.2,121,2021.2z"/>
	<path class="st0" d="M844.5,2046.3c0,23.1,0,45.5,0,68.9c-241,0-481.5,0-722.9,0c0-22.8,0-45.5,0-68.9
		C362.4,2046.3,602.6,2046.3,844.5,2046.3z"/>
	<path class="st0" d="M121.1,2140.6c241.2,0,481.4,0,723.8,0c0,16.2,0.1,32.1,0,48.1c-0.3,25.7,3.2,22-21.8,22
		c-228.5,0.1-456.9,0.1-685.4,0.1c-5.3,0-10.5,0-16.6,0C121.1,2186.6,121.1,2163.9,121.1,2140.6z"/>
	<path class="st0" d="M3151.2,1925.3c-5.3,0-9.8,0-14.3,0c-230.7,0-461.5,0-692.2,0c-15.1,0-15.1,0-15.2-15c0-15.3,0.2-30.7,0-46
		c-0.1-6.7,2.2-10.2,9.3-9.2c0.8,0.1,1.5,0,2.3,0c233.4,0,466.8,0,700.3,0c3,0,6,0.3,9.8,0.5
		C3151.2,1878.4,3151.2,1900.8,3151.2,1925.3z"/>
	<path class="st0" d="M3151.5,1949.9c0,23.8,0,46.3,0,69.7c-4.6,0.2-8.6,0.5-12.7,0.5c-231.5,0-463-0.1-694.5,0.3
		c-11.7,0-15.6-3-14.8-14.7c0.9-14.5,0.7-29.1,0.1-43.7c-0.4-9.4,2.6-12.5,12.3-12.4c47.5,0.5,95.1,0.2,142.6,0.2
		c184.4,0,368.7,0,553.1,0C3141.6,1949.9,3145.8,1949.9,3151.5,1949.9z"/>
	<path class="st0" d="M3151.4,2045.1c0,23.9,0,46.4,0,70.3c-5.1,0-9.6,0-14,0c-230.7,0-461.5,0-692.2,0c-15.6,0-15.6,0-15.6-15.7
		c0-14.2,0.5-28.4-0.2-42.5c-0.4-9.6,3-12.3,12.5-12.2c65.9,0.4,131.8,0.2,197.8,0.2c166,0,331.9,0,497.9,0
		C3141.7,2045.1,3145.9,2045.1,3151.4,2045.1z"/>
	<path class="st0" d="M3151.4,2140.1c0,23.8,0,46.3,0,70.2c-4.6,0-8.6,0-12.7,0c-231.9,0-463.8-0.1-695.6,0.2
		c-10.5,0-14.2-2.8-13.7-13.4c0.8-15.3,0.5-30.7,0.1-46c-0.2-8.3,2.3-11.4,11.1-11.3c33.7,0.5,67.5,0.2,101.2,0.2
		c197.8,0,395.5,0,593.3,0C3140,2140.1,3145,2140.1,3151.4,2140.1z"/>
	<path class="st3" d="M888,1855.6c241.9,0,482.1,0,723.5,0c0.4,3.1,1.2,6.3,1.2,9.5c0.1,16.5-0.4,33,0.2,49.4
		c0.3,9.2-3.3,12.6-12,11.6c-1.5-0.2-3.1,0-4.6,0c-230.3,0-460.6,0-690.9,0c-17.4,0-17.4,0-17.4-17.5
		C888,1891.1,888,1873.6,888,1855.6z"/>
	<path class="st4" d="M888.5,2021.2c0-23.9,0-46.6,0-70.6c4.9,0,9,0,13.1,0c232.3,0,464.6,0.1,696.9-0.2c11.1,0,14.7,2.9,14,14
		c-0.9,15.3-0.6,30.7-0.1,46c0.3,8.7-3,11-11.4,11c-49.1-0.3-98.1-0.2-147.2-0.2c-182.8,0-365.7,0-548.5,0
		C900,2021.2,894.7,2021.2,888.5,2021.2z"/>
	<path class="st0" d="M1612,2046.3c0,23.1,0,45.5,0,68.9c-241,0-481.5,0-722.9,0c0-22.8,0-45.5,0-68.9
		C1129.9,2046.3,1370.1,2046.3,1612,2046.3z"/>
	<path class="st0" d="M888.6,2140.6c241.2,0,481.4,0,723.8,0c0,16.2,0.1,32.1,0,48.1c-0.3,25.7,3.2,22-21.8,22
		c-228.5,0.1-456.9,0.1-685.4,0.1c-5.3,0-10.5,0-16.6,0C888.6,2186.6,888.6,2163.9,888.6,2140.6z"/>
	<path class="st4" d="M1656.9,1855.6c241.9,0,482.1,0,723.5,0c0.4,3.1,1.2,6.3,1.2,9.5c0.1,16.5-0.4,33,0.2,49.4
		c0.3,9.2-3.3,12.6-12,11.6c-1.5-0.2-3.1,0-4.6,0c-230.3,0-460.6,0-690.9,0c-17.4,0-17.4,0-17.4-17.5
		C1656.9,1891.1,1656.9,1873.6,1656.9,1855.6z"/>
	<path class="st4" d="M1657.4,2021.2c0-23.9,0-46.6,0-70.6c4.9,0,9,0,13.1,0c232.3,0,464.6,0.1,696.9-0.2c11.1,0,14.7,2.9,14,14
		c-0.9,15.3-0.6,30.7-0.1,46c0.3,8.7-3,11-11.4,11c-49.1-0.3-98.1-0.2-147.2-0.2c-182.8,0-365.7,0-548.5,0
		C1668.9,2021.2,1663.6,2021.2,1657.4,2021.2z"/>
	<path class="st0" d="M2380.9,2046.3c0,23.1,0,45.5,0,68.9c-241,0-481.5,0-722.9,0c0-22.8,0-45.5,0-68.9
		C1898.8,2046.3,2139,2046.3,2380.9,2046.3z"/>
	<path class="st0" d="M1657.5,2140.6c241.2,0,481.4,0,723.8,0c0,16.2,0.1,32.1,0,48.1c-0.3,25.7,3.2,22-21.8,22
		c-228.5,0.1-456.9,0.1-685.4,0.1c-5.3,0-10.5,0-16.6,0C1657.5,2186.6,1657.5,2163.9,1657.5,2140.6z"/>
	<path class="st3" d="M1610.6,2274.1c0,23.1,0,45.5,0,68.8c-240,0-479.6,0-720.2,0c0-22.8,0-45.4,0-68.8
		C1130.7,2274.1,1370.3,2274.1,1610.6,2274.1z"/>
	<path class="st1" d="M1658.2,2439c0-23.3,0-46.1,0-69.9c240.7,0,481.1,0,722.5,0c0,22.8,0,45.9,0,69.9
		C2140.2,2439,1899.5,2439,1658.2,2439z"/>
	<path class="st0" d="M1658.2,2344c0-23.3,0-46.1,0-69.9c240.7,0,481.1,0,722.5,0c0,22.8,0,45.9,0,69.9
		C2140.2,2344,1899.5,2344,1658.2,2344z"/>
	<path class="st0" d="M1658.2,2629.1c0-23.3,0-46.1,0-69.9c240.7,0,481.1,0,722.5,0c0,22.8,0,45.9,0,69.9
		C2140.2,2629.1,1899.5,2629.1,1658.2,2629.1z"/>
</g>
</svg>
