<?xml version="1.0" encoding="utf-8"?>
<!-- Generator: Adobe Illustrator 18.1.1, SVG Export Plug-In . SVG Version: 6.00 Build 0)  -->
<svg version="1.1" id="Layer_1" xmlns="http://www.w3.org/2000/svg" xmlns:xlink="http://www.w3.org/1999/xlink" x="0px" y="0px"
	 viewBox="0 0 20 20" enable-background="new 0 0 20 20" xml:space="preserve">
<g>
	<defs>
		<rect id="SVGID_1_" x="0.1" y="0.1" width="19.8" height="19.8"/>
	</defs>
	<clipPath id="SVGID_2_">
		<use xlink:href="#SVGID_1_"  overflow="visible"/>
	</clipPath>
	<path clip-path="url(#SVGID_2_)" fill="#27A5DE" d="M5.3,8.4l3.9-8.2H2.9L0.1,10.4h0l0,0h3l-2.6,9.4h0.3L9.5,8.4H5.3z M19.9,9.4
		c0-1.5-0.5-2.7-1.5-3.6c-1-0.9-2.4-1.4-4.2-1.4H8v2.4h3.1v0h3.1c0.9,0,1.5,0.2,2,0.7c0.4,0.5,0.7,1.1,0.7,1.8
		c0,0.7-0.2,1.3-0.7,1.8c-0.4,0.5-1.1,0.7-2,0.7h-3.1V8.6L8,12.7v7.1h3.1v-5.6h3.1c1.8,0,3.2-0.4,4.2-1.3
		C19.4,12,19.9,10.8,19.9,9.4"/>
</g>
</svg>
