<?xml version="1.0" encoding="utf-8"?>
<!-- Generator: Adobe Illustrator 18.1.1, SVG Export Plug-In . SVG Version: 6.00 Build 0)  -->
<svg version="1.1" baseProfile="tiny" id="Layer_1" xmlns="http://www.w3.org/2000/svg" xmlns:xlink="http://www.w3.org/1999/xlink"
	 x="0px" y="0px" viewBox="0 0 20 20" xml:space="preserve">
<g>
	<path fill="#707171" d="M6.4,16.5h7.1v1.2H6.4V16.5z M6.4,14.2h7.1v1.2H6.4V14.2z M5.2,13v2.4v3.6h9.5V13H5.2z"/>
	<polygon fill="#707171" points="5.2,1.1 5.2,7 14.8,7 14.8,4.7 14.8,1.1 	"/>
	<path fill="#707171" d="M19.5,7c0-1.2-1.2-2.4-2.4-2.4h-1.2v3.6H4.1V4.7H2.9C1.7,4.7,0.5,5.8,0.5,7V13c0,1.2,1.2,2.4,2.4,2.4h1.2
		v-3.6h11.9v3.6h1.2c1.2,0,2.4-1.2,2.4-2.4V7z"/>
</g>
</svg>
