<?xml version="1.0" encoding="utf-8"?>
<!-- Generator: Adobe Illustrator 18.1.1, SVG Export Plug-In . SVG Version: 6.00 Build 0)  -->
<svg version="1.1" id="Layer_1" xmlns="http://www.w3.org/2000/svg" xmlns:xlink="http://www.w3.org/1999/xlink" x="0px" y="0px"
	 viewBox="0 0 20 20" enable-background="new 0 0 20 20" xml:space="preserve">
<g>
	<g>
		<defs>
			<rect id="SVGID_1_" x="0.1" y="0.1" width="19.8" height="19.8"/>
		</defs>
		<clipPath id="SVGID_2_">
			<use xlink:href="#SVGID_1_"  overflow="visible"/>
		</clipPath>
		<path clip-path="url(#SVGID_2_)" fill="#28A5DE" d="M7.2,11.4H1.3v7.9c0,0.3,0.2,0.6,0.5,0.6h16.4c0.3,0,0.5-0.3,0.5-0.6v-7.9
			h-7.3l-3.2,4.2H6L7.2,11.4z M7.8,8.8H5.6V7.7c0-0.3-0.2-0.5-0.4-0.5H3.3c-0.2,0-0.4,0.2-0.4,0.5v1.1H0.5C0.3,8.8,0.1,9,0.1,9.3V10
			c0,0.3,0.2,0.5,0.4,0.5h6.9L7.8,8.8z M14,6.1h-3.1l2.9-6H9.2L7.1,7.6h0l0,0h2.2l-1.9,6.9h0.3L14,6.1z M19.9,10V9.3
			c0-0.3-0.2-0.5-0.4-0.5h-2.4V7.7c0-0.3-0.2-0.5-0.4-0.5h-1.9c-0.2,0-0.4,0.2-0.4,0.5v1.1h-1.1l-1.2,1.6h7.3
			C19.7,10.4,19.9,10.2,19.9,10"/>
	</g>
</g>
</svg>
