<?xml version="1.0" encoding="utf-8"?>
<!-- Generator: Adobe Illustrator 18.1.1, SVG Export Plug-In . SVG Version: 6.00 Build 0)  -->
<svg version="1.1" id="Layer_1" xmlns="http://www.w3.org/2000/svg" xmlns:xlink="http://www.w3.org/1999/xlink" x="0px" y="0px"
	 viewBox="0 0 20 20" enable-background="new 0 0 20 20" xml:space="preserve">
<g>
	<g>
		<defs>
			<rect id="SVGID_1_" x="0.1" y="0.1" width="19.8" height="19.8"/>
		</defs>
		<clipPath id="SVGID_2_">
			<use xlink:href="#SVGID_1_"  overflow="visible"/>
		</clipPath>
		<path clip-path="url(#SVGID_2_)" fill="#28A5DE" d="M10,12.7h1.6l0.4-1.4h-2V12.7z M10.5,6.5H10v1.4h0.1L10.5,6.5z M11,4.6H2.3
			c-0.2,0-0.4,0.1-0.5,0.2C1.6,4.9,1.5,5.1,1.5,5.3l-1.4,8.6c0,0.4,0.3,0.8,0.8,0.8h0.7c0.5,0.4,2.7,2,5.5,2.2v0.9H5.2
			c-0.2,0-0.4,0.2-0.4,0.5v1.2c0,0.3,0.2,0.5,0.4,0.5h4.5l0.6-2.1c0,0,0,0,0,0H8.3v-0.9c0.8,0,1.6-0.2,2.3-0.5l0.3-1.1
			c-0.9,0.4-1.9,0.6-3.1,0.6l-0.1,0l-0.2,0c-1.7,0-3.3-0.6-4.3-1.2h7.9l0.3-1.1H1.3l1.3-7.9h8.2L11,4.6z M6.3,10.3H9V8.9H6.3V10.3z
			 M9,11.3H6.3v1.4H9V11.3z M6.3,7.9H9V6.5H6.3V7.9z M5.3,8.9H2.9l-0.3,1.4h2.7V8.9z M3.4,6.5L3,7.9h2.3V6.5H3.4z M5.3,12.7v-1.4
			H2.6l-0.3,1.4H5.3z"/>
	</g>
	<polygon fill="#28A5DE" points="13.7,0.1 11.1,9.7 11.1,9.7 11.1,9.8 13.9,9.8 11.5,18.6 11.8,18.6 19.9,7.8 15.9,7.8 19.5,0.1 	
		"/>
</g>
</svg>
