<?xml version="1.0" encoding="utf-8"?>
<!-- Generator: Adobe Illustrator 18.1.1, SVG Export Plug-In . SVG Version: 6.00 Build 0)  -->
<svg version="1.1" id="Layer_1" xmlns="http://www.w3.org/2000/svg" xmlns:xlink="http://www.w3.org/1999/xlink" x="0px" y="0px"
	 viewBox="0 0 20 20" enable-background="new 0 0 20 20" xml:space="preserve">
<g>
	<g>
		<defs>
			<rect id="SVGID_1_" x="0.1" y="0.3" width="19.8" height="19.3"/>
		</defs>
		<clipPath id="SVGID_2_">
			<use xlink:href="#SVGID_1_"  overflow="visible"/>
		</clipPath>
		<path clip-path="url(#SVGID_2_)" fill="#28A5DE" d="M11,12.2c-0.4,0-0.8,0.2-1,0.5c-0.3,0.3-0.4,0.7-0.4,1.2V15
			c0,0.5,0.1,0.9,0.4,1.2c0.3,0.3,0.6,0.5,1,0.5c0.5,0,0.8-0.2,1.1-0.5c0.3-0.3,0.4-0.7,0.4-1.2v-1.1c0-0.5-0.1-0.9-0.4-1.2
			C11.8,12.4,11.4,12.2,11,12.2 M11,11.4c0.7,0,1.3,0.2,1.8,0.7c0.5,0.5,0.7,1.1,0.7,1.8V15c0,0.7-0.2,1.3-0.7,1.8
			c-0.5,0.5-1,0.7-1.8,0.7c-0.7,0-1.3-0.2-1.7-0.7c-0.4-0.5-0.7-1.1-0.7-1.8v-1.1c0-0.7,0.2-1.3,0.7-1.8C9.7,11.7,10.3,11.4,11,11.4
			 M7.9,13.5L7.9,13.5l-1,0c0-0.4-0.1-0.7-0.3-0.9c-0.2-0.2-0.5-0.3-1-0.3c-0.4,0-0.7,0.2-1,0.5c-0.2,0.3-0.4,0.7-0.4,1.2V15
			c0,0.5,0.1,0.9,0.4,1.2c0.2,0.3,0.6,0.5,1,0.5c0.4,0,0.7-0.1,0.9-0.3c0.2-0.2,0.3-0.5,0.3-0.9h0.9l0,0c0,0.6-0.2,1.1-0.6,1.5
			c-0.4,0.4-0.9,0.6-1.6,0.6c-0.7,0-1.3-0.2-1.7-0.7c-0.4-0.5-0.6-1.1-0.6-1.8v-1.1c0-0.7,0.2-1.3,0.6-1.8c0.4-0.5,1-0.7,1.7-0.7
			c0.7,0,1.2,0.2,1.6,0.5C7.7,12.3,7.9,12.8,7.9,13.5 M14,16c0-0.3,0.1-0.6,0.3-0.8c0.2-0.2,0.5-0.3,0.9-0.3c0.4,0,0.6,0.1,0.8,0.3
			c0.2,0.2,0.3,0.4,0.3,0.7c0,0.2-0.1,0.4-0.2,0.6c-0.1,0.2-0.3,0.4-0.6,0.7L15,17.8l0,0h1.4v0.5h-2.4v-0.5l1.1-1.2
			c0.2-0.2,0.3-0.3,0.3-0.5c0.1-0.1,0.1-0.2,0.1-0.4c0-0.1,0-0.3-0.1-0.4c-0.1-0.1-0.2-0.1-0.3-0.1c-0.2,0-0.3,0.1-0.4,0.2
			c-0.1,0.1-0.1,0.3-0.1,0.4L14,16L14,16z M10.7,8c-0.6-1.3-1.8-2.1-3.3-2.1c-2,0-3.6,1.6-3.6,3.6c0,0.4,0.1,0.8,0.2,1.2
			c-2.2,0.3-3.9,2.2-3.9,4.5c0,2.5,2,4.5,4.4,4.6v0h11c2.3,0,4.1-1.8,4.1-4.1c0-2.3-1.8-4.1-4.1-4.1c-0.1,0-0.2,0-0.3,0
			c0.1-0.3,0.2-0.6,0.2-0.9c0-1.7-1.4-3.1-3.1-3.1C11.7,7.5,11.1,7.7,10.7,8 M17.3,5.5c0.1-0.2,0.1-0.5,0.1-0.8c0-1.3-1-2.3-2.3-2.3
			c-0.9,0-1.8,0.6-2.1,1.4c-0.3-0.2-0.7-0.3-1.1-0.3c-1.1,0-2,0.9-2,1.9c0.6,0.4,1.2,1,1.5,1.7c0.5-0.3,1.1-0.5,1.7-0.5
			c1.8,0,3.3,1.5,3.3,3.3c0,0.3-0.1,0.7-0.2,1c0.1,0,0.2,0,0.4,0c0.5,0,1,0.1,1.4,0.2c1-0.5,1.7-1.5,1.7-2.7
			C19.9,7,18.8,5.7,17.3,5.5"/>
	</g>
</g>
</svg>
