<?xml version="1.0" encoding="utf-8"?>
<!-- Generator: Adobe Illustrator 18.1.1, SVG Export Plug-In . SVG Version: 6.00 Build 0)  -->
<svg version="1.1" id="Layer_1" xmlns="http://www.w3.org/2000/svg" xmlns:xlink="http://www.w3.org/1999/xlink" x="0px" y="0px"
	 viewBox="0 0 20 20" enable-background="new 0 0 20 20" xml:space="preserve">
<g>
	<polygon fill="#28A5DE" points="3.6,0.1 1.4,8.2 1.4,8.2 1.4,8.2 3.8,8.2 1.8,15.6 2,15.6 8.8,6.6 5.5,6.6 8.5,0.1 	"/>
	<g>
		<defs>
			<rect id="SVGID_1_" x="0.1" y="0.1" width="19.8" height="19.8"/>
		</defs>
		<clipPath id="SVGID_2_">
			<use xlink:href="#SVGID_1_"  overflow="visible"/>
		</clipPath>
		<path clip-path="url(#SVGID_2_)" fill="#28A5DE" d="M19.9,6.1l-5.5-5.7L9,6.1h2.7v4.4h0c0,4.2-3.1,7.5-7,7.5
			c-1.8,0-3.4-0.7-4.6-1.9c1.7,2.3,4.5,3.7,7.5,3.7c5.2,0,9.4-4.2,9.5-9.4h0v0c0,0,0,0,0,0h0V6.1H19.9z"/>
	</g>
</g>
</svg>
