<?xml version="1.0" encoding="utf-8"?>
<!-- Generator: Adobe Illustrator 18.1.1, SVG Export Plug-In . SVG Version: 6.00 Build 0)  -->
<svg version="1.1" baseProfile="tiny" id="Layer_1" xmlns="http://www.w3.org/2000/svg" xmlns:xlink="http://www.w3.org/1999/xlink"
	 x="0px" y="0px" viewBox="0 0 20 20" xml:space="preserve">
<g>
	<path fill="#2AA3DC" d="M8.6,6.1c1.1,0,2-0.9,2-2.1c0-1-1.3-2.7-2-3.5C7.8,1.3,6.6,3,6.6,4C6.6,5.2,7.5,6.1,8.6,6.1z"/>
	<path fill="#2AA3DC" d="M2.7,15.3c0.8,0,1.5-0.7,1.5-1.6c0-0.8-0.9-2-1.5-2.7c-0.6,0.6-1.5,1.9-1.5,2.7C1.2,14.6,1.9,15.3,2.7,15.3
		z"/>
	<path fill="#2AA3DC" d="M6.4,7.1c0-1.5-1.9-4-3-5.3c-1.1,1.3-3,3.7-3,5.3v0c0,1.7,1.3,3.1,3,3.1C5.1,10.2,6.4,8.8,6.4,7.1z"/>
	<path fill="#2AA3DC" d="M12.7,7.8V7.4c0-0.2-0.2-0.4-0.4-0.4c-0.2,0-0.4,0.2-0.4,0.4v0.3c-3.6,0.2-6.5,2.6-6.8,5.7
		c0.3-0.3,0.9-0.4,1.5-0.4c0.9,0,1.7,0.4,1.9,0.9h0.1c0.2-0.5,0.9-0.9,1.9-0.9c0.6,0,1.1,0.2,1.5,0.4v4.1c0,0.6-0.5,1.1-1.1,1.1
		c-0.6,0-1.1-0.5-1.1-1.1c0-0.2-0.2-0.4-0.4-0.4c-0.2,0-0.4,0.2-0.4,0.4c0,1.1,0.9,2,2,2h0c1.1,0,2-0.9,2-2v-4.1
		c0.3-0.3,0.9-0.4,1.5-0.4c0.9,0,1.7,0.4,1.9,0.9h0.1c0.2-0.5,0.9-0.9,1.9-0.9c0.6,0,1.1,0.2,1.5,0.4C19.2,10.4,16.3,7.9,12.7,7.8z"
		/>
</g>
</svg>
