<?xml version="1.0" encoding="utf-8"?>
<!-- Generator: Adobe Illustrator 18.1.1, SVG Export Plug-In . SVG Version: 6.00 Build 0)  -->
<svg version="1.1" id="Layer_1" xmlns="http://www.w3.org/2000/svg" xmlns:xlink="http://www.w3.org/1999/xlink" x="0px" y="0px"
	 viewBox="0 0 20 20" enable-background="new 0 0 20 20" xml:space="preserve">
<g>
	<defs>
		<rect id="SVGID_1_" x="0.1" y="0.1" width="19.8" height="19.8"/>
	</defs>
	<clipPath id="SVGID_2_">
		<use xlink:href="#SVGID_1_"  overflow="visible"/>
	</clipPath>
	<path clip-path="url(#SVGID_2_)" fill="#28A5DE" d="M11.8,16.6c0-1.2,1.4-3.1,2.3-4c0.8,1,2.3,2.8,2.3,4c0,1.3-1,2.4-2.3,2.4
		C12.8,19,11.8,18,11.8,16.6 M16.6,12.7c-0.9,0-1.6-0.7-1.6-1.6c0-0.8,1-2.1,1.6-2.8c0.6,0.7,1.6,2,1.6,2.8
		C18.2,12,17.5,12.7,16.6,12.7 M3.3,19.9h16.6v-12C19,7.3,18,7,16.9,7c-2.8,0-5.1,2.1-5.5,4.8c-0.5-0.3-1.1-0.5-1.8-0.5
		c-1.7,0-3.1,1.3-3.1,3c0,0.1,0,0.2,0,0.3c0,0-0.2,0-0.5-0.1c-1.9-0.1-3.4,1.5-3.4,3.4C2.6,18.6,2.9,19.3,3.3,19.9"/>
	<path clip-path="url(#SVGID_2_)" fill="#28A5DE" d="M4.1,11.6l-1.3,3.3c0.7-0.7,1.6-1.2,2.7-1.3c0-0.1,0-0.1,0.1-0.2
		C5,12.9,4.5,12.3,4.1,11.6 M4.5,9c0,1.3,0.6,2.5,1.5,3.3c0.7-1.2,2-2,3.6-2c0.4,0,0.7,0,1.1,0.1C11.1,9.1,12,8,13.1,7.2
		C12.4,5.6,10.8,4.5,9,4.5C6.5,4.5,4.5,6.5,4.5,9 M3.7,7.4L0.1,9l3.6,1.6c-0.2-0.5-0.2-1-0.2-1.6C3.5,8.4,3.5,7.9,3.7,7.4 M6.4,4.1
		L2.7,2.7l1.4,3.7C4.6,5.4,5.4,4.6,6.4,4.1 M9,3.5c0.6,0,1.1,0.1,1.6,0.2L9,0.1L7.4,3.7C7.9,3.5,8.4,3.5,9,3.5 M13.8,6.4l1.4-3.7
		l-3.7,1.4C12.5,4.6,13.3,5.4,13.8,6.4"/>
</g>
</svg>
