<svg id="Wind_Speed" data-name="Wind Speed" xmlns="http://www.w3.org/2000/svg" viewBox="0 0 25.91 25.91"><defs><style>.cls-1,.cls-2,.cls-3{fill:none;stroke-miterlimit:10;}.cls-1,.cls-2{stroke:#0c9cfa;}.cls-1{stroke-width:0.35px;}.cls-2{stroke-width:0.65px;}.cls-3{stroke:#1f1f1f;}.cls-4{fill:#0c9cfa;}</style></defs><title>Wind Direction Icon</title><g id="Vector_Smart_Object_copy_Image" data-name="Vector Smart Object copy Image"><circle class="cls-1" cx="12.96" cy="12.96" r="10.5"/><circle class="cls-2" cx="12.96" cy="12.96" r="12.63"/><line class="cls-3" x1="12.95" y1="12.96" x2="12.96" y2="12.96"/><path class="cls-4" d="M7.69,22.31s0.84-1,2.15-2.41c0.67-.7,1.42-1.55,2.27-2.41l2.65-2.71,2.71-2.65c0.86-.85,1.71-1.6,2.41-2.27,1.43-1.31,2.41-2.15,2.41-2.15s-0.84,1-2.15,2.41c-0.67.7-1.42,1.55-2.27,2.41l-2.65,2.71-2.71,2.65c-0.87.85-1.71,1.6-2.41,2.27C8.68,21.47,7.69,22.31,7.69,22.31Z" transform="translate(-2.04 -2.04)"/><path class="cls-4" d="M7.81,8s1,0.81,2.37,2.07c0.69,0.64,1.52,1.37,2.37,2.19l2.67,2.56,2.61,2.62c0.83,0.83,1.58,1.65,2.23,2.33C21.36,21.09,22.19,22,22.19,22s-1-.81-2.37-2.07c-0.69-.64-1.52-1.37-2.37-2.19l-2.67-2.56-2.61-2.62c-0.83-.84-1.58-1.65-2.23-2.33C8.64,8.91,7.81,8,7.81,8Z" transform="translate(-2.04 -2.04)"/><path class="cls-4" d="M15,4.66a9.15,9.15,0,0,1,.19.91,14.59,14.59,0,0,1,.14,2,14.47,14.47,0,0,1-.14,2,9,9,0,0,1-.19.91,9,9,0,0,1-.19-0.91,14.63,14.63,0,0,1,0-4A9.15,9.15,0,0,1,15,4.66Z" transform="translate(-2.04 -2.04)"/><path class="cls-4" d="M15,19.2a9.15,9.15,0,0,1,.19.91,14.59,14.59,0,0,1,.14,2,14.47,14.47,0,0,1-.14,2A9,9,0,0,1,15,25a9,9,0,0,1-.19-0.91,14.63,14.63,0,0,1,0-4A9.15,9.15,0,0,1,15,19.2Z" transform="translate(-2.04 -2.04)"/><path class="cls-4" d="M25.5,15a9.14,9.14,0,0,1-.91.19,14.59,14.59,0,0,1-2,.14,14.48,14.48,0,0,1-2-.14A9,9,0,0,1,19.66,15a9,9,0,0,1,.91-0.19,14.63,14.63,0,0,1,4,0A9.14,9.14,0,0,1,25.5,15Z" transform="translate(-2.04 -2.04)"/><path class="cls-4" d="M10.5,15a9.14,9.14,0,0,1-.91.19,14.59,14.59,0,0,1-2,.14,14.48,14.48,0,0,1-2-.14A9,9,0,0,1,4.66,15a9,9,0,0,1,.91-0.19,14.63,14.63,0,0,1,4,0A9.14,9.14,0,0,1,10.5,15Z" transform="translate(-2.04 -2.04)"/><polygon class="cls-4" points="6.21 15.08 10.58 15.08 10.58 19.83 19.71 6.08 6.21 15.08"/></g></svg>