<?xml version="1.0" encoding="utf-8"?>
<!-- Generator: Adobe Illustrator 18.1.1, SVG Export Plug-In . SVG Version: 6.00 Build 0)  -->
<svg version="1.1" id="Layer_1" xmlns="http://www.w3.org/2000/svg" xmlns:xlink="http://www.w3.org/1999/xlink" x="0px" y="0px"
	 viewBox="0 0 20 20" enable-background="new 0 0 20 20" xml:space="preserve">
<g>
	<defs>
		<rect id="SVGID_1_" x="0.1" y="0.1" width="19.8" height="19.8"/>
	</defs>
	<clipPath id="SVGID_2_">
		<use xlink:href="#SVGID_1_"  overflow="visible"/>
	</clipPath>
	<path clip-path="url(#SVGID_2_)" fill="#28A5DE" d="M1.1,13.2h5.3c1.9,0,3.5,1.5,3.5,3.3c0,1.8-1.5,3.3-3.5,3.3
		c-1.9,0-3.5-1.5-3.5-3.3c0-0.5,0.4-0.9,0.9-0.9c0.5,0,0.9,0.4,0.9,0.9c0,0.8,0.7,1.5,1.6,1.5c0.9,0,1.6-0.7,1.6-1.5
		c0-0.8-0.7-1.5-1.6-1.5H1.1c-0.5,0-0.9-0.4-0.9-0.9C0.1,13.7,0.5,13.2,1.1,13.2"/>
	<path clip-path="url(#SVGID_2_)" fill="#28A5DE" d="M19.9,6.2c0,2.8-2.2,5-5,5H2.3c-0.6,0-1.2-0.5-1.2-1.2c0-0.6,0.5-1.2,1.2-1.2
		h12.6c1.5,0,2.7-1.2,2.7-2.7c0-1.5-1.2-2.7-2.7-2.7c-1.5,0-2.7,1.2-2.7,2.7c0,0.6-0.5,1.2-1.2,1.2c-0.6,0-1.2-0.5-1.2-1.2
		c0-2.8,2.2-5,5-5C17.6,1.2,19.9,3.4,19.9,6.2"/>
	<path clip-path="url(#SVGID_2_)" fill="#28A5DE" d="M1.1,7.1h4.5c1.9,0,3.5-1.6,3.5-3.5c0-1.9-1.6-3.5-3.5-3.5
		c-1.9,0-3.5,1.6-3.5,3.5c0,0.5,0.4,1,1,1c0.5,0,1-0.4,1-1C4,2.8,4.7,2,5.6,2c0.9,0,1.6,0.7,1.6,1.6c0,0.9-0.7,1.6-1.6,1.6H1.1
		c-0.5,0-1,0.4-1,1C0.1,6.7,0.5,7.1,1.1,7.1"/>
	<path clip-path="url(#SVGID_2_)" fill="#28A5DE" d="M16,16.1c0,0.2-0.1,0.4-0.3,0.6l-3.3,3l0,0c-0.1,0.1-0.3,0.2-0.6,0.2
		c-0.5,0-0.8-0.4-0.8-0.8v-6c0-0.5,0.4-0.8,0.8-0.8c0.2,0,0.4,0.1,0.6,0.2l0,0l3.3,3C15.9,15.6,16,15.8,16,16.1"/>
	<path clip-path="url(#SVGID_2_)" fill="#28A5DE" d="M17.8,16.1l-2.6-2.4v0c-0.2-0.1-0.3-0.4-0.3-0.6c0-0.5,0.4-0.8,0.8-0.8
		c0.2,0,0.4,0.1,0.6,0.2l0,0l3.3,3c0.2,0.2,0.3,0.4,0.3,0.6c0,0.2-0.1,0.4-0.3,0.6l-3.3,3l0,0c-0.1,0.1-0.3,0.2-0.6,0.2
		c-0.5,0-0.8-0.4-0.8-0.8c0-0.2,0.1-0.5,0.3-0.6v0L17.8,16.1z"/>
</g>
</svg>
