<?xml version="1.0" encoding="utf-8"?>
<!-- Generator: Adobe Illustrator 18.1.1, SVG Export Plug-In . SVG Version: 6.00 Build 0)  -->
<svg version="1.1" id="Layer_1" xmlns="http://www.w3.org/2000/svg" xmlns:xlink="http://www.w3.org/1999/xlink" x="0px" y="0px"
	 viewBox="0 0 20 20" enable-background="new 0 0 20 20" xml:space="preserve">
<g>
	<g>
		<defs>
			<rect id="SVGID_1_" x="0.1" y="0.1" width="19.8" height="19.8"/>
		</defs>
		<clipPath id="SVGID_2_">
			<use xlink:href="#SVGID_1_"  overflow="visible"/>
		</clipPath>
		<path clip-path="url(#SVGID_2_)" fill="#28A5DE" d="M5.1,19.9h13.2c0,0,2,0,1.5-1.9l-1-3.6L15,13.9c-0.4,0.6-0.8,1.1-1.2,1.5
			c0.7,0.4,1.2,0.9,1.2,1.6c0,1.1-1.3,2-3,2c-1.6,0-3-0.9-3-2c0-0.7,0.5-1.2,1.2-1.6c-0.4-0.5-1-1.1-1.5-1.9L5.1,19.9z M0.2,18
			c0,0-0.5,1.9,1.5,1.9h0l5.1-7.1l-5-0.7L0.2,18z M7.3,11.1C6.5,9.7,5.8,8,5.7,6.4H5.3c0,0-2,0-2.5,1.9l-0.6,2.1L7.3,11.1z
			 M18.3,12.6l-0.8-2.8c-0.4,0.9-0.9,1.8-1.4,2.6L18.3,12.6z"/>
		<path clip-path="url(#SVGID_2_)" fill="#28A5DE" d="M10.1,16.9c0,0.6,0.9,1.1,1.9,1.1c1.1,0,1.9-0.5,1.9-1.1
			c0-0.4-0.3-0.7-0.8-0.9c0,0,0,0,0,0c-0.3,0.3-0.7,0.5-1.1,0.5c-0.4,0-0.8-0.2-1.1-0.5c0,0,0,0,0,0C10.5,16.2,10.1,16.5,10.1,16.9"
			/>
		<path clip-path="url(#SVGID_2_)" fill="#28A5DE" d="M12.1,9.1c-1.9,0-3.4-1.5-3.4-3.4c0-1.9,1.5-3.4,3.4-3.4s3.4,1.5,3.4,3.4
			C15.5,7.6,14,9.1,12.1,9.1 M12.1,0.1C9,0.1,6.5,2.7,6.5,5.8c0,2.4,1.5,5,2.8,6.9c1,1.4,2,2.6,2.6,3.1c0.1,0.1,0.1,0.1,0.2,0.1
			c0.1,0,0.2,0,0.2-0.1c0.5-0.6,1.5-1.7,2.6-3.1c1.3-1.8,2.8-4.5,2.8-6.9C17.7,2.7,15.2,0.1,12.1,0.1"/>
	</g>
</g>
</svg>
