<?xml version="1.0" encoding="utf-8"?>
<!-- Generator: Adobe Illustrator 19.1.0, SVG Export Plug-In . SVG Version: 6.00 Build 0)  -->
<svg version="1.1" id="Layer_1" xmlns="http://www.w3.org/2000/svg" xmlns:xlink="http://www.w3.org/1999/xlink" x="0px" y="0px"
	 viewBox="0 0 200 200" style="enable-background:new 0 0 200 200;" xml:space="preserve">
<g>
	<path d="M143.3,129.4V87.7c0-17.9-10.9-33.3-26.5-39.9c-1-7.9-7.8-14.1-16-14.1c-8,0-14.6,5.8-15.9,13.4
		c-16.4,6.2-28.2,22-28.2,40.6v41.7c-6.7,0.2-12.1,5.8-12.1,12.5c0,6.9,5.6,12.5,12.5,12.5h28.1c1.9,6.8,8.2,11.9,15.6,11.9
		c7.4,0,13.7-5,15.6-11.9h26.5c6.9,0,12.5-5.6,12.5-12.5C155.5,135.1,150,129.6,143.3,129.4L143.3,129.4z M100.8,39.4
		c4.3,0,7.9,2.6,9.6,6.2c-3.3-0.8-6.8-1.3-10.3-1.3c-2.9,0-5.8,0.3-8.6,0.9C93.1,41.8,96.7,39.4,100.8,39.4L100.8,39.4z M65.3,87.7
		c0-19.1,15.6-34.7,34.7-34.7c19.1,0,34.7,15.6,34.7,34.7v41.7H65.3V87.7z M100.8,160.6c-4.2,0-7.9-2.5-9.5-6.2h19.1
		C108.7,158.1,105,160.6,100.8,160.6L100.8,160.6z M142.9,145.8H57.1c-2.2,0-3.9-1.8-3.9-3.9c0-2.2,1.8-3.9,3.9-3.9h85.8
		c2.2,0,3.9,1.8,3.9,3.9C146.9,144.1,145.1,145.8,142.9,145.8L142.9,145.8z M142.9,145.8"/>
</g>
</svg>
