<?xml version="1.0" encoding="utf-8"?>
<!-- Generator: Adobe Illustrator 19.1.0, SVG Export Plug-In . SVG Version: 6.00 Build 0)  -->
<svg version="1.1" id="Layer_1" xmlns="http://www.w3.org/2000/svg" xmlns:xlink="http://www.w3.org/1999/xlink" x="0px" y="0px"
	 viewBox="0 0 75 75" style="enable-background:new 0 0 75 75;" xml:space="preserve">
<style type="text/css">
	.st0{clip-path:url(#SVGID_2_);fill:#0D0D0D;}
	.st1{fill:#0D0D0D;}
	.st2{clip-path:url(#SVGID_4_);fill:#0D0D0D;}
	.st3{fill:#191919;}
	.st4{fill:#FCCA53;}
	.st5{fill:#EE3444;}
	.st6{fill:#B4DEF3;}
	.st7{fill:#B4B4B5;}
	.st8{fill:#FFFFFF;}
</style>
<g>
	<path d="M52.1,54.1c-9.8,0-19.5,0-29.3,0c0-0.2,0-0.3,0-0.5c0-0.5,0.1-1.1,0.1-1.6c0.1-1.5,0.3-2.9,0.6-4.4
		c0.1-0.6,0.3-1.1,0.6-1.6c0.1-0.2,0.3-0.5,0.4-0.7c0.2-0.2,0.4-0.4,0.7-0.5c2.2-0.9,4.4-1.7,6.6-2.6c0.1,0,0.2-0.1,0.3-0.2
		c0.5-0.4,0.9-0.8,1.4-1.2c0.5-0.4,1.1-0.4,1.6,0.1c0.7,0.7,1.4,1.3,2.1,2c0,0,0.1,0.1,0.1,0.1c0,0,0.1-0.1,0.1-0.1
		c0.7-0.7,1.4-1.4,2.1-2.1c0.3-0.3,0.7-0.4,1.2-0.3c0.1,0,0.2,0.1,0.4,0.2c0.5,0.4,0.9,0.8,1.4,1.2c0.1,0.1,0.2,0.2,0.3,0.2
		c2.2,0.9,4.4,1.7,6.6,2.6c0.3,0.1,0.6,0.3,0.8,0.6c0.3,0.4,0.5,0.8,0.6,1.3c0.2,0.7,0.4,1.4,0.5,2.1c0.2,1.2,0.3,2.3,0.4,3.5
		c0,0.5,0.1,1,0.1,1.5C52.1,53.9,52.1,54,52.1,54.1z"/>
	<path d="M30.9,33.7c-0.1,0-0.1,0-0.2,0c-0.4,0-0.7,0-1.1,0c-0.6,0-1.1-0.4-1.3-0.9c0-0.1-0.1-0.3-0.1-0.5c0-1.1,0-2.1,0-3.2
		c0-0.4,0.2-0.8,0.5-1.1c0.1-0.1,0.2-0.2,0.2-0.3c0.2-1.2,0.6-2.2,1.3-3.2c1.1-1.5,2.5-2.5,4.2-3.1c1.2-0.4,2.5-0.6,3.9-0.5
		c1.9,0.2,3.7,0.8,5.2,2.1c1.3,1.1,2.2,2.4,2.6,4.1c0.1,0.2,0.1,0.5,0.1,0.7c0,0.1,0,0.1,0.1,0.2c0.4,0.3,0.6,0.7,0.6,1.2
		c0,1,0,2.1,0,3.1c0,0.8-0.6,1.3-1.1,1.4c-0.1,0-0.2,0-0.4,0c-0.4,0-0.7,0-1.1,0c-0.1,0-0.2,0-0.2,0.1c-0.9,1.5-2.2,2.3-3.9,2.7
		c-0.2,0-0.4,0.1-0.6,0.1c-0.1,0-0.2,0-0.2-0.1c-0.2-0.2-0.4-0.3-0.6-0.3c-0.3,0-0.6,0-0.9,0c-0.4,0-0.8,0.3-0.9,0.7
		c-0.1,0.5,0.3,1.1,0.8,1.1c0.3,0,0.7,0,1,0c0.2,0,0.4-0.1,0.6-0.3c0.1-0.1,0.1-0.1,0.2-0.1c0.7-0.1,1.4-0.2,2-0.4
		c0.6-0.2,1.1-0.5,1.6-0.8c0,0,0.1-0.1,0.1-0.1c0,0,0,0.1,0,0.1c-0.3,0.6-0.7,1.3-1.1,1.8c-0.9,1.1-2,1.7-3.3,1.9
		c-0.6,0.1-1.3,0.1-1.9,0.1c-1-0.1-1.9-0.4-2.7-1c-1.1-0.7-1.9-1.6-2.5-2.8c-0.4-0.8-0.7-1.7-0.9-2.5C30.9,33.9,30.9,33.8,30.9,33.7
		z M30.9,28C30.9,28,30.9,28,30.9,28c0-0.1,0.1-0.1,0.1-0.1c0.1-0.4,0.3-0.7,0.5-1.1c0.7-1.2,1.7-2,3-2.4c0.8-0.3,1.7-0.5,2.6-0.5
		c1,0,2,0.1,2.9,0.3c1.9,0.6,3.3,1.8,4,3.7c0,0,0,0.1,0,0.1c0.2-0.1,0.3-0.2,0.4-0.3c-0.1-0.5-0.3-1-0.5-1.5
		c-0.7-1.3-1.6-2.2-2.9-2.9c-1.7-0.9-3.5-1.1-5.4-0.7c-1.4,0.3-2.6,0.9-3.6,2c-0.8,0.8-1.4,1.8-1.6,3c0,0.1,0,0.1,0,0.2
		C30.6,27.9,30.8,28,30.9,28z"/>
	<path d="M55.8,40.2C55.8,40.3,55.8,40.3,55.8,40.2c-0.3,0.7-0.6,1.2-1.2,1.7c-0.4,0.4-0.9,0.6-1.5,0.7c-0.6,0.1-1.3,0.2-1.9,0
		c-0.9-0.2-1.6-0.7-2.2-1.4c-0.6-0.7-0.9-1.6-1.1-2.5c0,0,0-0.1,0-0.1c-0.1,0-0.1,0-0.1,0c-0.2,0-0.5,0-0.7,0
		c-0.5,0-0.9-0.4-0.9-0.9c0-0.7,0-1.3,0-2c0-0.3,0.1-0.6,0.4-0.7c0.1,0,0.1-0.1,0.1-0.2c0.2-1.3,0.9-2.3,1.9-3.2
		c0.8-0.7,1.8-1.1,2.9-1.2c1.5-0.2,3,0.1,4.3,1c1,0.7,1.7,1.6,2,2.8c0,0.2,0.1,0.3,0.1,0.5c0,0.1,0,0.1,0.1,0.2
		c0.2,0.2,0.4,0.4,0.4,0.7c0,0.7,0,1.3,0,2c0,0.5-0.4,0.9-0.9,0.9c-0.2,0-0.5,0-0.7,0c-0.1,0-0.1,0-0.2,0.1c-0.6,1-1.5,1.5-2.7,1.7
		c0,0-0.1,0-0.1,0c-0.1,0-0.2,0-0.3-0.1c-0.1-0.1-0.2-0.1-0.4-0.1c-0.2,0-0.3,0-0.5,0c-0.4,0-0.6,0.3-0.6,0.6c0,0.3,0.2,0.5,0.4,0.5
		c0.3,0,0.6,0,0.8,0c0.1,0,0.2-0.1,0.2-0.1c0.1-0.1,0.2-0.1,0.3-0.1c0.4,0,0.8-0.1,1.2-0.3c0.3-0.1,0.7-0.3,1-0.5
		C55.7,40.3,55.7,40.3,55.8,40.2z M56.6,34.8C56.6,34.7,56.6,34.7,56.6,34.8c0-0.1,0-0.1,0-0.2c-0.2-0.9-0.7-1.6-1.4-2.2
		c-1.7-1.4-4.3-1.4-6,0c-0.6,0.5-1.1,1.1-1.4,1.9c-0.1,0.2-0.1,0.3-0.1,0.5c0.1,0.1,0.2,0.1,0.3,0.2c0,0,0,0,0,0c0,0,0-0.1,0-0.1
		c0.4-1,1-1.6,1.9-2.1c0.5-0.2,1.1-0.4,1.6-0.4c0.8-0.1,1.6,0,2.4,0.2c1.2,0.4,2,1.1,2.4,2.3c0,0,0,0.1,0,0.1c0.1,0,0.1-0.1,0.1-0.1
		C56.5,34.8,56.5,34.8,56.6,34.8z"/>
	<path d="M27.2,38.6c0,0-0.1,0.1-0.1,0.1c-0.6,0.9-1.4,1.5-2.5,1.7c-0.1,0-0.2,0-0.3,0c-0.1,0-0.2,0-0.4-0.1
		c-0.1-0.1-0.2-0.1-0.3-0.1c-0.2,0-0.4,0-0.6,0c-0.3,0-0.5,0.2-0.6,0.5c-0.1,0.3,0.1,0.6,0.4,0.7c0.3,0,0.5,0,0.8,0
		c0.1,0,0.2-0.1,0.3-0.1c0.1-0.1,0.2-0.1,0.3-0.1c0.3-0.1,0.6-0.1,0.9-0.2c0.5-0.1,0.9-0.3,1.3-0.6c0,0,0.1,0,0.1-0.1c0,0,0,0,0,0
		c-0.3,0.6-0.7,1.2-1.2,1.6c-0.5,0.4-1,0.6-1.7,0.7c-0.6,0.1-1.2,0.1-1.9-0.1c-0.9-0.3-1.6-0.8-2.2-1.6c-0.5-0.7-0.8-1.5-1-2.3
		c0,0,0-0.1,0-0.1c0,0,0,0,0-0.1c-0.2,0-0.5,0-0.7,0c-0.1,0-0.2,0-0.2,0c-0.4-0.1-0.8-0.4-0.8-0.9c0-0.7,0-1.4,0-2.1
		c0-0.3,0.1-0.5,0.3-0.7c0.1-0.1,0.1-0.1,0.1-0.2c0.2-1.3,0.9-2.4,1.9-3.2c0.8-0.7,1.8-1,2.8-1.2c1.5-0.2,2.9,0.1,4.1,0.9
		c1,0.7,1.8,1.6,2.1,2.8c0.1,0.2,0.1,0.4,0.1,0.6c0,0.1,0,0.1,0.1,0.2c0.2,0.2,0.4,0.4,0.4,0.7c0,0.7,0,1.3,0,2
		c0,0.5-0.4,0.9-0.9,0.9C27.7,38.6,27.5,38.6,27.2,38.6z M27.4,34.8C27.4,34.7,27.4,34.7,27.4,34.8c0-0.1,0-0.1,0-0.1
		c-0.2-1-0.8-1.7-1.5-2.3c-1.6-1.2-3.9-1.3-5.6-0.2c-0.9,0.6-1.5,1.3-1.8,2.3c0,0.1-0.1,0.2-0.1,0.3c0.1,0.1,0.2,0.1,0.3,0.2
		c0,0,0-0.1,0-0.1c0.4-1.2,1.3-1.9,2.5-2.3c0.7-0.2,1.3-0.3,2-0.3c0.6,0,1.1,0.1,1.6,0.3c1.1,0.4,1.9,1.2,2.3,2.3c0,0,0,0.1,0,0.1
		C27.2,34.9,27.3,34.8,27.4,34.8z"/>
	<path d="M61.5,51.7c-2.9,0-5.7,0-8.5,0c0-0.1,0-0.1,0-0.2c-0.1-1-0.2-2-0.4-3c-0.2-0.9-0.4-1.8-0.7-2.7c-0.2-0.4-0.4-0.8-0.7-1.2
		c-0.3-0.4-0.7-0.7-1.2-0.9c-0.3-0.1-0.5-0.2-0.8-0.3c0.2-0.2,0.4-0.4,0.6-0.5c0.3-0.1,0.5-0.1,0.8,0.1c0.1,0.1,0.2,0.2,0.3,0.3
		c0.3,0.3,0.7,0.7,1,1c0,0,0.1,0.1,0.1,0.1c0,0,0.1-0.1,0.1-0.1c0.4-0.4,0.8-0.8,1.3-1.2c0.1-0.1,0.1-0.1,0.2-0.1
		c0.3-0.2,0.6-0.1,0.8,0.1c0.3,0.2,0.6,0.5,0.9,0.7c0.1,0.1,0.2,0.2,0.4,0.2c1.4,0.5,2.7,1.1,4.1,1.6c0.3,0.1,0.5,0.3,0.7,0.6
		c0.2,0.3,0.3,0.7,0.4,1.1c0.2,0.6,0.3,1.2,0.3,1.8c0.1,0.8,0.1,1.5,0.2,2.3C61.5,51.5,61.5,51.6,61.5,51.7z"/>
	<path d="M22,51.7c-2.9,0-5.7,0-8.5,0c0,0,0-0.1,0-0.1c0.1-0.7,0.1-1.4,0.2-2c0.1-0.8,0.2-1.7,0.5-2.5c0.1-0.3,0.2-0.5,0.3-0.8
		c0.2-0.3,0.4-0.5,0.8-0.7c1.4-0.5,2.8-1.1,4.2-1.6c0.1,0,0.2-0.1,0.2-0.1c0.3-0.2,0.6-0.5,0.9-0.7c0.3-0.3,0.7-0.3,1,0
		c0.4,0.4,0.8,0.8,1.3,1.2c0,0,0.1,0.1,0.1,0.1c0,0,0.1-0.1,0.1-0.1c0.4-0.4,0.9-0.8,1.3-1.3c0.3-0.3,0.6-0.3,0.9-0.1
		c0.2,0.1,0.3,0.2,0.5,0.4c0,0,0,0,0,0c-0.1,0-0.1,0-0.2,0.1c-0.2,0.1-0.4,0.2-0.6,0.2c-0.5,0.2-0.9,0.5-1.3,1
		c-0.4,0.5-0.6,1-0.8,1.6c-0.3,0.7-0.4,1.5-0.6,2.3c-0.2,1-0.3,1.9-0.4,2.9C22,51.6,22,51.6,22,51.7z"/>
</g>
</svg>
