<?xml version="1.0" encoding="utf-8"?>
<!-- Generator: Adobe Illustrator 19.1.0, SVG Export Plug-In . SVG Version: 6.00 Build 0)  -->
<svg version="1.1" id="Layer_1" xmlns="http://www.w3.org/2000/svg" xmlns:xlink="http://www.w3.org/1999/xlink" x="0px" y="0px"
	 viewBox="0 0 35 35" style="enable-background:new 0 0 35 35;" xml:space="preserve">
<style type="text/css">
	.st0{clip-path:url(#SVGID_2_);fill:#0D0D0D;}
	.st1{fill:#0D0D0D;}
	.st2{clip-path:url(#SVGID_4_);fill:#0D0D0D;}
	.st3{fill:#191919;}
	.st4{fill:#FCCA53;}
	.st5{fill:#EE3444;}
	.st6{fill:#B4DEF3;}
	.st7{fill:#B4B4B5;}
	.st8{fill:#FFFFFF;}
</style>
<g>
	<path class="st4" d="M17.5,8C12.3,8,8,12.3,8,17.5c0,5.3,4.3,9.5,9.5,9.5c5.3,0,9.5-4.3,9.5-9.5C27,12.3,22.7,8,17.5,8L17.5,8z
		 M17.5,23.6c-0.7,0-1.2-0.6-1.2-1.3c0-0.8,0.5-1.3,1.2-1.3c0.8,0,1.3,0.6,1.3,1.3C18.8,23,18.3,23.6,17.5,23.6L17.5,23.6z M18,18.5
		c-0.2,0.6-0.8,0.7-1,0c-0.2-0.8-1-3.6-1-5.5c0-2.5,3.1-2.5,3.1,0C19,14.9,18.2,17.9,18,18.5L18,18.5z M18,18.5"/>
</g>
</svg>
