<?xml version="1.0" encoding="utf-8"?>
<!-- Generator: Adobe Illustrator 19.1.0, SVG Export Plug-In . SVG Version: 6.00 Build 0)  -->
<svg version="1.1" id="Layer_1" xmlns="http://www.w3.org/2000/svg" xmlns:xlink="http://www.w3.org/1999/xlink" x="0px" y="0px"
	 viewBox="0 0 35 35" style="enable-background:new 0 0 35 35;" xml:space="preserve">
<style type="text/css">
	.st0{clip-path:url(#SVGID_2_);fill:#0D0D0D;}
	.st1{fill:#0D0D0D;}
	.st2{clip-path:url(#SVGID_4_);fill:#0D0D0D;}
	.st3{fill:#191919;}
	.st4{fill:#FCCA53;}
	.st5{fill:#EE3444;}
	.st6{fill:#B4DEF3;}
	.st7{fill:#B4B4B5;}
	.st8{fill:#FFFFFF;}
</style>
<g>
	<path class="st6" d="M27,22.3c0,0.4-0.1,0.8-0.3,1.1l-6-6.7l5.9-5.2c0.2,0.4,0.4,0.8,0.4,1.3V22.3z M17.5,17.9l8.3-7.2
		c-0.3-0.2-0.7-0.3-1.1-0.3H10.4c-0.4,0-0.8,0.1-1.1,0.3L17.5,17.9z M19.8,17.5l-1.9,1.7c-0.1,0.1-0.3,0.1-0.4,0.1
		c-0.1,0-0.3,0-0.4-0.1l-1.9-1.7l-6.1,6.8c0.4,0.2,0.8,0.4,1.3,0.4h14.2c0.5,0,0.9-0.1,1.3-0.4L19.8,17.5z M8.4,11.5
		C8.1,11.9,8,12.3,8,12.8v9.5c0,0.4,0.1,0.8,0.3,1.1l6-6.7L8.4,11.5z M8.4,11.5"/>
</g>
</svg>
