<?xml version="1.0" encoding="utf-8"?>
<!-- Generator: Adobe Illustrator 19.1.0, SVG Export Plug-In . SVG Version: 6.00 Build 0)  -->
<svg version="1.1" id="Layer_1" xmlns="http://www.w3.org/2000/svg" xmlns:xlink="http://www.w3.org/1999/xlink" x="0px" y="0px"
	 viewBox="0 0 35 35" style="enable-background:new 0 0 35 35;" xml:space="preserve">
<style type="text/css">
	.st0{clip-path:url(#SVGID_2_);fill:#0D0D0D;}
	.st1{fill:#0D0D0D;}
	.st2{clip-path:url(#SVGID_4_);fill:#0D0D0D;}
	.st3{fill:#191919;}
	.st4{fill:#FCCA53;}
	.st5{fill:#EE3444;}
	.st6{fill:#B4DEF3;}
	.st7{fill:#B4B4B5;}
	.st8{fill:#FFFFFF;}
</style>
<g>
	<circle class="st7" cx="17.5" cy="17.5" r="12.5"/>
	<path class="st8" d="M7.9,25.5l6.1-2.6v-1.7c0,0-0.9-0.7-1-2.3c-0.6,0-0.7-0.7-0.9-1.5c-0.3-1-0.6-2.1,0.4-1.9c0,0-0.4-4,1-5.5
		c0,0,3.7-4.2,8.1,0c0,0,1.2,1,0.9,5.5c0,0,1.2-0.6,0.6,1.7c0,0-0.6,2.3-1.1,1.7c0,0-0.2,1.6-1,2.3l0,1.9l6.1,2.4
		c0,0-3.3,4.6-9.6,4.6C17.6,30,11.9,30.4,7.9,25.5z"/>
</g>
</svg>
