<?xml version="1.0" encoding="utf-8"?>
<!-- Generator: Adobe Illustrator 19.1.0, SVG Export Plug-In . SVG Version: 6.00 Build 0)  -->
<svg version="1.1" id="Layer_1" xmlns="http://www.w3.org/2000/svg" xmlns:xlink="http://www.w3.org/1999/xlink" x="0px" y="0px"
	 viewBox="0 0 35 35" style="enable-background:new 0 0 35 35;" xml:space="preserve">
<style type="text/css">
	.st0{clip-path:url(#SVGID_2_);fill:#0D0D0D;}
	.st1{fill:#0D0D0D;}
	.st2{clip-path:url(#SVGID_4_);fill:#0D0D0D;}
	.st3{fill:#191919;}
	.st4{fill:#FCCA53;}
	.st5{fill:#EE3444;}
	.st6{fill:#B4DEF3;}
	.st7{fill:#B4B4B5;}
	.st8{fill:#FFFFFF;}
</style>
<g>
	<path class="st5" d="M17.7,25.5c-0.8,0-1.5,0-2.2,0c0,0,0,0.1,0,0.1c0,1.2,1,2.2,2.2,2.2s2.2-1,2.2-2.2c0,0,0-0.1,0-0.1
		C19.2,25.5,18.4,25.5,17.7,25.5L17.7,25.5z M17.7,25.5"/>
	<path class="st5" d="M24.6,19c0.3-0.1,0.6-0.5,0.6-1c0-0.6-0.4-1-0.8-1h-0.5c0-0.9,0-2,0-2c0-3-2-5.6-4.8-6.3
		c0-0.1,0.1-0.3,0.1-0.4c0-0.6-0.5-1.2-1.2-1.2h-0.9c-0.6,0-1.2,0.5-1.2,1.2c0,0.1,0,0.3,0.1,0.4c-2.8,0.7-4.8,3.3-4.8,6.3
		c0,0,0,1.1,0,2h-0.5c-0.5,0-0.8,0.5-0.8,1c0,0.5,0.2,0.8,0.6,1C9.3,20.3,8,20.9,8,22.3c0,2.1,4.3,2,9.5,2c5.2,0,9.5,0.2,9.5-2
		C27,20.9,25.7,20.3,24.6,19L24.6,19z M16.9,11c-0.6,0.1-1.2,0.5-1.8,0.9c-1.2,1-1.7,2.5-1.6,4c0,0.4-0.6,0.4-0.6,0
		c-0.1-1.7,0.4-3.4,1.7-4.4c0.6-0.5,1.3-0.9,2.1-1.1C17.1,10.3,17.2,10.9,16.9,11L16.9,11z M16.5,10.3"/>
</g>
</svg>
