<?xml version="1.0" encoding="utf-8"?>
<!-- Generator: Adobe Illustrator 19.1.0, SVG Export Plug-In . SVG Version: 6.00 Build 0)  -->
<svg version="1.1" id="Layer_1" xmlns="http://www.w3.org/2000/svg" xmlns:xlink="http://www.w3.org/1999/xlink" x="0px" y="0px"
	 viewBox="0 0 75 75" style="enable-background:new 0 0 75 75;" xml:space="preserve">
<style type="text/css">
	.st0{clip-path:url(#SVGID_2_);fill:#0D0D0D;}
	.st1{fill:#0D0D0D;}
	.st2{clip-path:url(#SVGID_4_);fill:#0D0D0D;}
	.st3{fill:#191919;}
	.st4{fill:#FCCA53;}
	.st5{fill:#EE3444;}
	.st6{fill:#B4DEF3;}
	.st7{fill:#B4B4B5;}
	.st8{fill:#FFFFFF;}
</style>
<g>
	<path d="M59.7,31.7L59.7,31.7c-1.3-3-3-5.7-5.2-7.9c-2.2-2.2-4.9-4-7.8-5.2c-2.8-1.2-5.9-1.8-9.2-1.8c-6.6,0-12.6,2.7-17,7
		c-2.2,2.2-4,4.9-5.2,7.8c-1.2,2.8-1.8,5.9-1.8,9.2c0,3.2,0.7,6.3,1.8,9.2c1.2,2.9,3,5.6,5.2,7.8c0.7,0.7,1.9,0.7,2.6,0
		c0.7-0.7,0.7-1.9,0-2.6c-1.9-1.9-3.4-4.1-4.4-6.6c-1-2.4-1.5-5-1.5-7.8c0-2.8,0.5-5.4,1.5-7.8c1-2.5,2.5-4.7,4.4-6.6
		c3.7-3.7,8.7-5.9,14.4-5.9c2.8,0,5.4,0.5,7.8,1.5c2.5,1,4.7,2.5,6.6,4.4c1.9,1.9,3.4,4.1,4.4,6.6l0,0.1c1,2.4,1.5,5,1.5,7.7
		c0,2.8-0.5,5.4-1.5,7.8c-1,2.5-2.5,4.7-4.4,6.6c-0.7,0.7-0.7,1.9,0,2.6c0.7,0.7,1.9,0.7,2.6,0c2.2-2.2,4-4.9,5.2-7.8
		c1.2-2.8,1.8-5.9,1.8-9.2C61.5,37.5,60.9,34.5,59.7,31.7L59.7,31.7z M48.2,29.6L48.2,29.6c0-0.1,0-0.1-0.1-0.2L48,29.1
		c0-0.1-0.1-0.2-0.1-0.2l-0.2-0.3c0-0.1-0.1-0.1-0.1-0.2l-0.2-0.3c-0.1-0.1-0.1-0.1-0.2-0.1l-0.3-0.2c-0.1,0-0.1-0.1-0.2-0.1
		l-0.3-0.2c-0.1,0-0.2-0.1-0.2-0.1l-0.3-0.1c-0.1,0-0.2,0-0.3,0l-0.3,0c-0.1,0-0.1,0-0.2,0l-0.4,0.1c-0.1,0-0.1,0-0.2,0.1l-0.3,0.1
		c-0.1,0-0.1,0.1-0.2,0.1l-0.3,0.2c-0.1,0-0.1,0.1-0.2,0.2l-10.9,8.8c-0.2,0.2-0.5,0.4-0.6,0.5l-0.1,0c-0.2,0.2-0.4,0.4-0.5,0.6
		c-0.2,0.2-0.4,0.4-0.5,0.7c-0.2,0.2-0.3,0.5-0.5,0.7c-0.1,0.2-0.3,0.5-0.4,0.8c-0.1,0.3-0.2,0.5-0.3,0.8c-0.1,0.3-0.2,0.6-0.2,0.8
		c-0.1,0.3-0.1,0.6-0.1,0.8l0,0.1c0,0.3,0,0.5-0.1,0.7v0.1c0,0.3,0,0.5,0,0.7c0,0.3,0.1,0.5,0.1,0.8c0.1,0.3,0.1,0.6,0.2,0.8
		c0.1,0.2,0.1,0.5,0.3,0.8c0.1,0.3,0.2,0.5,0.3,0.7c0.1,0.2,0.2,0.5,0.4,0.7v0c0.1,0.2,0.3,0.4,0.5,0.7c0.2,0.2,0.4,0.4,0.5,0.6
		l0.1,0.1c0.2,0.2,0.3,0.4,0.5,0.5c0.2,0.2,0.4,0.4,0.7,0.5c0.2,0.2,0.5,0.3,0.7,0.5c0.2,0.1,0.5,0.3,0.8,0.4
		c0.3,0.1,0.5,0.2,0.8,0.3c0.3,0.1,0.6,0.2,0.8,0.2c0.3,0.1,0.6,0.1,0.8,0.1l0.1,0c0.3,0,0.5,0,0.7,0.1h0.1c0.3,0,0.5,0,0.7,0
		c0.2,0,0.5-0.1,0.8-0.1c0.3,0,0.6-0.1,0.8-0.2c0.2-0.1,0.5-0.1,0.8-0.3c0.3-0.1,0.5-0.2,0.7-0.3c0.2-0.1,0.5-0.2,0.7-0.4h0
		c0.2-0.1,0.4-0.3,0.7-0.5l0,0v0l0,0c0.2-0.2,0.4-0.3,0.6-0.5c0.2-0.2,0.4-0.4,0.6-0.6v0c0.2-0.2,0.4-0.4,0.5-0.7
		c0.2-0.3,0.3-0.5,0.5-0.7c0.1-0.2,0.3-0.5,0.4-0.8c0.1-0.3,0.2-0.5,0.3-0.8c0.1-0.3,0.2-0.6,0.2-0.8l0,0v0c0.1-0.2,0.1-0.5,0.1-0.8
		l2.2-14l0-0.1v0l0-0.4c0-0.1,0-0.1,0-0.2L48.2,29.6L48.2,29.6z M46.1,30.4L46.1,30.4l-2.2,13.9l0,0l0,0c0,0.2-0.1,0.4-0.1,0.6
		l0,0.1c-0.1,0.2-0.1,0.4-0.2,0.6c-0.1,0.2-0.1,0.4-0.2,0.6c-0.1,0.2-0.2,0.4-0.3,0.6c-0.1,0.2-0.2,0.4-0.3,0.5
		c-0.1,0.2-0.3,0.3-0.4,0.5v0c-0.1,0.1-0.3,0.3-0.4,0.4v0c-0.1,0.1-0.3,0.3-0.4,0.4l0,0c-0.1,0.1-0.3,0.2-0.5,0.3l0,0
		c-0.1,0.1-0.3,0.2-0.5,0.3c-0.2,0.1-0.4,0.2-0.6,0.2c-0.2,0.1-0.4,0.1-0.6,0.2c-0.2,0.1-0.4,0.1-0.6,0.1c-0.2,0-0.4,0.1-0.6,0.1
		c-0.2,0-0.4,0-0.5,0l-0.1,0c-0.2,0-0.4,0-0.6,0l-0.1,0c-0.2,0-0.4-0.1-0.6-0.1c-0.2,0-0.4-0.1-0.6-0.2c-0.2-0.1-0.4-0.1-0.6-0.2
		c-0.2-0.1-0.4-0.2-0.6-0.3c-0.2-0.1-0.4-0.2-0.5-0.3c-0.2-0.1-0.3-0.3-0.5-0.4l0,0l0,0c-0.1-0.1-0.3-0.3-0.4-0.4l0,0
		c-0.1-0.2-0.3-0.3-0.4-0.5c-0.1-0.1-0.2-0.3-0.3-0.5h0c-0.1-0.1-0.2-0.3-0.3-0.5c-0.1-0.2-0.2-0.4-0.2-0.6
		c-0.1-0.2-0.1-0.4-0.2-0.6c-0.1-0.2-0.1-0.4-0.1-0.6c0-0.2-0.1-0.4-0.1-0.6c0-0.2,0-0.4,0-0.5l0-0.1c0-0.2,0-0.4,0-0.5l0-0.1
		c0-0.2,0.1-0.4,0.1-0.6c0-0.2,0.1-0.4,0.2-0.6c0.1-0.2,0.1-0.4,0.2-0.6c0.1-0.2,0.2-0.4,0.3-0.6c0.1-0.2,0.2-0.4,0.3-0.5
		c0.1-0.2,0.3-0.3,0.4-0.5c0.1-0.1,0.3-0.3,0.4-0.4l0,0c0.2-0.1,0.3-0.3,0.5-0.4v0l0,0l11-8.9l0.2-0.1l0.1-0.1l0.1,0h0.1l0.1,0
		l0.1,0.1l0.1,0.1l0.1,0.1L46,30l0.1,0.1l0,0.1V30.4L46.1,30.4z M41.5,42.6L41.5,42.6c-0.3-1-0.9-1.9-1.9-2.5
		c-1-0.6-2.1-0.7-3.1-0.4h0c-1,0.3-1.9,0.9-2.5,1.9c-0.6,1-0.7,2.1-0.4,3.1v0c0.3,1,0.9,1.9,1.9,2.5c1,0.6,2.1,0.7,3.1,0.4l0,0
		c1-0.3,1.9-0.9,2.5-1.9C41.7,44.7,41.8,43.6,41.5,42.6L41.5,42.6L41.5,42.6z M39.4,43.2L39.4,43.2c0.1,0.5,0.1,1-0.2,1.4
		c-0.3,0.4-0.7,0.7-1.1,0.9l0,0c-0.4,0.1-0.9,0.1-1.4-0.2c-0.4-0.3-0.7-0.7-0.9-1.1v0c-0.1-0.4-0.1-1,0.2-1.4
		c0.3-0.4,0.7-0.7,1.1-0.9h0c0.4-0.1,0.9-0.1,1.4,0.2C39,42.3,39.3,42.7,39.4,43.2L39.4,43.2L39.4,43.2z"/>
</g>
</svg>
