<?xml version="1.0" encoding="utf-8"?>
<!-- Generator: Adobe Illustrator 19.1.0, SVG Export Plug-In . SVG Version: 6.00 Build 0)  -->
<svg version="1.1" id="Layer_1" xmlns="http://www.w3.org/2000/svg" xmlns:xlink="http://www.w3.org/1999/xlink" x="0px" y="0px"
	 viewBox="0 0 75 75" style="enable-background:new 0 0 75 75;" xml:space="preserve">
<style type="text/css">
	.st0{clip-path:url(#SVGID_2_);fill:#0D0D0D;}
	.st1{fill:#0D0D0D;}
	.st2{clip-path:url(#SVGID_4_);fill:#0D0D0D;}
	.st3{fill:#191919;}
	.st4{fill:#FCCA53;}
	.st5{fill:#EE3444;}
	.st6{fill:#B4DEF3;}
	.st7{fill:#B4B4B5;}
	.st8{fill:#FFFFFF;}
</style>
<g>
	<g>
		<path class="st3" d="M59.4,49.3H15.6c-1.1,0-2.1-0.9-2.1-2.1V15.9c0-1.1,0.9-2.1,2.1-2.1h43.9c1.1,0,2.1,0.9,2.1,2.1v31.2
			C61.5,48.3,60.6,49.3,59.4,49.3L59.4,49.3z M17.6,45.1h39.7V18H17.6V45.1L17.6,45.1z"/>
	</g>
	<g>
		<path class="st3" d="M37.5,58c-1.1,0-2.1-0.9-2.1-2.1v-7.7c0-1.1,0.9-2.1,2.1-2.1c1.1,0,2.1,0.9,2.1,2.1V56
			C39.6,57.1,38.6,58,37.5,58L37.5,58z"/>
	</g>
	<g>
		<path class="st3" d="M47.4,61.1c-0.5,0-1.1-0.2-1.5-0.6l-8.4-8.4l-8.4,8.4c-0.8,0.8-2.1,0.8-2.9,0c-0.8-0.8-0.8-2.1,0-2.9l9.9-9.9
			c0.8-0.8,2.2-0.8,2.9,0l9.9,9.9c0.8,0.8,0.8,2.1,0,2.9C48.4,60.9,47.9,61.1,47.4,61.1L47.4,61.1z"/>
	</g>
	<g>
		<path class="st3" d="M59.2,23.3H15.8c-0.6,0-1-0.5-1-1c0-0.6,0.5-1,1-1h43.4c0.6,0,1,0.5,1,1C60.2,22.9,59.7,23.3,59.2,23.3
			L59.2,23.3z"/>
	</g>
	<g>
		<g>
			<path class="st3" d="M26.2,43c-1.1,0-2.1-0.9-2.1-2.1v-6.2c0-1.1,0.9-2.1,2.1-2.1c1.1,0,2.1,0.9,2.1,2.1v6.2
				C28.3,42,27.4,43,26.2,43L26.2,43z"/>
		</g>
		<g>
			<path class="st3" d="M33.7,43c-1.1,0-2.1-0.9-2.1-2.1V28c0-1.1,0.9-2.1,2.1-2.1s2.1,0.9,2.1,2.1v12.9C35.8,42,34.9,43,33.7,43
				L33.7,43z"/>
		</g>
		<g>
			<path class="st3" d="M41.3,43c-1.1,0-2.1-0.9-2.1-2.1v-4.1c0-1.1,0.9-2.1,2.1-2.1c1.1,0,2.1,0.9,2.1,2.1v4.1
				C43.3,42,42.4,43,41.3,43L41.3,43z"/>
		</g>
		<g>
			<path class="st3" d="M48.8,43c-1.1,0-2.1-0.9-2.1-2.1V30.6c0-1.1,0.9-2.1,2.1-2.1c1.1,0,2.1,0.9,2.1,2.1v10.3
				C50.8,42,49.9,43,48.8,43L48.8,43z"/>
		</g>
	</g>
</g>
</svg>
