<?xml version="1.0" encoding="utf-8"?>
<!-- Generator: Adobe Illustrator 19.1.0, SVG Export Plug-In . SVG Version: 6.00 Build 0)  -->
<svg version="1.1" id="Layer_1" xmlns="http://www.w3.org/2000/svg" xmlns:xlink="http://www.w3.org/1999/xlink" x="0px" y="0px"
	 viewBox="0 0 75 75" style="enable-background:new 0 0 75 75;" xml:space="preserve">
<style type="text/css">
	.st0{clip-path:url(#SVGID_2_);fill:#0D0D0D;}
	.st1{fill:#0D0D0D;}
	.st2{clip-path:url(#SVGID_4_);fill:#0D0D0D;}
	.st3{fill:#191919;}
	.st4{fill:#FCCA53;}
	.st5{fill:#EE3444;}
	.st6{fill:#B4DEF3;}
	.st7{fill:#B4B4B5;}
	.st8{fill:#FFFFFF;}
</style>
<g>
	<path d="M16.9,15.6c0,14.5,0,29,0,43.6c7.6,0,15.2,0,22.8,0c0.6,1.3,1.4,2.4,2.4,3.4c0,0,0,0,0,0c-0.1,0-0.1,0-0.2,0
		c-8.4,0-16.9,0-25.3,0c-1.4,0-2.5-0.8-2.9-1.9c-0.1-0.3-0.2-0.7-0.2-1.1c0-0.1,0-0.1,0-0.2c0-14.7,0-29.4,0-44c0-0.5,0.1-1,0.3-1.4
		c0.6-1.1,1.5-1.7,2.7-1.7c0.1,0,0.1,0,0.2,0c8.8,0,17.5,0,26.3,0c0,0,0.1,0,0.1,0c0.3,0,0.6,0.1,0.8,0.3c0.8,0.8,1.6,1.6,2.4,2.4
		c2,2,4.1,4.1,6.1,6.1c0.3,0.3,0.4,0.6,0.4,1c0,7.6,0,15.3,0,22.9c0,0.1,0,0.1,0,0.2c-0.6-0.2-1.1-0.3-1.7-0.5
		c-0.6-0.1-1.1-0.2-1.7-0.2c0-0.6,0-1.2,0-1.7c0-0.6,0-1.1,0-1.7c0-0.6,0-1.2,0-1.7c0-0.6,0-1.1,0-1.7c0-0.6,0-1.2,0-1.7
		s0-1.2,0-1.7c0-0.6,0-1.1,0-1.7c0-0.6,0-1.2,0-1.7c0-0.6,0-1.1,0-1.7c0-0.6,0-1.2,0-1.7c0-0.6,0-1.1,0-1.7c0-0.6,0-1.2,0-1.8
		c-0.1,0-0.2,0-0.2,0c-2.1,0-4.2,0-6.3,0c-0.2,0-0.3,0-0.5-0.1c-0.5-0.2-0.9-0.6-0.9-1.2c0-0.1,0-0.2,0-0.2c0-2.1,0-4.3,0-6.4
		c0-0.1,0-0.2,0-0.2c0,0,0,0,0,0c0,0,0,0,0,0c0,0-0.1,0-0.1,0C33.2,15.6,25.1,15.6,16.9,15.6C16.9,15.6,16.9,15.6,16.9,15.6z"/>
	<path d="M53.9,48.4c0-0.1,0.1-0.1,0.1-0.2c0.7-0.7,1.5-1.5,2.2-2.2c0.3-0.3,0.7-0.5,1.1-0.6c0.7-0.1,1.4,0.1,1.9,0.6
		c0.3,0.3,0.5,0.5,0.8,0.8c0.3,0.3,0.5,0.5,0.8,0.8c0.9,0.9,0.9,2.2,0,3.1c-1.2,1.2-2.4,2.4-3.6,3.6c-0.1,0.1-0.1,0.2-0.1,0.4
		c0.2,4-2.6,7.3-6.3,8.1c-4.3,0.9-8.4-1.8-9.4-6c-1-4.4,1.8-8.5,6-9.5c2.2-0.5,4.3-0.1,6.1,1.2C53.7,48.4,53.8,48.4,53.9,48.4
		C53.8,48.4,53.8,48.4,53.9,48.4C53.9,48.4,53.9,48.4,53.9,48.4z M51,54c-0.1-0.1-0.1-0.1-0.1-0.1c-0.2-0.2-0.4-0.4-0.7-0.7
		c-0.5-0.5-1-1-1.5-1.5c-0.4-0.4-0.9-0.4-1.3,0c-0.2,0.2-0.4,0.4-0.6,0.6c-0.1,0.1-0.2,0.3-0.3,0.5c-0.1,0.3,0,0.6,0.3,0.8
		c1.1,1.1,2.3,2.3,3.4,3.4c0,0,0.1,0.1,0.1,0.1c0.2,0.1,0.4,0.2,0.6,0.2c0.3,0,0.5-0.1,0.7-0.3c2.5-2.5,5-5,7.5-7.5
		c0,0,0.1-0.1,0.1-0.1c0.3-0.3,0.3-0.8,0-1.1c-0.2-0.3-0.5-0.5-0.7-0.7c-0.3-0.3-0.8-0.3-1.1,0c-0.1,0.1-0.1,0.1-0.2,0.2
		c-2,2-4,4-6,6C51.1,53.9,51,54,51,54z"/>
	<path d="M29.2,20.2c-0.5,2.4-1.1,4.7-1.6,7.1c2.4-0.5,4.7-1.1,7.1-1.6c0.3,1.1,0.3,2.3,0.1,3.4c-0.4,1.8-1.3,3.3-2.7,4.4
		c-2.8,2.2-6.9,2.1-9.7-0.3c-2.8-2.5-3.4-6.5-1.4-9.7C22.9,20.3,26.6,19.5,29.2,20.2z"/>
	<path d="M27.4,46.3c-1.6,0-3.3,0-4.9,0c-0.2,0-0.3,0-0.5-0.1c-0.6-0.2-1-0.8-0.9-1.4c0.1-0.6,0.6-1.1,1.2-1.1c0.1,0,0.2,0,0.3,0
		c3.2,0,6.5,0,9.7,0c0.2,0,0.3,0,0.5,0c0.7,0.2,1.1,0.8,1,1.4c-0.1,0.6-0.6,1.1-1.3,1.1c-0.1,0-0.1,0-0.2,0
		C30.7,46.3,29,46.3,27.4,46.3z"/>
	<path d="M31.2,18.2c2.9,0.7,5,3.1,5.5,5.5c-2.4,0.5-4.7,1.1-7.1,1.6C30.1,22.9,30.7,20.5,31.2,18.2z"/>
	<path d="M26.7,48.5c1.4,0,2.7,0,4.1,0c0.2,0,0.3,0,0.5,0c0.6,0.2,1,0.8,1,1.4c-0.1,0.6-0.6,1.1-1.3,1.2c-0.1,0-0.1,0-0.2,0
		c-2.8,0-5.5,0-8.3,0c-0.2,0-0.4,0-0.5-0.1c-0.6-0.2-1-0.8-0.9-1.4c0.1-0.6,0.6-1.1,1.2-1.1c0.1,0,0.2,0,0.3,0
		C23.9,48.5,25.3,48.5,26.7,48.5z"/>
	<path d="M23.7,38.8c0.4,0,0.8,0,1.2,0c0.3,0,0.6,0.1,0.8,0.3c0.4,0.3,0.6,0.9,0.5,1.5c-0.2,0.5-0.7,0.9-1.2,0.9c-0.5,0-1.1,0-1.6,0
		c-0.3,0-0.6,0-0.9,0c-0.7,0-1.2-0.4-1.3-1.1c-0.1-0.7,0.4-1.5,1.1-1.5c0.3,0,0.6,0,0.8,0C23.3,38.8,23.5,38.8,23.7,38.8z"/>
</g>
</svg>
