<?xml version="1.0" encoding="utf-8"?>
<!-- Generator: Adobe Illustrator 19.1.0, SVG Export Plug-In . SVG Version: 6.00 Build 0)  -->
<svg version="1.1" id="Layer_1" xmlns="http://www.w3.org/2000/svg" xmlns:xlink="http://www.w3.org/1999/xlink" x="0px" y="0px"
	 viewBox="0 0 75 75" style="enable-background:new 0 0 75 75;" xml:space="preserve">
<style type="text/css">
	.st0{clip-path:url(#SVGID_2_);fill:#0D0D0D;}
	.st1{fill:#0D0D0D;}
	.st2{clip-path:url(#SVGID_4_);fill:#0D0D0D;}
	.st3{fill:#191919;}
	.st4{fill:#FCCA53;}
	.st5{fill:#EE3444;}
	.st6{fill:#B4DEF3;}
	.st7{fill:#B4B4B5;}
	.st8{fill:#FFFFFF;}
</style>
<g>
	<g>
		<defs>
			<rect id="SVGID_1_" x="13.5" y="12.1" width="48" height="50.8"/>
		</defs>
		<clipPath id="SVGID_2_">
			<use xlink:href="#SVGID_1_"  style="overflow:visible;"/>
		</clipPath>
		<path class="st0" d="M44.6,38.4c0.6-0.2,1.9-0.5,2.5-2.3l1.2-3.7l0.5,0.2c0.2,0.1,0.5,0,0.6-0.3l0.7-2c0.1-0.2,0-0.5-0.3-0.6
			l-16.1-5.5c-0.2-0.1-0.5,0-0.6,0.3l-0.7,2c-0.1,0.2,0,0.5,0.3,0.6l0.5,0.2L31.9,31c-0.6,1.8-0.2,2.4,0.5,3.3l3.3,3.9l-0.4,1.1
			c-1.3,0.3-4.5,1-5,1.1c-0.6,0.2-1.9,0.5-2.5,2.3l-1.1,3.2l-0.5-0.2c-0.2-0.1-0.5,0-0.6,0.3l-0.7,2c-0.1,0.2,0,0.5,0.3,0.6
			l16.1,5.5c0.2,0.1,0.5,0,0.6-0.3l0.7-2c0.1-0.2,0-0.5-0.3-0.6L42,50.9l1.1-3.2c0.6-1.8,0.2-2.4-0.5-3.3l-3.3-3.9l0.4-1.1
			C40.9,39.2,44.2,38.5,44.6,38.4L44.6,38.4z M37.8,41.2l3.6,4.3c0.3,0.3,0.4,0.5,0.5,0.7c0,0.2,0,0.5-0.2,1.1l-1.1,3.2l-12.1-4.1
			l1.1-3.2c0.3-1,1-1.2,1.4-1.3c0.4-0.1,3.4-0.8,5.3-1.2c0.3-0.1,0.5-0.3,0.6-0.5l0.7-1.9c0.1-0.3,0-0.6-0.1-0.8l-3.5-4.2l0,0
			c-0.3-0.3-0.4-0.5-0.5-0.7c0-0.2,0-0.5,0.2-1.1l1.3-3.7l12.1,4.1l-1.2,3.7c-0.3,1-1,1.2-1.4,1.3c-0.3,0.1-3.4,0.8-5.3,1.2
			c-0.3,0.1-0.5,0.3-0.6,0.5l-0.7,1.9C37.6,40.7,37.6,41,37.8,41.2L37.8,41.2z M37.8,41.2"/>
		<path class="st0" d="M47.4,56.3c-0.4,0.2-0.7,0.4-1.1,0.6c-0.1,0-0.1,0.1-0.2,0.1c-0.1,0-0.1,0-0.2,0.1c-1.6,0.7-3.2,1.3-4.9,1.6
			c0,0,0,0-0.1,0c-0.4,0.1-0.8,0.1-1.2,0.2c0,0,0,0,0,0c-0.7,0.1-1.5,0.1-2.3,0.1c-8.8,0-16.2-5.6-19-13.4c0-0.1-0.1-0.2-0.1-0.4
			c-0.7-2-1-4.1-1-6.3c0-2.2,0.4-4.4,1-6.4c0,0,0-0.1,0-0.1c0-0.1,0.1-0.2,0.1-0.3c0-0.1,0-0.1,0.1-0.2c2.3-6.2,7.6-10.9,14-12.6
			c0,0,0,0,0,0c0.1,0,0.2,0,0.3-0.1c0,0,0,0,0,0c1.4-0.3,2.9-0.5,4.4-0.5l0,2.1c0,0.6,0.4,0.8,0.9,0.4l4.4-3.7
			c0.5-0.4,0.5-1.1,0-1.5l-4.4-3.6c-0.5-0.4-0.9-0.2-0.9,0.4l0,2.1c-6.4,0-12.3,2.5-16.8,7c-0.4,0.4-0.9,0.9-1.3,1.4c0,0,0,0,0,0
			c0,0,0,0,0,0.1c-3.5,4.2-5.5,9.3-5.7,14.8c0,0,0,0.1,0,0.1c0,0.2,0,0.4,0,0.6c0,0.3,0,0.6,0,0.9c0,0,0,0.1,0,0.1
			c0.2,5,1.9,9.7,5,13.7c0,0,0,0,0,0c0.3,0.4,0.6,0.8,0.9,1.1c0,0,0,0,0.1,0.1c0.3,0.4,0.7,0.7,1,1.1c3.6,3.6,8,5.9,12.9,6.7
			c0,0,0,0,0,0c0,0,0,0,0,0c1.3,0.2,2.6,0.3,4,0.3c3.5,0,6.9-0.8,10.1-2.2c0.1,0,0.1-0.1,0.2-0.1c0.1,0,0.1-0.1,0.2-0.1
			c0.4-0.2,0.9-0.4,1.3-0.7c0.9-0.5,1.3-1.7,0.7-2.6C49.5,56.1,48.3,55.8,47.4,56.3L47.4,56.3z M47.4,56.3"/>
	</g>
	<path class="st1" d="M54.2,27.6c0.4,0.6,1,0.9,1.6,0.9c0.4,0,0.7-0.1,1.1-0.3c0.9-0.6,1.1-1.8,0.5-2.7c-0.3-0.4-0.6-0.8-0.9-1.2
		c-0.6-0.8-1.9-1-2.7-0.4c-0.8,0.6-1,1.9-0.4,2.7C53.7,26.9,54,27.3,54.2,27.6L54.2,27.6z M54.2,27.6"/>
	<path class="st1" d="M56.7,32.7c0.1,0.4,0.2,0.8,0.3,1.2c0.2,0.9,1,1.5,1.9,1.5c0.2,0,0.3,0,0.5-0.1c1-0.3,1.7-1.3,1.4-2.3
		c-0.1-0.5-0.3-0.9-0.4-1.4c-0.3-1-1.4-1.6-2.4-1.2C56.9,30.6,56.3,31.6,56.7,32.7L56.7,32.7z M56.7,32.7"/>
	<g>
		<defs>
			<rect id="SVGID_3_" x="13.5" y="12.1" width="48" height="50.8"/>
		</defs>
		<clipPath id="SVGID_4_">
			<use xlink:href="#SVGID_3_"  style="overflow:visible;"/>
		</clipPath>
		<path class="st2" d="M55.4,51.8c-0.8-0.7-2-0.6-2.7,0.2c-0.3,0.3-0.5,0.6-0.8,0.9c-0.7,0.8-0.7,2,0,2.7c0.4,0.4,0.9,0.5,1.3,0.5
			c0.5,0,1-0.2,1.4-0.6c0.3-0.3,0.7-0.7,1-1.1C56.3,53.7,56.2,52.5,55.4,51.8L55.4,51.8z M55.4,51.8"/>
		<path class="st2" d="M59.6,37.6c-1.1,0-2,0.8-2,1.9c0,0.4,0,0.8-0.1,1.2c-0.1,1.1,0.7,2,1.7,2.1c0.1,0,0.1,0,0.2,0
			c1,0,1.8-0.8,1.9-1.8c0-0.5,0.1-1,0.1-1.5C61.5,38.5,60.7,37.6,59.6,37.6L59.6,37.6z M59.6,37.6"/>
	</g>
	<path class="st1" d="M58.7,45c-1-0.4-2.1,0.1-2.5,1.1c-0.1,0.4-0.3,0.8-0.5,1.1c-0.4,1,0,2.1,0.9,2.6c0.3,0.1,0.5,0.2,0.8,0.2
		c0.7,0,1.4-0.4,1.8-1.1c0.2-0.4,0.4-0.9,0.6-1.3C60.2,46.6,59.7,45.4,58.7,45L58.7,45z M58.7,45"/>
	<path class="st1" d="M52.2,22.2c0.6-0.9,0.5-2.1-0.4-2.7c-0.4-0.3-0.8-0.6-1.2-0.8c-0.9-0.6-2.1-0.3-2.7,0.6
		c-0.6,0.9-0.3,2.1,0.6,2.7c0.3,0.2,0.7,0.5,1,0.7c0.3,0.3,0.7,0.4,1.1,0.4C51.2,23,51.8,22.8,52.2,22.2L52.2,22.2z M52.2,22.2"/>
</g>
</svg>
