<?xml version="1.0" encoding="utf-8"?>
<!-- Generator: Adobe Illustrator 19.1.0, SVG Export Plug-In . SVG Version: 6.00 Build 0)  -->
<svg version="1.1" id="Layer_1" xmlns="http://www.w3.org/2000/svg" xmlns:xlink="http://www.w3.org/1999/xlink" x="0px" y="0px"
	 viewBox="0 0 75 75" style="enable-background:new 0 0 75 75;" xml:space="preserve">
<style type="text/css">
	.st0{clip-path:url(#SVGID_2_);fill:#0D0D0D;}
	.st1{fill:#0D0D0D;}
	.st2{clip-path:url(#SVGID_4_);fill:#0D0D0D;}
	.st3{fill:#191919;}
	.st4{fill:#FCCA53;}
	.st5{fill:#EE3444;}
	.st6{fill:#B4DEF3;}
	.st7{fill:#B4B4B5;}
	.st8{fill:#FFFFFF;}
</style>
<g>
	<path d="M53.1,29.6c-0.5-0.3-1-0.5-1.6-0.7c-0.5-0.1-1.1-0.2-1.6-0.2c0-3.3,0-6.5,0-9.8c-9.9,0-19.9,0.1-29.8,0.1
		c0,0.1,0,19.1,0.1,19.4c5.6,0,11.2,0,16.8,0c0.1,1.1,0.2,2.1,0.4,3.2c0,0-0.1,0-0.1,0c0,0-0.1,0-0.1,0c-5.7,0-11.4,0-17,0
		c-0.8,0-1.5-0.2-2-0.7c-0.7-0.6-1.1-1.4-1.1-2.3c0-0.1,0-0.1,0-0.2c0-6.4,0-12.9,0-19.3c0-0.4,0-0.7,0.1-1c0.4-1.3,1.6-2.2,2.9-2.2
		c0.1,0,0.1,0,0.2,0c9.9,0,19.7,0,29.6,0c0.5,0,1,0.1,1.5,0.3c1.2,0.6,1.8,1.5,1.8,2.8c0,3.5,0,7.1,0,10.6
		C53.1,29.4,53.1,29.5,53.1,29.6z"/>
	<path d="M49.8,29.8c0.7,0,1.4,0.2,2.1,0.5c2.3,1.1,4.6,2.2,6.9,3.4c1.5,0.7,2.3,2,2.6,3.6c0.1,0.5,0.1,1,0,1.5
		c-0.1,0.6-0.1,1.3-0.2,1.9c-0.1,0.6-0.1,1.3-0.2,1.9c-0.1,0.6-0.1,1.3-0.2,1.9c-0.1,0.6-0.1,1.3-0.2,1.9c-0.1,0.6-0.2,1.3-0.2,1.9
		c-0.1,1-0.5,2-1.2,2.8c-1.7,2-3.4,3.9-5.1,5.9c-0.2,0.2-0.4,0.4-0.6,0.7c-0.8,0.9-1.8,1.5-2.9,1.6c-1.6,0.2-3.1-0.3-4.2-1.5
		c-0.6-0.6-1.1-1.2-1.6-1.8c-1.4-1.6-2.8-3.2-4.1-4.8c-0.6-0.7-1-1.4-1.2-2.3c-0.1-0.4-0.1-0.8-0.2-1.2c-0.1-0.7-0.2-1.5-0.3-2.2
		c-0.1-0.6-0.1-1.3-0.2-1.9c-0.1-0.6-0.2-1.3-0.2-1.9c-0.1-0.6-0.1-1.3-0.2-1.9c0-0.4-0.1-0.9-0.1-1.3c-0.1-1.1,0.1-2.1,0.7-3
		c0.5-0.8,1.1-1.4,1.9-1.8c2.3-1.1,4.6-2.3,6.9-3.4C48.4,30,49.1,29.8,49.8,29.8z M49.8,56.9c0.7,0,1.4-0.3,1.9-0.8
		c1.9-2.2,3.8-4.3,5.7-6.5c0.4-0.4,0.6-0.9,0.6-1.5c0.1-0.6,0.1-1.2,0.2-1.9c0.1-0.7,0.2-1.3,0.2-2c0.1-0.6,0.1-1.3,0.2-1.9
		c0.1-0.6,0.1-1.3,0.2-1.9c0.1-0.6,0.1-1.3,0.2-1.9c0.1-0.4,0.1-0.9-0.1-1.3c-0.2-0.7-0.7-1.2-1.3-1.5c-2.2-1.1-4.5-2.2-6.7-3.3
		c-0.8-0.4-1.6-0.4-2.4,0c-1.5,0.8-3.1,1.5-4.7,2.3c-0.7,0.3-1.4,0.7-2.1,1c-0.9,0.5-1.4,1.4-1.4,2.4c0,0.3,0.1,0.6,0.1,1
		c0.1,0.7,0.2,1.5,0.3,2.2c0.1,0.7,0.2,1.5,0.3,2.2c0.1,0.7,0.2,1.5,0.3,2.2c0.1,0.8,0.2,1.5,0.3,2.3c0.1,0.6,0.2,1.1,0.6,1.6
		c1.9,2.2,3.8,4.3,5.6,6.5C48.4,56.6,49.1,56.9,49.8,56.9z"/>
	<path d="M37.7,44.1c0.2,1.6,0.4,3.2,0.6,4.8c0,0-0.1,0-0.1,0c0,0,0,0,0,0c-7.4,0-14.8,0-22.2,0c-1.1,0-2.2-0.8-2.4-2
		c-0.2-1.4,0.8-2.6,2.1-2.8c0.1,0,0.3,0,0.4,0c7.2,0,14.3,0,21.5,0C37.5,44.1,37.6,44.1,37.7,44.1z"/>
	<path d="M41.5,29.1c-0.1,0.1-0.2,0.2-0.3,0.3c-0.1,0.1-0.2,0.3-0.4,0.4c-0.3,0.3-0.7,0.3-0.9,0c-0.2-0.2-0.3-0.4-0.5-0.5
		c0,0-0.1-0.1-0.1-0.2c0,0.1-0.1,0.1-0.1,0.2c-0.2,0.2-0.3,0.4-0.5,0.5c-0.3,0.3-0.7,0.3-1,0c-0.2-0.2-0.3-0.3-0.5-0.5
		c0,0-0.1-0.1-0.1-0.1c-0.1,0-0.1,0.1-0.1,0.1c-0.2,0.2-0.3,0.3-0.5,0.5c-0.2,0.2-0.4,0.3-0.6,0.3c-0.9,0-1.7,0-2.6,0
		c-0.1,0-0.2,0-0.3,0.2c-0.8,1.5-2,2.5-3.7,2.8c-2.8,0.5-5.3-1.4-5.8-4c-0.6-2.7,1.1-5.4,3.8-6c2.3-0.5,4.7,0.6,5.7,2.7
		c0,0,0,0.1,0,0.1c0,0.1,0.1,0.1,0.1,0.1c0,0,0.1,0,0.1,0c2.8,0,5.7,0,8.5,0c0.3,0,0.5,0.1,0.7,0.2c0.5,0.4,1,0.8,1.5,1.3
		c0.2,0.2,0.3,0.3,0.3,0.6c0,0.1-0.1,0.3-0.1,0.4c-0.4,0.5-0.7,0.9-1.1,1.4c-0.3,0.3-0.7,0.3-1,0c-0.2-0.2-0.3-0.4-0.5-0.5
		C41.6,29.2,41.6,29.2,41.5,29.1z M33.6,27.9c0.1,0,0.1,0,0.2,0c2.4,0,4.8,0,7.1,0c0.1,0,0.1,0,0.2,0c0.3,0,0.5-0.3,0.4-0.6
		c-0.1-0.2-0.2-0.4-0.5-0.4c-2.5,0-4.9,0-7.4,0c0,0-0.1,0-0.1,0C33.5,27.3,33.6,27.6,33.6,27.9z M27.7,28c0-0.8-0.6-1.4-1.4-1.4
		c-0.8,0-1.4,0.6-1.4,1.4c0,0.8,0.6,1.4,1.4,1.4C27.1,29.4,27.7,28.7,27.7,28z"/>
	<path d="M39,24.5c-1.3,0-2.6,0-3.9,0c-0.1,0-0.3,0-0.4,0c-0.5-0.1-0.8-0.5-0.7-1c0-0.5,0.4-0.9,0.9-0.9c0.1,0,0.1,0,0.2,0
		c2.6,0,5.3,0,7.9,0c0.1,0,0.3,0,0.4,0c0.5,0.1,0.7,0.6,0.7,1c0,0.5-0.4,0.8-0.9,0.9c-0.1,0-0.2,0-0.3,0
		C41.6,24.5,40.3,24.5,39,24.5z"/>
	<path d="M48.2,43.2c0.2,0.2,0.3,0.2,0.2,0.4c0,0.4,0,0.9,0,1.3c0,0.1,0,0.2,0,0.3c0.5,1.4,1,2.7,1.5,4.1c0,0,0,0.1,0.1,0.1
		c0.1,0.1,0.3,0.1,0.4,0c0,0,0-0.1,0.1-0.1c0.5-1.4,1-2.7,1.5-4.1c0-0.1,0-0.2,0-0.2c0-0.5,0-1,0-1.4c0-0.2,0-0.2,0.2-0.3
		c0,0,0.1,0,0.1-0.1c0,0,0,0,0,0c0.5,0.3,1.1,0.5,1.7,0.8c0.2,0.1,0.3,0.1,0.5,0.2c0.2,0.1,0.4,0.3,0.6,0.6c0.3,0.6,0.5,1.2,0.6,1.8
		c0.1,0.7,0.2,1.4,0.2,2.1c0,0.2,0,0.3-0.1,0.5c0,0.2-0.1,0.3-0.3,0.3c-0.5,0.2-0.9,0.3-1.4,0.4c-1.3,0.2-2.6,0.3-3.9,0.3
		c-0.9,0-1.8,0-2.7-0.2c-0.7-0.1-1.4-0.2-2.1-0.4c-0.1,0-0.1,0-0.2-0.1c-0.2-0.1-0.3-0.2-0.3-0.4c0-0.2-0.1-0.4-0.1-0.6
		c0-0.6,0.1-1.2,0.2-1.8c0.1-0.6,0.3-1.3,0.6-1.9c0.2-0.4,0.6-0.7,1-0.9c0.4-0.1,0.7-0.3,1.1-0.4C47.7,43.5,48,43.4,48.2,43.2z"/>
	<path d="M52.9,38.5c0,0.3-0.1,0.6-0.1,0.9c0,0.1,0,0.2,0,0.3c0.1,0.1,0.1,0.2,0.1,0.4c0,0.3-0.1,0.7-0.2,1c0,0,0,0.1,0,0.1
		c-0.2,0.7-0.5,1.3-0.9,1.8c-0.2,0.3-0.5,0.5-0.9,0.6c-0.5,0.2-0.9,0.2-1.4-0.1c-0.4-0.2-0.7-0.5-1-0.9c-0.3-0.4-0.5-0.9-0.6-1.4
		c0-0.1-0.1-0.2-0.1-0.2c-0.1-0.2-0.2-0.5-0.2-0.7c0-0.1,0-0.3,0-0.4c0-0.1,0-0.1,0.1-0.2c0.1-0.1,0.1-0.2,0-0.3
		c-0.1-0.4-0.1-0.8-0.1-1.3c0.2-0.9,1-1.8,1.8-2c0.4-0.1,0.7-0.1,1.1,0c0.4,0.1,0.9,0.3,1.3,0.5c0.2,0.1,0.4,0.3,0.6,0.5
		C52.7,37.5,52.9,37.9,52.9,38.5z"/>
	<path d="M50.1,45c-0.2-0.3-0.4-0.6-0.6-1c0.2,0,0.4,0.1,0.7,0.1c0.2,0,0.4,0,0.7-0.1c-0.1,0.2-0.2,0.3-0.3,0.5
		c-0.1,0.2-0.2,0.3-0.3,0.5c0.1,0.2,0.3,0.3,0.4,0.4c0.1,0.1,0.1,0.2,0.1,0.3c-0.2,1.1-0.4,2.2-0.5,3.3c0,0.1,0,0.1-0.1,0.2
		c0-0.1,0-0.1-0.1-0.2C50,48.7,50,48.3,49.9,48c-0.1-0.8-0.2-1.5-0.4-2.3c0-0.1,0-0.2,0.1-0.2C49.8,45.3,49.9,45.2,50.1,45z"/>
</g>
</svg>
