<svg id="Layer_1" data-name="Layer 1" xmlns="http://www.w3.org/2000/svg" viewBox="0 0 96 96"><defs><style>.cls-1{fill:#76b043;}</style></defs><title>AC-SLD_Icons_Sensors</title><path class="cls-1" d="M73.2,48A30.46,30.46,0,1,0,22.8,48,23.74,23.74,0,1,0,45.58,61.3c.8.06,1.6.1,2.42.1s1.62,0,2.42-.1A23.75,23.75,0,1,0,73.2,48Z"/><path d="M24.25,96A24.25,24.25,0,1,1,48.49,71.75,24.27,24.27,0,0,1,24.25,96Zm0-47.51A23.26,23.26,0,1,0,47.51,71.75,23.28,23.28,0,0,0,24.25,48.49Z"/><path d="M24.25,72.25a.49.49,0,0,1-.25-.07L11.74,64.93a.49.49,0,1,1,.5-.85L24.5,71.33a.49.49,0,0,1-.25.92Z"/><path d="M24.25,72.25a.49.49,0,0,1-.25-.92l12.31-7a.49.49,0,1,1,.49.86l-12.31,7A.49.49,0,0,1,24.25,72.25Z"/><path d="M24.25,86.48a.49.49,0,0,1-.49-.49V71.75a.49.49,0,0,1,1,0V86A.49.49,0,0,1,24.25,86.48Z"/><path d="M71.75,96A24.25,24.25,0,1,1,96,71.75,24.27,24.27,0,0,1,71.75,96Zm0-47.51A23.26,23.26,0,1,0,95,71.75,23.28,23.28,0,0,0,71.75,48.49Z"/><path d="M71.75,72.25a.49.49,0,0,1-.25-.07L59.25,64.93a.49.49,0,1,1,.5-.85L72,71.33a.49.49,0,0,1-.25.92Z"/><path d="M71.75,72.25a.49.49,0,0,1-.25-.92l12.31-7a.49.49,0,0,1,.49.86L72,72.18A.49.49,0,0,1,71.75,72.25Z"/><path d="M71.75,86.48a.49.49,0,0,1-.49-.49V71.75a.49.49,0,0,1,1,0V86A.49.49,0,0,1,71.75,86.48Z"/><path d="M48,61.9A31,31,0,1,1,79,31,31,31,0,0,1,48,61.9ZM48,1A30,30,0,1,0,78,31,30,30,0,0,0,48,1Z"/><path d="M61.92,38H34.08a.49.49,0,0,1-.43-.74l13.92-24.7a.51.51,0,0,1,.86,0l13.92,24.7a.49.49,0,0,1-.43.74Zm-27-1H61.07L48,13.83Z"/></svg>