<svg id="Layer_1" data-name="Layer 1" xmlns="http://www.w3.org/2000/svg" viewBox="0 0 96 96"><defs><style>.cls-1{fill:#da5339;}</style></defs><title>AC-SLD_Icons_Sensors</title><circle class="cls-1" cx="48" cy="20.72" r="4.99"/><circle class="cls-1" cx="48" cy="48.09" r="4.99"/><circle class="cls-1" cx="48" cy="75.28" r="4.99"/><rect x="47.5" width="1" height="15.73"/><rect x="47.5" y="25.71" width="1" height="17.4"/><rect x="47.5" y="80.27" width="1" height="15.73"/><rect x="47.5" y="52.99" width="1" height="17.31"/><path d="M48,26.21a5.49,5.49,0,1,1,5.49-5.49A5.5,5.5,0,0,1,48,26.21Zm0-10a4.49,4.49,0,1,0,4.49,4.49A4.49,4.49,0,0,0,48,16.23Z"/><path d="M48,53.58a5.49,5.49,0,1,1,5.49-5.49A5.5,5.5,0,0,1,48,53.58Zm0-10a4.49,4.49,0,1,0,4.49,4.49A4.49,4.49,0,0,0,48,43.6Z"/><path d="M48,80.77a5.49,5.49,0,1,1,5.49-5.49A5.5,5.5,0,0,1,48,80.77Zm0-10a4.49,4.49,0,1,0,4.49,4.49A4.49,4.49,0,0,0,48,70.79Z"/></svg>
