<svg id="Layer_1" data-name="Layer 1" xmlns="http://www.w3.org/2000/svg" viewBox="0 0 96 96"><defs><style>.cls-1{fill:#f79d31;}</style></defs><title>AC-SLD_Icons_Sensors</title><path class="cls-1" d="M79,31.53A31,31,0,1,0,27.3,54.65a25.68,25.68,0,1,0,41.4,0A31,31,0,0,0,79,31.53Z"/><path d="M48,63.06A31.53,31.53,0,1,1,79.53,31.53,31.57,31.57,0,0,1,48,63.06ZM48,1A30.54,30.54,0,1,0,78.54,31.53,30.58,30.58,0,0,0,48,1Z"/><path d="M60.25,39.15H35.48a.49.49,0,0,1-.45-.69L47.41,9.6a.52.52,0,0,1,.91,0L60.7,38.46a.49.49,0,0,1-.45.69Zm-24-1H59.49L47.86,11.05Z"/><path d="M48,96A26.17,26.17,0,1,1,74.17,69.83,26.2,26.2,0,0,1,48,96Zm0-51.35A25.18,25.18,0,1,0,73.18,69.83,25.21,25.21,0,0,0,48,44.65Z"/><path d="M61.24,78.16a.49.49,0,0,1-.25-.07L47.75,70.25a.49.49,0,0,1,.5-.85L61.5,77.24a.49.49,0,0,1-.25.92Z"/><path d="M34.69,77.92a.49.49,0,0,1-.25-.92l13.31-7.6a.49.49,0,1,1,.49.86l-13.31,7.6A.49.49,0,0,1,34.69,77.92Z"/><path d="M48,70.32a.49.49,0,0,1-.49-.49V54.44a.49.49,0,0,1,1,0V69.83A.49.49,0,0,1,48,70.32Z"/></svg>