<svg id="Layer_1" data-name="Layer 1" xmlns="http://www.w3.org/2000/svg" viewBox="0 0 96 96"><defs><style>.cls-1{fill:#76b043;}</style></defs><title>AC-SLD_Icons_Sensors</title><rect class="cls-1" x="0.49" y="23.26" width="95.01" height="49.48"/><path d="M.49,73.24a.49.49,0,0,1-.23-.93l94.8-49.37a.49.49,0,0,1,.46.88L.72,73.18A.49.49,0,0,1,.49,73.24Z"/><path d="M95.51,73.24a.49.49,0,0,1-.23-.06L.27,23.7a.49.49,0,0,1,.46-.88l95,49.48a.49.49,0,0,1-.23.93Z"/><path d="M95.51,73.24H.49A.49.49,0,0,1,0,72.74V23.26a.49.49,0,0,1,.49-.49h95a.49.49,0,0,1,.49.49V72.74A.49.49,0,0,1,95.51,73.24ZM1,72.25H95V23.75H1Z"/></svg>
