<?xml version="1.0" encoding="utf-8"?>
<!-- Generator: Adobe Illustrator 19.1.0, SVG Export Plug-In . SVG Version: 6.00 Build 0)  -->
<svg version="1.1" id="Layer_1" xmlns="http://www.w3.org/2000/svg" xmlns:xlink="http://www.w3.org/1999/xlink" x="0px" y="0px"
	 viewBox="0 0 244.7 105.7" style="enable-background:new 0 0 244.7 105.7;" xml:space="preserve">
<style type="text/css">
	.st0{opacity:0.65;}
	.st1{fill:#ffffff;}
	.st2{fill:#ffffff;}
	.st3{fill:#ffffff;}
</style>
<g>
	<g class="st0">
		<path class="st1" d="M206.9,39.8c-0.2,0-0.4,0.1-0.6,0.1h-1.8v-2.1h1.9c0.4,0,0.8,0.1,1,0.3c0.2,0.2,0.3,0.4,0.3,0.8
			c0,0.2,0,0.4-0.1,0.5c-0.1,0.1-0.1,0.2-0.3,0.3C207.2,39.7,207.1,39.7,206.9,39.8 M207.7,40.8c-0.2-0.2-0.3-0.3-0.6-0.4
			c0.2,0,0.4-0.1,0.6-0.2c0.2-0.1,0.3-0.2,0.4-0.4c0.1-0.1,0.2-0.3,0.3-0.5c0.1-0.2,0.1-0.4,0.1-0.6c0-0.1,0-0.2,0-0.4
			c0-0.1-0.1-0.2-0.1-0.3c0-0.1-0.1-0.2-0.2-0.3c-0.1-0.1-0.2-0.2-0.2-0.3c-0.1-0.1-0.2-0.2-0.3-0.2c-0.1-0.1-0.2-0.1-0.4-0.1
			c-0.1,0-0.3,0-0.4,0c-0.1,0-0.3,0-0.5,0h-2.7v6.1h0.8v-2.6h1.5c0.2,0,0.3,0,0.4,0.1c0.1,0,0.3,0.1,0.4,0.2
			c0.1,0.1,0.2,0.2,0.3,0.3c0.1,0.1,0.2,0.2,0.2,0.4l0.6,1.6h0.9l-0.6-1.7C208,41.2,207.9,41,207.7,40.8 M211.3,40.1
			c0,2.8-2.3,5.1-5.1,5.1c-2.8,0-5.1-2.3-5.1-5.1c0-2.8,2.3-5.1,5.1-5.1C209,35,211.3,37.3,211.3,40.1 M211.8,40.1
			c0-3.1-2.5-5.6-5.6-5.6c-3.1,0-5.6,2.5-5.6,5.6c0,3.1,2.5,5.6,5.6,5.6C209.3,45.8,211.8,43.2,211.8,40.1"/>
		<path class="st1" d="M206.2,46c-3.2,0-5.9-2.6-5.9-5.9c0-3.2,2.6-5.9,5.9-5.9c3.2,0,5.9,2.6,5.9,5.9C212.1,43.4,209.4,46,206.2,46
			z M206.2,34.7c-3,0-5.4,2.4-5.4,5.4c0,3,2.4,5.4,5.4,5.4c3,0,5.4-2.4,5.4-5.4C211.6,37.1,209.2,34.7,206.2,34.7z M206.2,45.5
			c-2.9,0-5.3-2.4-5.3-5.3c0-2.9,2.4-5.3,5.3-5.3c2.9,0,5.3,2.4,5.3,5.3C211.5,43.1,209.1,45.5,206.2,45.5z M206.2,35.2
			c-2.7,0-4.9,2.2-4.9,4.9c0,2.7,2.2,4.9,4.9,4.9c2.7,0,4.9-2.2,4.9-4.9C211.1,37.4,208.9,35.2,206.2,35.2z M209,43.4h-1.4l-0.6-1.8
			c0-0.1-0.1-0.2-0.2-0.3c-0.1-0.1-0.2-0.2-0.3-0.3c-0.1-0.1-0.2-0.1-0.3-0.2c-0.1,0-0.2-0.1-0.4-0.1h-1.3v2.6h-1.3v-6.5h2.9
			c0.2,0,0.3,0,0.5,0c0.2,0,0.3,0,0.5,0.1c0.2,0,0.3,0.1,0.4,0.1c0.1,0.1,0.3,0.1,0.4,0.3c0.1,0.1,0.2,0.2,0.3,0.3
			c0.1,0.1,0.1,0.2,0.2,0.4c0.1,0.1,0.1,0.3,0.1,0.4c0,0.1,0,0.3,0,0.4c0,0.2,0,0.5-0.1,0.7c-0.1,0.2-0.2,0.4-0.3,0.5
			c-0.1,0.2-0.3,0.3-0.5,0.4c0,0-0.1,0-0.1,0.1c0.1,0.1,0.1,0.1,0.2,0.2c0.2,0.2,0.3,0.5,0.5,0.8L209,43.4z M208,42.9h0.4l-0.5-1.4
			c-0.1-0.3-0.2-0.5-0.4-0.7l0,0c-0.1-0.2-0.3-0.3-0.5-0.3l-0.8-0.3l0.8-0.2c0.2,0,0.4-0.1,0.5-0.2c0.1-0.1,0.3-0.2,0.4-0.3
			c0.1-0.1,0.2-0.3,0.2-0.4c0.1-0.2,0.1-0.3,0.1-0.5c0-0.1,0-0.2,0-0.3c0-0.1-0.1-0.2-0.1-0.3c0-0.1-0.1-0.2-0.2-0.3
			c-0.1-0.1-0.1-0.2-0.2-0.2c-0.1-0.1-0.2-0.1-0.3-0.2c-0.1,0-0.2-0.1-0.3-0.1c-0.1,0-0.3,0-0.4,0c-0.1,0-0.3,0-0.5,0h-2.5v5.6h0.4
			v-2.6h1.7c0.2,0,0.4,0,0.5,0.1c0.2,0.1,0.3,0.1,0.4,0.2c0.1,0.1,0.2,0.2,0.3,0.4c0.1,0.1,0.2,0.3,0.2,0.4L208,42.9z M206.3,40.1
			h-2v-2.5h2.2c0.5,0,0.9,0.1,1.1,0.3c0.3,0.2,0.4,0.5,0.4,1c0,0.2,0,0.4-0.1,0.6c-0.1,0.2-0.2,0.3-0.3,0.4
			c-0.1,0.1-0.3,0.2-0.5,0.2C206.8,40,206.5,40.1,206.3,40.1z M204.7,39.6h1.6c0.2,0,0.4,0,0.6-0.1l0,0c0.1,0,0.3-0.1,0.4-0.1
			c0.1-0.1,0.1-0.1,0.2-0.2c0-0.1,0.1-0.2,0.1-0.4c0-0.3-0.1-0.5-0.2-0.6c-0.2-0.1-0.5-0.2-0.8-0.2h-1.7V39.6z"/>
	</g>
	<g>
		<path class="st2" d="M114.4,44.3c-1.6,0.6-3.5,1.8-4.8,2.7l0.2-2.7l-4,0.7l-3.2,18.2h4.6l2-11.5c2-1.3,3.4-2.1,5.5-3.3L114.4,44.3
			z M94,57c-1.4,1.4-3.5,2.8-5,2.8c-0.8,0-1.3-0.3-1.3-1c0-0.1,0-0.2,0-0.5l1.1-6.5c0.4-2.4,1-3.7,3.9-3.7c1,0,1.8,0.1,2.6,0.3
			L94,57z M100.6,45.4c-1.9-0.6-5.2-1.2-7-1.2c-7.2,0-8.4,2.7-9.2,7.7l-1,5.4c-0.1,0.7-0.2,1.3-0.2,1.9c0,2.5,1.1,4.2,4.3,4.2
			c2.5,0,4.5-1,6.1-2.4l0,2.1h3.9L100.6,45.4z M73,63.2h4.6l4.7-26.8L77.6,37L73,63.2z M65.1,56.5c-0.4,2.2-1.7,3.2-4.1,3.2
			c-2.2,0-3.1-0.9-3.1-2.4c0-0.3,0-0.6,0.1-0.8l0.9-5c0.4-2.3,1.7-3.4,4.1-3.4c2.1,0,3.1,0.8,3.1,2.4c0,0.2,0,0.6-0.1,0.8L65.1,56.5
			z M60.4,63.6c6.5,0,8.6-2.7,9.4-7.1l0.9-5c0.1-0.5,0.1-0.9,0.1-1.3c0-3.3-2.3-6-7-6c-6.2,0-8.5,2.7-9.3,7.3l-0.8,4.5
			c-0.1,0.5-0.1,1-0.1,1.5C53.4,60.8,55.5,63.6,60.4,63.6 M40.2,63.6c7.3,0,8.8-2.1,9.7-7.3c0.2-1,0.3-1.8,0.3-2.5
			c0-2.8-1.4-4.1-6-5.3c-3.2-0.8-4-1.3-4-2.5c0-0.4,0.1-1,0.2-1.6c0.4-2.5,1.1-2.9,4.4-2.9c2.1,0,4.3,0.3,6.7,0.9l0.8-3.9
			c-2.4-0.7-4.8-1-7.1-1c-6.7,0-8.4,1.3-9.4,6.7c-0.2,0.9-0.3,1.8-0.3,2.5c0,2.7,1.3,4.5,5.7,5.6c3.4,0.9,4.2,1.2,4.2,2.5
			c0,0.4-0.1,1-0.2,1.6c-0.5,2.5-1.1,3.3-4.7,3.3c-2.4,0-4.5-0.5-6.9-1.2l-1,3.7C34.7,63.1,38.1,63.6,40.2,63.6"/>
	</g>
	<g>
		<path class="st3" d="M190,52c-1.9,0.6-2.1,0.6-2.8,0.8l0.3-1.9c0.3-1.8,1.3-3.1,3.4-3.1c1.2,0,1.9,0.6,1.9,1.5
			C193,50.5,192.1,51.3,190,52 M186.5,56.9c0.9-0.2,1.3-0.3,3.6-1c5.1-1.6,7.3-3.5,7.3-6.8c0-3-2.4-4.8-6-4.8
			c-5.6,0-7.7,2.7-8.5,7.1l-1,5.6c-0.7,3.9,0.3,6.6,5.2,6.6c3.1,0,6.5-1.1,8.8-2.4l-1-3.5c-2.4,1.2-5.2,2.1-7.1,2.1
			c-1.7,0-1.6-0.9-1.5-2L186.5,56.9z M171.2,63.6c5.2,0,6.6-1.5,7.4-5.6c0.5-2.9-0.3-3.7-4.5-6c-2-1.1-2.4-1.4-2.1-2.6
			c0.2-1.3,0.8-1.4,2.6-1.4c1.3,0,3.4,0.3,4.8,0.7l0.8-3.5c-1.5-0.5-3.8-0.9-5.5-0.9c-4.9,0-6.4,1.1-7,4.9c-0.5,2.8-0.1,4.2,3.9,6.2
			c2.7,1.4,2.9,1.8,2.7,2.9c-0.2,1.3-0.6,1.6-2.7,1.6c-1.9,0-3.7-0.5-5.2-1l-0.9,3.5C166.9,63.1,169.5,63.6,171.2,63.6 M155.9,63.2
			h4.6l4.7-26.8l-4.7,0.6L155.9,63.2z M143,44.3l-4.7,0.6L136,58.1c-0.1,0.6-0.2,1.1-0.2,1.8c0,2,0.8,3.7,3.4,3.7
			c2.2,0,5.1-1,7.5-2.3l-0.1,1.9h3.9l3.3-18.9l-4.7,0.6l-2.1,12c-1.7,1-4.3,2.2-5.5,2.2c-0.7,0-1-0.3-1-0.8c0-0.1,0-0.2,0-0.5
			L143,44.3z M121.9,50.9c1-1.2,3.2-2.8,5.2-2.8c0.8,0,1.3,0.3,1.3,1c0,0.1,0,0.2,0,0.5l-1.1,6.6c-0.4,2.4-1.2,3.6-4.1,3.6
			c-0.6,0-1.9,0-2.7-0.2L121.9,50.9z M113.7,71.4l4.7-0.6l1.3-7.5c1,0.2,2.4,0.3,3.1,0.3c7.3,0,8.2-3,9-7.7l1-5.4
			c0.1-0.7,0.2-1.3,0.2-1.9c0-2.5-1.1-4.2-4.3-4.2c-2.7,0-4.7,1-6.3,2.4v-2.1h-3.9L113.7,71.4z"/>
	</g>
</g>
</svg>
